<svg width="562" height="564" viewBox="0 0 562 564" fill="none" xmlns="http://www.w3.org/2000/svg">
<path d="M192.252 456.421C89.9424 689.444 664.876 485.781 438.67 369.12C664.876 485.781 448.058 -126.226 345.748 106.857C448.058 -126.166 -126.876 77.4972 99.3303 194.158C-126.876 77.4972 89.9424 689.504 192.252 456.421Z" fill="#DB94B8"/>
<path d="M462.964 320.89C479.513 320.89 492.929 303.454 492.929 281.945C492.929 260.436 479.513 243 462.964 243C446.415 243 433 260.436 433 281.945C433 303.454 446.415 320.89 462.964 320.89Z" fill="white"/>
<path d="M448.758 280.348C453.98 280.348 458.214 275.07 458.214 268.561C458.214 262.051 453.98 256.773 448.758 256.773C443.536 256.773 439.302 262.051 439.302 268.561C439.302 275.07 443.536 280.348 448.758 280.348Z" fill="#211815"/>
<path d="M531.572 320.89C548.121 320.89 561.536 303.454 561.536 281.945C561.536 260.436 548.121 243 531.572 243C515.023 243 501.608 260.436 501.608 281.945C501.608 303.454 515.023 320.89 531.572 320.89Z" fill="white"/>
<path d="M517.453 280.348C522.675 280.348 526.908 275.07 526.908 268.561C526.908 262.051 522.675 256.773 517.453 256.773C512.23 256.773 507.997 262.051 507.997 268.561C507.997 275.07 512.23 280.348 517.453 280.348Z" fill="#211815"/>
</svg>
