<svg width="194" height="202" viewBox="0 0 194 202" fill="none" xmlns="http://www.w3.org/2000/svg">
<path d="M124.675 163.68C161.567 247.245 -45.7509 174.208 35.818 132.372C-45.7509 174.208 32.4328 -45.2666 69.3252 38.3205C32.4328 -45.2451 239.751 27.7917 158.182 69.6281C239.751 27.7917 161.567 247.267 124.675 163.68Z" fill="#3E1914"/>
<path d="M109.062 107.732C107.996 108.142 106.859 108.341 105.629 108.341C104.398 108.341 103.262 108.142 102.207 107.732C101.141 107.333 100.227 106.771 99.4414 106.032C97.8828 104.568 96.9219 102.294 96.9219 99.6223C96.9219 97.8528 97.3086 96.3059 98.082 94.97C98.8555 93.6458 99.8984 92.6379 101.211 91.9465C102.512 91.2551 103.988 90.9153 105.629 90.9153C108.594 90.9153 111.113 92.1106 112.695 94.2083C113.738 95.6028 114.348 97.5012 114.348 99.6223C114.348 102.294 113.41 104.568 111.84 106.032C111.055 106.771 110.129 107.333 109.062 107.732ZM105.629 105.669C107.176 105.669 108.453 105.118 109.461 104.005C110.457 102.892 110.961 101.439 110.961 99.6223C110.961 97.8059 110.457 96.3528 109.461 95.2395C108.453 94.1262 107.176 93.5754 105.629 93.5754C104.094 93.5754 102.828 94.1262 101.832 95.2395C100.836 96.3528 100.332 97.8059 100.332 99.6223C100.332 101.439 100.836 102.892 101.832 104.005C102.828 105.118 104.094 105.669 105.629 105.669Z" fill="white"/>
<path d="M87.2773 108.341C85.4961 108.341 83.9023 107.99 82.5078 107.286C81.1016 106.583 80 105.575 79.2031 104.251C78.4062 102.939 78.0078 101.427 78.0078 99.7161C78.0078 97.1497 79.0391 94.8762 80.7031 93.3528C82.3672 91.8293 84.7578 90.9153 87.3945 90.9153C89.7383 90.9153 91.8359 91.4192 93.2422 92.134L93.125 95.4036C92.5508 94.9817 91.8008 94.6536 90.875 94.4192C89.9492 94.1965 89.0117 94.0793 88.0859 94.0793C86.0703 94.0793 84.4414 94.6067 83.1875 95.6614C81.9336 96.7161 81.3008 98.0754 81.3008 99.7395C81.3008 101.345 81.8633 102.646 83 103.618C84.125 104.603 85.6016 105.095 87.418 105.095C89 105.095 90.4766 104.638 91.4258 103.876V101.204H88.6367C87.8633 101.204 87.207 101.263 86.668 101.38L86.8203 98.2278H94.707V105.939C93.7812 106.7 92.6562 107.286 91.3555 107.708C90.0547 108.13 88.6953 108.341 87.2773 108.341Z" fill="white"/>
</svg>
