<svg width="135" height="26" viewBox="0 0 135 26" fill="none" xmlns="http://www.w3.org/2000/svg">
<path d="M122.221 25.207H110.988C111.357 23.5898 111.533 21.5684 111.533 19.1602V6.04688C111.533 3.63867 111.357 1.61719 110.988 0H122.221C127.143 0 131.133 2.02148 133.348 5.87109C134.455 7.78711 135 10.0371 135 12.6035C135 15.1699 134.455 17.4199 133.348 19.3359C132.24 21.252 130.711 22.7109 128.795 23.7129C126.879 24.7148 124.682 25.207 122.221 25.207ZM116.473 4.83398V20.3906H122.379C124.506 20.3906 126.299 19.6699 127.74 18.2109C129.182 16.752 129.902 14.8887 129.902 12.6035C129.902 10.3184 129.182 8.45508 127.74 6.99609C126.299 5.55469 124.506 4.83398 122.379 4.83398H116.473Z" fill="#3E1914"/>
<path d="M105.926 25.207H99.9492C100.283 23.6953 100.459 21.6738 100.459 19.1602V6.04688C100.459 3.5332 100.283 1.51172 99.9492 0H105.926C105.592 1.45898 105.434 3.46289 105.434 6.04688V19.1602C105.434 21.7441 105.592 23.748 105.926 25.207Z" fill="#3E1914"/>
<path d="M85.6406 25.207H64.9688C65.3379 23.5898 65.5137 21.5684 65.5137 19.1602V6.04688C65.5137 3.63867 65.3379 1.61719 64.9688 0H84.709L85.5 5.48438C84.7969 5.08008 83.2852 4.86914 80.9648 4.86914H70.4531V10.4766H79.4883C81 10.4766 82.2305 10.4238 83.1973 10.3008V15.1699C82.2656 15.0117 81.0176 14.9414 79.4883 14.9414H70.4531V20.3555H80.8945C83.6543 20.3555 85.5 20.1094 86.4316 19.5996L85.6406 25.207Z" fill="#3E1914"/>
<path d="M41.4141 25.207H35.4375C35.8066 23.5898 35.9824 21.5684 35.9824 19.1602V6.04688C35.9824 3.63867 35.8066 1.61719 35.4375 0L40.8867 0.0351562L53.9824 17.7188H54.4219V6.01172C54.4219 3.65625 54.2461 1.65234 53.9121 0H59.8887C59.5547 1.51172 59.3789 3.5332 59.3789 6.04688V25.207H54.668L41.3438 7.20703H40.9219V18.8789C40.9219 21.4102 41.0801 23.5195 41.4141 25.207Z" fill="#3E1914"/>
<path d="M30.375 25.207H24.3984C24.7324 23.6953 24.9082 21.6738 24.9082 19.1602V6.04688C24.9082 3.5332 24.7324 1.51172 24.3984 0H30.375C30.041 1.45898 29.8828 3.46289 29.8828 6.04688V19.1602C29.8828 21.7441 30.041 23.748 30.375 25.207Z" fill="#3E1914"/>
<path d="M16.1719 25.7168C15.0645 25.7168 13.5176 25.541 11.5664 25.207C9.59766 24.873 7.98047 24.6973 6.69727 24.6973C5.44922 24.6973 4.20117 24.8027 2.98828 24.9961C1.75781 25.207 0.755859 25.4531 0 25.7168C0.369141 24.0645 0.544922 21.8848 0.544922 19.1602V6.04688C0.544922 3.63867 0.369141 1.61719 0 0H5.97656C5.64258 1.63477 5.48438 3.63867 5.48438 6.01172V20.4961H14.7305C17.3672 20.4961 19.3535 20.1797 20.707 19.5469L20.4961 24.9609C20.4082 24.9785 20.1445 25.0488 19.7227 25.1543C19.3008 25.2773 18.9492 25.3652 18.668 25.4355C18.0879 25.5586 17.0156 25.7168 16.1719 25.7168Z" fill="#3E1914"/>
</svg>
