<svg width="36" height="27" viewBox="0 0 36 27" fill="none" xmlns="http://www.w3.org/2000/svg">
<path d="M23.9414 26.1387C21.2695 26.1387 18.8789 25.6113 16.7871 24.5566C14.6777 23.502 13.0254 21.9902 11.8301 20.0039C10.6348 18.0352 10.0371 15.7676 10.0371 13.2012C10.0371 9.35156 11.584 5.94141 14.0801 3.65625C16.5762 1.37109 20.1621 0 24.1172 0C27.6328 0 30.7793 0.755859 32.8887 1.82812L32.7129 6.73242C31.8516 6.09961 30.7266 5.60742 29.3379 5.25586C27.9492 4.92188 26.543 4.74609 25.1543 4.74609C22.1309 4.74609 19.6875 5.53711 17.8066 7.11914C15.9258 8.70117 14.9766 10.7402 14.9766 13.2363C14.9766 15.6445 15.8203 17.5957 17.5254 19.0547C19.2129 20.5312 21.4277 21.2695 24.1523 21.2695C26.5254 21.2695 28.7402 20.584 30.1641 19.4414V15.4336H25.9805C24.8203 15.4336 23.8359 15.5215 23.0273 15.6973L23.2559 10.9688H35.0859V22.5352C33.6973 23.6777 32.0098 24.5566 30.0586 25.1895C28.1074 25.8223 26.0684 26.1387 23.9414 26.1387Z" fill="#3E1914"/>
<path d="M5.97656 25.6641H0C0.333984 24.1523 0.509766 22.1309 0.509766 19.6172V6.50391C0.509766 3.99023 0.333984 1.96875 0 0.457031H5.97656C5.64258 1.91602 5.48438 3.91992 5.48438 6.50391V19.6172C5.48438 22.2012 5.64258 24.2051 5.97656 25.6641Z" fill="#3E1914"/>
</svg>
