<svg width="113" height="26" viewBox="0 0 113 26" fill="none" xmlns="http://www.w3.org/2000/svg">
<path d="M112.113 25.207H91.4414C91.8105 23.5898 91.9863 21.5684 91.9863 19.1602V6.04688C91.9863 3.63867 91.8105 1.61719 91.4414 0H111.182L111.973 5.48438C111.27 5.08008 109.758 4.86914 107.438 4.86914H96.9258V10.4766H105.961C107.473 10.4766 108.703 10.4238 109.67 10.3008V15.1699C108.738 15.0117 107.49 14.9414 105.961 14.9414H96.9258V20.3555H107.367C110.127 20.3555 111.973 20.1094 112.904 19.5996L112.113 25.207Z" fill="#3E1914"/>
<path d="M62.4727 25.207H56.4961C56.8301 23.6953 57.0059 21.6738 57.0059 19.1602V6.04688C57.0059 3.5332 56.8301 1.51172 56.4961 0H63.2988L68.8535 12.5684C70.0664 15.416 70.9102 17.4727 71.3672 18.7207H71.666C71.9648 17.8242 72.2637 17.0332 72.6328 16.1191C72.8086 15.6797 72.9668 15.3105 73.0898 15.0117C73.2129 14.7305 73.3887 14.3086 73.6348 13.7461C73.8633 13.2012 74.0391 12.7969 74.1445 12.5332L79.7168 0H86.4141C86.0625 1.40625 85.8867 3.42773 85.8867 6.04688V19.1602C85.8867 21.7793 86.0625 23.8008 86.4141 25.207H80.4375C80.7715 23.502 80.9473 21.498 80.9473 19.1602V6.85547H80.6309L72.2988 25.207H70.541L62.2266 6.85547H61.9805V19.1602C61.9805 21.7441 62.1387 23.748 62.4727 25.207Z" fill="#3E1914"/>
<path d="M32.5898 25.207H26.543C27.457 23.502 28.4062 21.498 29.3906 19.1602L34.9453 6.04688C35.5781 4.51758 36.0176 2.49609 36.2637 0H44.7715C45.0703 2.75977 45.4746 4.76367 46.0195 6.04688L51.6094 19.1602C52.7344 21.7793 53.666 23.8008 54.4219 25.207H48.4102C48.3223 24.3809 47.8477 22.9746 47.0039 20.9883L46.3535 19.4766H34.6465L33.9961 20.9883C33.1172 22.9395 32.6426 24.3457 32.5898 25.207ZM39.041 8.57812L36.0527 15.4512H44.9473L41.9238 8.54297C41.6074 7.69922 41.1855 6.39844 40.6582 4.62305H40.3418C39.7617 6.50391 39.3398 7.82227 39.041 8.57812Z" fill="#3E1914"/>
<path d="M5.97656 25.207H0C0.369141 23.5898 0.544922 21.5684 0.544922 19.1602V6.04688C0.544922 3.63867 0.369141 1.61719 0 0L5.44922 0.0351562L18.5449 17.7188H18.9844V6.01172C18.9844 3.65625 18.8086 1.65234 18.4746 0H24.4512C24.1172 1.51172 23.9414 3.5332 23.9414 6.04688V25.207H19.2305L5.90625 7.20703H5.48438V18.8789C5.48438 21.4102 5.64258 23.5195 5.97656 25.207Z" fill="#3E1914"/>
</svg>
