<svg width="447" height="171" viewBox="0 0 447 171" fill="none" xmlns="http://www.w3.org/2000/svg">
<path d="M119.071 0C130.291 2.83945e-05 140.968 1.66207 151.069 4.89062L150.269 24.0068C147.136 22.1209 142.981 20.6183 137.802 19.5635C132.624 18.5087 127.286 17.9649 121.724 17.9648C112.901 17.9648 105.868 19.7232 100.562 23.1436C95.2238 26.5958 92.5709 31.3267 92.5708 37.3682C92.5708 43.4098 95.032 47.6936 99.8589 51.082C104.686 54.4704 111.239 56.164 119.358 56.1641C123.386 56.1641 127.19 55.6208 130.77 54.502C134.318 53.4471 137.195 51.945 139.369 49.9951V43.1543H124.888C121.244 43.1543 118.143 43.5057 115.65 44.209L116.194 32.2217H159.507V61.2471C155.256 65.2747 149.534 68.4715 142.342 70.8369C135.118 73.1704 127.285 74.3213 118.75 74.3213C109.417 74.3213 101.234 72.8187 94.1372 69.8779L94.1685 69.9424C87.0401 67.0015 81.5101 62.7175 77.5464 57.0596C73.5506 51.4335 71.5688 44.8482 71.5688 37.2402C71.5689 25.9244 76.4919 16.3346 84.8989 9.94141C93.2101 3.64415 105.262 0 119.071 0ZM196.908 1.40625C195.245 6.90436 194.415 14.033 194.415 22.8555V51.4971C194.415 60.6391 195.278 67.7998 196.908 72.9463H170.504C172.198 67.7039 173.061 60.5112 173.061 51.4971V22.8555C173.061 14.1289 172.199 7.00026 170.504 1.40625H196.908ZM288.107 22.4727C285.358 20.7785 279.508 19.915 270.589 19.915H234.627V33.1807H264.069C269.215 33.1807 273.211 32.9888 276.056 32.5732V45.8398C273.211 45.4563 269.215 45.2324 264.069 45.2324H234.627V53.2236C234.627 61.0232 235.491 67.608 237.217 72.9463H210.813C212.507 67.7039 213.371 60.5113 213.371 51.4971V22.8555C213.371 14.1289 212.507 7.00026 210.813 1.40625H284.911L288.107 22.4727ZM375.215 22.248C371.284 20.7456 365.721 20.0107 358.657 20.0107H344.335V51.4971C344.335 60.3195 345.199 67.5121 346.925 72.9463H320.521C322.151 67.5121 322.951 60.3195 322.951 51.4971V20.0107H308.566C301.342 20.0107 295.843 20.7457 292.007 22.248L295.907 1.40625H371.315L375.215 22.248Z" fill="#BA1B06"/>
<path d="M54.4453 124.655C58.3074 131.742 61.345 138.004 63.5947 143.441H64.8691C66.744 138.829 69.7819 132.567 73.9814 124.655L95.167 86.7081H127.789C125.802 92.8576 124.79 101.294 124.79 111.868L124.79 145.466C124.79 155.702 125.764 164.064 127.789 170.626H96.8916C97.7165 167.889 98.4292 164.064 98.9541 159.152C99.4791 154.278 99.7793 149.478 99.7793 144.753L99.7793 116.293H98.3916L67.5322 170.626H59.8828L29.1348 116.33H28.0098L28.0098 144.791C28.0098 149.478 28.3106 154.277 28.873 159.114C29.398 164.026 30.1097 167.888 30.9346 170.663H0L0 170.626C1.91232 164.364 2.84959 155.927 2.84961 145.466L2.84961 111.868C2.8496 100.994 1.91233 92.6326 0 86.7081H33.4844L54.4453 124.655ZM144.025 170.626V170.589H144.037C144.033 170.601 144.029 170.614 144.025 170.626ZM249.841 170.626V170.589H249.853C249.849 170.601 249.845 170.614 249.841 170.626ZM447 111.156C442.388 109.394 435.863 108.531 427.576 108.531H410.778V145.466C410.778 155.815 411.791 164.252 413.815 170.626H382.843C384.755 164.252 385.692 155.815 385.692 145.466V108.531H368.819C360.345 108.531 353.895 109.394 349.396 111.156L353.97 86.7081L442.425 86.7081L447 111.156ZM234.58 110.818C231.243 108.831 224.793 107.818 215.156 107.818H172.072V121.693H205.332C211.181 121.693 215.869 121.468 219.318 120.981V136.317C216.094 135.792 211.406 135.491 205.332 135.491H172.072V149.553H215.269C225.693 149.553 233.193 148.091 237.805 145.203L233.455 170.589L144.037 170.589C146.017 164.443 147.024 156.019 147.024 145.466V111.868C147.024 101.632 146.013 93.27 144.025 86.7081L230.942 86.7081L234.58 110.818ZM340.396 110.818C337.058 108.831 330.609 107.819 320.973 107.818L277.889 107.818V121.693L311.148 121.693C316.998 121.692 321.685 121.468 325.135 120.981V136.317C321.91 135.792 317.223 135.491 311.148 135.491H277.889V149.553H321.085C331.509 149.553 339.008 148.09 343.62 145.203L339.271 170.589H249.853C251.832 164.443 252.841 156.019 252.841 145.466V111.868C252.841 101.632 251.828 93.27 249.841 86.7081L336.759 86.7081L340.396 110.818Z" fill="#BA1B06"/>
</svg>
