<svg width="696" height="30" viewBox="0 0 696 30" fill="none" xmlns="http://www.w3.org/2000/svg">
<path d="M694.438 16.0312H690.984L690.312 0H695.141L694.438 16.0312ZM694.531 22.1562C694.062 22.6094 693.453 22.8281 692.703 22.8281C691.953 22.8281 691.344 22.6094 690.891 22.1719C690.422 21.7344 690.188 21.1875 690.188 20.5469C690.188 19.2188 691.203 18.2188 692.703 18.2188C694.203 18.2188 695.234 19.2188 695.234 20.5469C695.234 21.1875 695 21.7188 694.531 22.1562Z" fill="#3E1914"/>
<path d="M684.297 22.8281C679.797 22.8281 677.547 20.8906 677.547 17V9.21875H673.969V6.40625H677.547V1.09375L681.609 0V6.40625H687.75V9.21875H681.609V15.625C681.609 18.0781 682.797 19.2969 685.156 19.2969C686.25 19.2969 687.141 19.0781 687.844 18.625V22.0938C686.891 22.5781 685.703 22.8281 684.297 22.8281Z" fill="#3E1914"/>
<path d="M658.094 22.4062H652.844C653.141 21.0625 653.297 19.5625 653.297 17.9219V11.2656C653.297 9.375 653.141 7.75 652.844 6.40625H658.156C657.797 7.17188 657.609 8.21875 657.609 9.54688V10.4688H657.938C659.016 7.59375 661.281 5.98438 664.531 5.98438C666.766 5.98438 668.516 6.59375 669.75 7.82812C670.984 9.0625 671.594 10.8281 671.594 13.0938V17.3438C671.594 19.375 671.75 21.0625 672.047 22.4062H666.797C667.125 20.9688 667.281 19.4062 667.281 17.7344V14.125C667.281 11.1406 665.594 9.48438 662.766 9.48438C661.312 9.48438 660.078 10 659.094 11.0312C658.109 12.0781 657.609 13.25 657.609 14.5625V17.7656C657.609 19.9688 657.766 21.5156 658.094 22.4062Z" fill="#3E1914"/>
<path d="M641.281 22.8281C638.234 22.8281 635.781 22.0469 633.922 20.4844C632.047 18.9375 631.109 16.9062 631.109 14.4062C631.109 11.2344 632.703 8.57812 635.641 7.09375C637.094 6.35938 638.781 5.98438 640.672 5.98438C643.5 5.98438 645.797 6.625 647.188 7.67188C648.578 8.73438 649.312 10.1094 649.312 11.6562C649.312 14.7969 646.969 16.2031 642.156 16.2031C639.391 16.2031 637.062 15.5938 635.172 14.375L634.984 14.5C635.047 16.0469 635.781 17.3125 637.188 18.3281C638.594 19.3438 640.281 19.8438 642.25 19.8438C643.609 19.8438 644.891 19.6562 646.109 19.2969C647.328 18.9375 648.234 18.4688 648.844 17.8594L648.906 21.2812C648.141 21.7344 647.047 22.0938 645.594 22.3906C644.141 22.6875 642.703 22.8281 641.281 22.8281ZM640.672 13.9219C641.844 13.9219 642.859 13.7656 643.781 13.4375C644.703 13.1094 645.281 12.4531 645.281 11.5938C645.281 10.8281 644.828 10.1719 643.922 9.64062C643 9.10938 641.844 8.84375 640.453 8.84375C639.141 8.84375 637.969 9.17188 636.953 9.84375C635.922 10.5156 635.312 11.4375 635.109 12.6094C636.594 13.4844 638.453 13.9219 640.672 13.9219Z" fill="#3E1914"/>
<path d="M601.156 22.4062H595.906C596.203 21.0625 596.359 19.5625 596.359 17.9219V11.2656C596.359 9.375 596.203 7.75 595.906 6.40625H601.219C600.859 7.17188 600.672 8.21875 600.672 9.54688V10.4688H601C602.109 7.48438 604.266 5.98438 607.438 5.98438C610.766 5.98438 612.828 7.48438 613.641 10.4688H613.922C614.984 7.60938 617.406 5.98438 620.703 5.98438C625.078 5.98438 627.297 8.59375 627.297 13.0938V17.3438C627.297 19.375 627.453 21.0625 627.75 22.4062H622.5C622.828 20.9688 622.984 19.4062 622.984 17.7344V14.125C622.984 11.2031 621.625 9.48438 618.891 9.48438C617.516 9.48438 616.359 9.98438 615.438 10.9844C614.5 12 614.016 13.1406 613.984 14.4062V17.5781C613.984 19.2812 614.141 20.8906 614.438 22.4062H609.344C609.562 21.3125 609.672 19.75 609.672 17.7344V14.125C609.672 11.2031 608.312 9.48438 605.578 9.48438C602.641 9.45312 600.594 12.0781 600.672 14.5625V17.7656C600.672 19.9688 600.828 21.5156 601.156 22.4062Z" fill="#3E1914"/>
<path d="M586.891 22.1719C585.688 22.6094 584.375 22.8281 582.922 22.8281C581.469 22.8281 580.156 22.6094 578.969 22.1719C577.766 21.75 576.781 21.1562 575.984 20.3906C574.391 18.8906 573.484 16.7812 573.484 14.4062C573.484 12.0312 574.391 9.92188 575.984 8.40625C577.578 6.90625 580.031 5.98438 582.953 5.98438C585.844 5.98438 588.312 6.90625 589.906 8.40625C591.5 9.92188 592.391 12.0312 592.391 14.4062C592.391 17.9844 590.406 20.9062 586.891 22.1719ZM582.922 19.8125C584.484 19.8125 585.781 19.3125 586.797 18.2969C587.812 17.2812 588.328 15.9844 588.328 14.4062C588.328 12.8281 587.812 11.5312 586.797 10.5156C585.781 9.5 584.484 9 582.922 9C581.375 9 580.094 9.5 579.078 10.5156C578.062 11.5312 577.547 12.8281 577.547 14.4062C577.547 15.9844 578.062 17.2656 579.078 18.2812C580.094 19.2969 581.375 19.8125 582.922 19.8125Z" fill="#3E1914"/>
<path d="M543.531 22.4062H538.281C538.578 21.0625 538.734 19.5625 538.734 17.9219V11.2656C538.734 9.375 538.578 7.75 538.281 6.40625H543.594C543.234 7.17188 543.047 8.21875 543.047 9.54688V10.4688H543.375C544.484 7.48438 546.641 5.98438 549.812 5.98438C553.141 5.98438 555.203 7.48438 556.016 10.4688H556.297C557.359 7.60938 559.781 5.98438 563.078 5.98438C567.453 5.98438 569.672 8.59375 569.672 13.0938V17.3438C569.672 19.375 569.828 21.0625 570.125 22.4062H564.875C565.203 20.9688 565.359 19.4062 565.359 17.7344V14.125C565.359 11.2031 564 9.48438 561.266 9.48438C559.891 9.48438 558.734 9.98438 557.812 10.9844C556.875 12 556.391 13.1406 556.359 14.4062V17.5781C556.359 19.2812 556.516 20.8906 556.812 22.4062H551.719C551.938 21.3125 552.047 19.75 552.047 17.7344V14.125C552.047 11.2031 550.688 9.48438 547.953 9.48438C545.016 9.45312 542.969 12.0781 543.047 14.5625V17.7656C543.047 19.9688 543.203 21.5156 543.531 22.4062Z" fill="#3E1914"/>
<path d="M519.281 22.4062H514.062C514.344 21 514.484 19.5156 514.484 17.9531V11.2656C514.484 9.46875 514.344 7.84375 514.062 6.40625H519.5C519.297 6.79688 519.141 7.3125 519.016 7.98438C518.891 8.65625 518.828 9.29688 518.828 9.92188V11.3281H519.125C519.922 7.9375 522.031 5.98438 524.922 5.98438C525.828 5.98438 526.625 6.125 527.312 6.40625V10.375C526.688 9.82812 525.438 9.42188 524.25 9.42188C522.828 9.42188 521.562 9.96875 520.469 11.0781C519.375 12.1875 518.828 13.5 518.828 15.0469V18.6875C518.828 20.3438 518.984 21.5781 519.281 22.4062Z" fill="#3E1914"/>
<path d="M498.016 22.8281C495.781 22.8281 494.047 22.2188 492.812 20.9844C491.578 19.75 490.953 18 490.953 15.7188V11.4688C490.953 9.5 490.812 7.8125 490.531 6.40625H495.75C495.453 7.75 495.297 9.3125 495.297 11.0781V14.7188C495.297 17.6719 496.953 19.3281 499.812 19.3281C501.25 19.3281 502.469 18.8125 503.453 17.7656C504.438 16.7344 504.938 15.5625 504.938 14.25V11.0469C504.938 8.90625 504.781 7.35938 504.484 6.40625H509.734C509.406 7.84375 509.25 9.34375 509.25 10.8906V17.5469C509.25 19.3438 509.406 20.9688 509.734 22.4062H504.422C504.766 21.6094 504.938 20.5625 504.938 19.2656V18.375H504.609C503.531 21.2344 501.266 22.8281 498.016 22.8281Z" fill="#3E1914"/>
<path d="M481.516 22.1719C480.312 22.6094 479 22.8281 477.547 22.8281C476.094 22.8281 474.781 22.6094 473.594 22.1719C472.391 21.75 471.406 21.1562 470.609 20.3906C469.016 18.8906 468.109 16.7812 468.109 14.4062C468.109 12.0312 469.016 9.92188 470.609 8.40625C472.203 6.90625 474.656 5.98438 477.578 5.98438C480.469 5.98438 482.938 6.90625 484.531 8.40625C486.125 9.92188 487.016 12.0312 487.016 14.4062C487.016 17.9844 485.031 20.9062 481.516 22.1719ZM477.547 19.8125C479.109 19.8125 480.406 19.3125 481.422 18.2969C482.438 17.2812 482.953 15.9844 482.953 14.4062C482.953 12.8281 482.438 11.5312 481.422 10.5156C480.406 9.5 479.109 9 477.547 9C476 9 474.719 9.5 473.703 10.5156C472.688 11.5312 472.172 12.8281 472.172 14.4062C472.172 15.9844 472.688 17.2656 473.703 18.2812C474.719 19.2969 476 19.8125 477.547 19.8125Z" fill="#3E1914"/>
<path d="M454.281 29.7969C450.766 29.7969 447.844 29.2656 445.5 28.2031V24.4219C446.484 25.1875 447.719 25.7969 449.172 26.2188C450.625 26.6406 452.094 26.8594 453.609 26.8594C457.719 26.8594 460.891 25.2188 460.891 21.0938C460.891 20.1406 460.578 19.2188 459.938 18.3125H459.656C458.594 21.2031 456.188 22.8281 452.891 22.8281C448.406 22.8281 445.859 20.2812 445.859 15.7188V11.4688C445.859 9.64062 445.703 7.95312 445.406 6.40625H450.625C450.328 7.78125 450.172 9.34375 450.172 11.0781V14.7188C450.172 17.6719 451.828 19.3281 454.688 19.3281C456.125 19.3281 457.344 18.8125 458.328 17.7656C459.312 16.7344 459.812 15.5625 459.812 14.25V11.0469C459.812 8.78125 459.656 7.23438 459.359 6.40625H464.609C464.281 7.875 464.125 9.375 464.125 10.8906V18.4375C464.75 19.5312 465.062 20.5938 465.062 21.6094C465.062 27.3125 460.016 29.7969 454.281 29.7969Z" fill="#3E1914"/>
<path d="M417.531 22.8281C414.484 22.8281 412.031 22.0469 410.172 20.4844C408.297 18.9375 407.359 16.9062 407.359 14.4062C407.359 11.2344 408.953 8.57812 411.891 7.09375C413.344 6.35938 415.031 5.98438 416.922 5.98438C419.75 5.98438 422.047 6.625 423.438 7.67188C424.828 8.73438 425.562 10.1094 425.562 11.6562C425.562 14.7969 423.219 16.2031 418.406 16.2031C415.641 16.2031 413.312 15.5938 411.422 14.375L411.234 14.5C411.297 16.0469 412.031 17.3125 413.438 18.3281C414.844 19.3438 416.531 19.8438 418.5 19.8438C419.859 19.8438 421.141 19.6562 422.359 19.2969C423.578 18.9375 424.484 18.4688 425.094 17.8594L425.156 21.2812C424.391 21.7344 423.297 22.0938 421.844 22.3906C420.391 22.6875 418.953 22.8281 417.531 22.8281ZM416.922 13.9219C418.094 13.9219 419.109 13.7656 420.031 13.4375C420.953 13.1094 421.531 12.4531 421.531 11.5938C421.531 10.8281 421.078 10.1719 420.172 9.64062C419.25 9.10938 418.094 8.84375 416.703 8.84375C415.391 8.84375 414.219 9.17188 413.203 9.84375C412.172 10.5156 411.562 11.4375 411.359 12.6094C412.844 13.4844 414.703 13.9219 416.922 13.9219Z" fill="#3E1914"/>
<path d="M397.438 22.4062H392.219C392.5 21 392.641 19.5156 392.641 17.9531V11.2656C392.641 9.46875 392.5 7.84375 392.219 6.40625H397.656C397.453 6.79688 397.297 7.3125 397.172 7.98438C397.047 8.65625 396.984 9.29688 396.984 9.92188V11.3281H397.281C398.078 7.9375 400.188 5.98438 403.078 5.98438C403.984 5.98438 404.781 6.125 405.469 6.40625V10.375C404.844 9.82812 403.594 9.42188 402.406 9.42188C400.984 9.42188 399.719 9.96875 398.625 11.0781C397.531 12.1875 396.984 13.5 396.984 15.0469V18.6875C396.984 20.3438 397.141 21.5781 397.438 22.4062Z" fill="#3E1914"/>
<path d="M377.047 22.8281C374.969 22.8281 373.328 22.3125 372.141 21.2812C370.953 20.2656 370.359 18.9531 370.359 17.3438C370.359 15.7344 370.953 14.4219 372.156 13.4062C373.344 12.3906 374.984 11.875 377.078 11.875C378.594 11.875 379.891 12.1875 380.969 12.7969C382.031 13.4062 382.766 14.1562 383.156 15.0469H383.516V12.8125C383.516 10.0156 381.562 8.60938 378.172 8.60938C376.984 8.60938 375.812 8.76562 374.672 9.0625C373.531 9.375 372.734 9.70312 372.281 10.0469V7.07812C372.953 6.8125 373.953 6.5625 375.297 6.32812C376.641 6.09375 377.891 5.98438 379.031 5.98438C381.484 5.98438 383.438 6.375 385.078 7.26562C386.703 8.15625 387.641 9.8125 387.641 12.0625V17.2812C387.641 18.6875 387.672 19.7656 387.75 20.5C387.812 21.2344 387.938 21.875 388.125 22.4062H383.125C383.391 21.8594 383.516 21.0469 383.516 19.9688V19.6875H383.219C382.406 21.5469 380.219 22.8281 377.047 22.8281ZM378.875 20.1406C381.703 20.1406 383.484 19.0781 383.484 17.3125C383.484 16.5938 383.047 15.9375 382.188 15.3594C381.328 14.7812 380.219 14.5 378.875 14.5C376.141 14.5 374.484 15.6406 374.484 17.3125C374.484 18.1406 374.875 18.8281 375.656 19.3438C376.438 19.875 377.516 20.1406 378.875 20.1406Z" fill="#3E1914"/>
<path d="M352.906 22.4062H347.656C347.953 21.0625 348.109 19.2656 348.109 17.0312V5.375C348.109 3.14062 347.953 1.34375 347.656 0H352.906C352.609 1.34375 352.453 3.14062 352.453 5.375V10.4688H352.75C353.828 7.59375 356.094 5.98438 359.344 5.98438C363.844 5.98438 366.406 8.54688 366.406 13.0938V17.3438C366.406 19.375 366.562 21.0625 366.859 22.4062H361.609C361.938 20.9688 362.094 19.4062 362.094 17.7344V14.125C362.094 11.1406 360.406 9.48438 357.578 9.48438C356.125 9.48438 354.891 10 353.891 11.0312C352.891 12.0781 352.406 13.25 352.422 14.5625L352.453 17.7656C352.453 20.0312 352.609 21.5781 352.906 22.4062Z" fill="#3E1914"/>
<path d="M336.719 22.8281C335.516 22.8281 334.141 22.6719 332.594 22.375C331.047 22.0781 329.797 21.7031 328.859 21.2812V17.5781C329.844 18.125 331.078 18.5938 332.531 18.9844C333.984 19.375 335.297 19.5625 336.469 19.5625C339.078 19.5625 340.375 18.9375 340.375 17.6719C340.375 15.7188 336.75 15.8281 333.641 15.0938C331.312 14.5938 329.25 13.5156 329.266 10.8906C329.266 9.53125 329.922 8.35938 331.219 7.40625C332.516 6.45312 334.281 5.98438 336.531 5.98438C337.609 5.98438 338.734 6.10938 339.906 6.34375C341.078 6.57812 342.109 6.89062 343 7.26562V10.6562C342.297 10.2812 341.375 9.9375 340.234 9.64062C339.094 9.34375 337.938 9.1875 336.781 9.1875C334.516 9.1875 333.141 9.875 333.141 11.0156C333.141 12.7969 336.766 12.6562 339.906 13.4062C342.219 13.9375 344.281 15.0469 344.281 17.7031C344.281 19.2031 343.609 20.4375 342.25 21.3906C340.891 22.3438 339.047 22.8281 336.719 22.8281Z" fill="#3E1914"/>
<path d="M305.594 22.8281C303.234 22.8281 301.375 22.0312 300 20.4531C298.609 18.875 297.922 16.8594 297.922 14.4062C297.844 9.6875 300.813 5.9375 305.531 5.98438C307.172 5.98438 308.594 6.39062 309.797 7.20312C310.984 8.01562 311.828 9.09375 312.313 10.4375H312.641V5.375C312.641 3.29688 312.484 1.51562 312.188 0H317.406C317.109 1.51562 316.953 3.29688 316.953 5.375V17.0312C316.953 19.1094 317.109 20.8906 317.406 22.4062H312.188C312.484 21.4062 312.641 20.375 312.641 19.3281V18.375H312.281C311.766 19.6562 310.922 20.7188 309.781 21.5625C308.625 22.4062 307.234 22.8281 305.594 22.8281ZM307.391 19.5C308.844 19.5 310.078 18.9688 311.078 17.9219C312.078 16.875 312.578 15.7031 312.578 14.4062C312.578 12.9531 312.094 11.75 311.109 10.7656C310.125 9.79688 308.891 9.3125 307.391 9.3125C305.813 9.3125 304.516 9.78125 303.5 10.7344C302.484 11.6875 301.984 12.9219 301.984 14.4062C301.984 15.8906 302.484 17.1094 303.5 18.0625C304.516 19.0156 305.813 19.5 307.391 19.5Z" fill="#3E1914"/>
<path d="M280.562 22.4062H275.312C275.609 21.0625 275.766 19.5625 275.766 17.9219V11.2656C275.766 9.375 275.609 7.75 275.312 6.40625H280.625C280.266 7.17188 280.078 8.21875 280.078 9.54688V10.4688H280.406C281.484 7.59375 283.75 5.98438 287 5.98438C289.234 5.98438 290.984 6.59375 292.219 7.82812C293.453 9.0625 294.062 10.8281 294.062 13.0938V17.3438C294.062 19.375 294.219 21.0625 294.516 22.4062H289.266C289.594 20.9688 289.75 19.4062 289.75 17.7344V14.125C289.75 11.1406 288.062 9.48438 285.234 9.48438C283.781 9.48438 282.547 10 281.562 11.0312C280.578 12.0781 280.078 13.25 280.078 14.5625V17.7656C280.078 19.9688 280.234 21.5156 280.562 22.4062Z" fill="#3E1914"/>
<path d="M260.141 22.8281C258.062 22.8281 256.422 22.3125 255.234 21.2812C254.047 20.2656 253.453 18.9531 253.453 17.3438C253.453 15.7344 254.047 14.4219 255.25 13.4062C256.438 12.3906 258.078 11.875 260.172 11.875C261.688 11.875 262.984 12.1875 264.062 12.7969C265.125 13.4062 265.859 14.1562 266.25 15.0469H266.609V12.8125C266.609 10.0156 264.656 8.60938 261.266 8.60938C260.078 8.60938 258.906 8.76562 257.766 9.0625C256.625 9.375 255.828 9.70312 255.375 10.0469V7.07812C256.047 6.8125 257.047 6.5625 258.391 6.32812C259.734 6.09375 260.984 5.98438 262.125 5.98438C264.578 5.98438 266.531 6.375 268.172 7.26562C269.797 8.15625 270.734 9.8125 270.734 12.0625V17.2812C270.734 18.6875 270.766 19.7656 270.844 20.5C270.906 21.2344 271.031 21.875 271.219 22.4062H266.219C266.484 21.8594 266.609 21.0469 266.609 19.9688V19.6875H266.312C265.5 21.5469 263.312 22.8281 260.141 22.8281ZM261.969 20.1406C264.797 20.1406 266.578 19.0781 266.578 17.3125C266.578 16.5938 266.141 15.9375 265.281 15.3594C264.422 14.7812 263.312 14.5 261.969 14.5C259.234 14.5 257.578 15.6406 257.578 17.3125C257.578 18.1406 257.969 18.8281 258.75 19.3438C259.531 19.875 260.609 20.1406 261.969 20.1406Z" fill="#3E1914"/>
<path d="M239.438 26.5625L238.062 25.4531C238.594 25.125 239.078 24.6875 239.5 24.1094C239.922 23.5312 240.156 22.9844 240.234 22.4688C240.188 22.4688 239.891 22.5312 239.75 22.5312C238.797 22.5312 238.031 21.75 238.031 20.7031C238.031 19.625 238.875 18.7656 239.984 18.7656C241.234 18.7656 242.219 19.7812 242.219 21.4219C242.219 23.4375 241.109 25.3594 239.438 26.5625Z" fill="#3E1914"/>
<path d="M221.031 28.8125H215.781C216.078 27.4688 216.234 25.6719 216.234 23.4375V11.7812C216.234 9.54688 216.078 7.75 215.781 6.40625H221C220.703 7.51562 220.547 8.53125 220.547 9.48438V10.4375H220.906C221.422 9.15625 222.25 8.09375 223.422 7.25C224.594 6.40625 225.984 5.98438 227.625 5.98438C229.984 5.98438 231.844 6.78125 233.234 8.35938C234.625 9.9375 235.312 11.9531 235.312 14.4062C235.391 19.1562 232.375 22.875 227.625 22.8281C225.984 22.8281 224.578 22.4219 223.406 21.6094C222.234 20.7969 221.391 19.7188 220.906 18.375H220.547V23.4375C220.547 25.4062 220.703 27.2031 221.031 28.8125ZM225.828 19.5C227.406 19.5 228.688 19.0156 229.703 18.0625C230.703 17.1094 231.203 15.8906 231.203 14.4062C231.203 12.9219 230.703 11.6875 229.703 10.7344C228.688 9.78125 227.406 9.3125 225.828 9.3125C224.312 9.3125 223.078 9.79688 222.094 10.7656C221.109 11.75 220.625 12.9531 220.625 14.4062C220.625 15.7031 221.125 16.875 222.125 17.9219C223.125 18.9688 224.359 19.5 225.828 19.5Z" fill="#3E1914"/>
<path d="M200.609 22.8281C198.531 22.8281 196.891 22.3125 195.703 21.2812C194.516 20.2656 193.922 18.9531 193.922 17.3438C193.922 15.7344 194.516 14.4219 195.719 13.4062C196.906 12.3906 198.547 11.875 200.641 11.875C202.156 11.875 203.453 12.1875 204.531 12.7969C205.594 13.4062 206.328 14.1562 206.719 15.0469H207.078V12.8125C207.078 10.0156 205.125 8.60938 201.734 8.60938C200.547 8.60938 199.375 8.76562 198.234 9.0625C197.094 9.375 196.297 9.70312 195.844 10.0469V7.07812C196.516 6.8125 197.516 6.5625 198.859 6.32812C200.203 6.09375 201.453 5.98438 202.594 5.98438C205.047 5.98438 207 6.375 208.641 7.26562C210.266 8.15625 211.203 9.8125 211.203 12.0625V17.2812C211.203 18.6875 211.234 19.7656 211.312 20.5C211.375 21.2344 211.5 21.875 211.688 22.4062H206.688C206.953 21.8594 207.078 21.0469 207.078 19.9688V19.6875H206.781C205.969 21.5469 203.781 22.8281 200.609 22.8281ZM202.438 20.1406C205.266 20.1406 207.047 19.0781 207.047 17.3125C207.047 16.5938 206.609 15.9375 205.75 15.3594C204.891 14.7812 203.781 14.5 202.438 14.5C199.703 14.5 198.047 15.6406 198.047 17.3125C198.047 18.1406 198.438 18.8281 199.219 19.3438C200 19.875 201.078 20.1406 202.438 20.1406Z" fill="#3E1914"/>
<path d="M176.438 22.4062H171.188C171.484 21.0625 171.641 19.5625 171.641 17.9219V11.2656C171.641 9.375 171.484 7.75 171.188 6.40625H176.5C176.141 7.17188 175.953 8.21875 175.953 9.54688V10.4688H176.281C177.359 7.59375 179.625 5.98438 182.875 5.98438C185.109 5.98438 186.859 6.59375 188.094 7.82812C189.328 9.0625 189.938 10.8281 189.938 13.0938V17.3438C189.938 19.375 190.094 21.0625 190.391 22.4062H185.141C185.469 20.9688 185.625 19.4062 185.625 17.7344V14.125C185.625 11.1406 183.938 9.48438 181.109 9.48438C179.656 9.48438 178.422 10 177.438 11.0312C176.453 12.0781 175.953 13.25 175.953 14.5625V17.7656C175.953 19.9688 176.109 21.5156 176.438 22.4062Z" fill="#3E1914"/>
<path d="M160.25 22.8281C159.047 22.8281 157.672 22.6719 156.125 22.375C154.578 22.0781 153.328 21.7031 152.391 21.2812V17.5781C153.375 18.125 154.609 18.5938 156.062 18.9844C157.516 19.375 158.828 19.5625 160 19.5625C162.609 19.5625 163.906 18.9375 163.906 17.6719C163.906 15.7188 160.281 15.8281 157.172 15.0938C154.844 14.5938 152.781 13.5156 152.797 10.8906C152.797 9.53125 153.453 8.35938 154.75 7.40625C156.047 6.45312 157.812 5.98438 160.062 5.98438C161.141 5.98438 162.266 6.10938 163.438 6.34375C164.609 6.57812 165.641 6.89062 166.531 7.26562V10.6562C165.828 10.2812 164.906 9.9375 163.766 9.64062C162.625 9.34375 161.469 9.1875 160.312 9.1875C158.047 9.1875 156.672 9.875 156.672 11.0156C156.672 12.7969 160.297 12.6562 163.438 13.4062C165.75 13.9375 167.812 15.0469 167.812 17.7031C167.812 19.2031 167.141 20.4375 165.781 21.3906C164.422 22.3438 162.578 22.8281 160.25 22.8281Z" fill="#3E1914"/>
<path d="M138.719 26.5625L137.344 25.4531C137.875 25.125 138.359 24.6875 138.781 24.1094C139.203 23.5312 139.438 22.9844 139.516 22.4688C139.469 22.4688 139.172 22.5312 139.031 22.5312C138.078 22.5312 137.312 21.75 137.312 20.7031C137.312 19.625 138.156 18.7656 139.266 18.7656C140.516 18.7656 141.5 19.7812 141.5 21.4219C141.5 23.4375 140.391 25.3594 138.719 26.5625Z" fill="#3E1914"/>
<path d="M120.312 28.8125H115.062C115.359 27.4688 115.516 25.6719 115.516 23.4375V11.7812C115.516 9.54688 115.359 7.75 115.062 6.40625H120.281C119.984 7.51562 119.828 8.53125 119.828 9.48438V10.4375H120.188C120.703 9.15625 121.531 8.09375 122.703 7.25C123.875 6.40625 125.266 5.98438 126.906 5.98438C129.266 5.98438 131.125 6.78125 132.516 8.35938C133.906 9.9375 134.594 11.9531 134.594 14.4062C134.672 19.1562 131.656 22.875 126.906 22.8281C125.266 22.8281 123.859 22.4219 122.688 21.6094C121.516 20.7969 120.672 19.7188 120.188 18.375H119.828V23.4375C119.828 25.4062 119.984 27.2031 120.312 28.8125ZM125.109 19.5C126.688 19.5 127.969 19.0156 128.984 18.0625C129.984 17.1094 130.484 15.8906 130.484 14.4062C130.484 12.9219 129.984 11.6875 128.984 10.7344C127.969 9.78125 126.688 9.3125 125.109 9.3125C123.594 9.3125 122.359 9.79688 121.375 10.7656C120.391 11.75 119.906 12.9531 119.906 14.4062C119.906 15.7031 120.406 16.875 121.406 17.9219C122.406 18.9688 123.641 19.5 125.109 19.5Z" fill="#3E1914"/>
<path d="M99.8906 22.8281C97.8125 22.8281 96.1719 22.3125 94.9844 21.2812C93.7969 20.2656 93.2031 18.9531 93.2031 17.3438C93.2031 15.7344 93.7969 14.4219 95 13.4062C96.1875 12.3906 97.8281 11.875 99.9219 11.875C101.438 11.875 102.734 12.1875 103.812 12.7969C104.875 13.4062 105.609 14.1562 106 15.0469H106.359V12.8125C106.359 10.0156 104.406 8.60938 101.016 8.60938C99.8281 8.60938 98.6562 8.76562 97.5156 9.0625C96.375 9.375 95.5781 9.70312 95.125 10.0469V7.07812C95.7969 6.8125 96.7969 6.5625 98.1406 6.32812C99.4844 6.09375 100.734 5.98438 101.875 5.98438C104.328 5.98438 106.281 6.375 107.922 7.26562C109.547 8.15625 110.484 9.8125 110.484 12.0625V17.2812C110.484 18.6875 110.516 19.7656 110.594 20.5C110.656 21.2344 110.781 21.875 110.969 22.4062H105.969C106.234 21.8594 106.359 21.0469 106.359 19.9688V19.6875H106.062C105.25 21.5469 103.062 22.8281 99.8906 22.8281ZM101.719 20.1406C104.547 20.1406 106.328 19.0781 106.328 17.3125C106.328 16.5938 105.891 15.9375 105.031 15.3594C104.172 14.7812 103.062 14.5 101.719 14.5C98.9844 14.5 97.3281 15.6406 97.3281 17.3125C97.3281 18.1406 97.7188 18.8281 98.5 19.3438C99.2812 19.875 100.359 20.1406 101.719 20.1406Z" fill="#3E1914"/>
<path d="M83.25 22.4062H78.0312C78.3125 21 78.4531 19.5156 78.4531 17.9531V11.2656C78.4531 9.46875 78.3125 7.84375 78.0312 6.40625H83.4688C83.2656 6.79688 83.1094 7.3125 82.9844 7.98438C82.8594 8.65625 82.7969 9.29688 82.7969 9.92188V11.3281H83.0938C83.8906 7.9375 86 5.98438 88.8906 5.98438C89.7969 5.98438 90.5938 6.125 91.2812 6.40625V10.375C90.6562 9.82812 89.4062 9.42188 88.2188 9.42188C86.7969 9.42188 85.5312 9.96875 84.4375 11.0781C83.3438 12.1875 82.7969 13.5 82.7969 15.0469V18.6875C82.7969 20.3438 82.9531 21.5781 83.25 22.4062Z" fill="#3E1914"/>
<path d="M57.5469 22.4062H51.8125C51.8438 21.1094 51.625 19.6562 51.1406 18.0156L48.8125 10.6875C48.2656 8.79688 47.75 7.35938 47.2344 6.40625H52.3281C52.375 7.42188 52.5469 8.5 52.875 9.64062L54.9531 16.4531C55.1094 16.9062 55.2969 17.5312 55.5312 18.3125H55.7812L59.8438 6.40625H63.1094L67.1719 18.25H67.4688C67.5312 18.0469 67.625 17.75 67.7344 17.3438C67.8438 16.9375 67.9375 16.625 68 16.4219L70.125 9.64062C70.4219 8.40625 70.5781 7.32812 70.625 6.40625H75.6875C75.0938 7.57812 74.5781 9.01562 74.125 10.6875L71.8125 17.9531C71.3281 19.75 71.1094 21.2344 71.1406 22.4062H65.4062L61.6094 11.5312H61.3125L57.5469 22.4062Z" fill="#3E1914"/>
<path d="M31 22.4062H25.75C26.0469 21.0625 26.2031 19.5625 26.2031 17.9219V11.2656C26.2031 9.375 26.0469 7.75 25.75 6.40625H31.0625C30.7031 7.17188 30.5156 8.21875 30.5156 9.54688V10.4688H30.8438C31.9219 7.59375 34.1875 5.98438 37.4375 5.98438C39.6719 5.98438 41.4219 6.59375 42.6562 7.82812C43.8906 9.0625 44.5 10.8281 44.5 13.0938V17.3438C44.5 19.375 44.6562 21.0625 44.9531 22.4062H39.7031C40.0312 20.9688 40.1875 19.4062 40.1875 17.7344V14.125C40.1875 11.1406 38.5 9.48438 35.6719 9.48438C34.2188 9.48438 32.9844 10 32 11.0312C31.0156 12.0781 30.5156 13.25 30.5156 14.5625V17.7656C30.5156 19.9688 30.6719 21.5156 31 22.4062Z" fill="#3E1914"/>
<path d="M10.625 22.8281C4.79688 22.8281 0.484375 19.6875 0.484375 13.4531V5.375C0.484375 3.07812 0.328125 1.29688 0 0H5.3125C5.04688 1.35938 4.90625 3.14062 4.90625 5.375V12.4219C4.90625 14.2812 5.42188 15.7656 6.46875 16.8438C7.5 17.9219 8.89062 18.4688 10.6562 18.4688C12.4219 18.4688 13.8438 17.9219 14.8906 16.8438C15.9375 15.7656 16.4531 14.2812 16.4531 12.4219V5.375C16.4531 3.14062 16.2969 1.34375 16 0H21.3125C21.0156 1.29688 20.875 3.07812 20.875 5.375V13.4531C20.875 16.4062 19.9531 18.7031 18.125 20.3438C16.2969 22 13.7969 22.8281 10.625 22.8281Z" fill="#3E1914"/>
</svg>
