<svg width="233" height="24" viewBox="0 0 233 24" fill="none" xmlns="http://www.w3.org/2000/svg">
<path d="M222.344 23.2344C220.875 23.2344 219.156 23.0312 217.203 22.625C215.234 22.2344 213.594 21.7344 212.266 21.1562L212.422 16.125C213.688 17.0781 215.219 17.7969 217.016 18.2969C218.812 18.8125 220.547 19.0625 222.219 19.0625C223.828 19.0625 225.125 18.8594 226.094 18.4375C227.047 18.0156 227.531 17.375 227.531 16.5156C227.531 14.1406 223.016 14.0156 219.016 13.0469C217.391 12.6719 215.875 12 214.75 11.0938C213.625 10.1875 212.906 8.71875 212.906 6.84375C212.906 4.85938 213.812 3.21875 215.609 1.92188C217.406 0.640625 219.672 0 222.406 0C223.906 0 225.375 0.140625 226.812 0.4375C228.25 0.734375 229.453 1.10938 230.438 1.53125V6.35938C229.547 5.78125 228.391 5.28125 226.969 4.875C225.547 4.48438 224.062 4.28125 222.531 4.28125C219.328 4.28125 217.375 5.14062 217.375 6.71875C217.359 9.25 221.906 9.3125 225.938 10.3281C227.562 10.7031 229.078 11.3594 230.219 12.2344C231.344 13.1094 232.062 14.5781 232.062 16.4062C232.062 18.4844 231.172 20.1406 229.375 21.375C227.578 22.6094 225.234 23.2344 222.344 23.2344Z" fill="#3E1914"/>
<path d="M192.469 22.8125H187.094C187.906 21.2969 188.75 19.5156 189.625 17.4375L194.562 5.78125C195.125 4.42188 195.516 2.625 195.734 0.40625H203.297C203.562 2.85938 203.922 4.64062 204.406 5.78125L209.375 17.4375C210.375 19.7656 211.203 21.5625 211.875 22.8125H206.531C206.453 22.0781 206.031 20.8281 205.281 19.0625L204.703 17.7188H194.297L193.719 19.0625C192.938 20.7969 192.516 22.0469 192.469 22.8125ZM198.203 8.03125L195.547 14.1406H203.453L200.766 8C200.484 7.25 200.109 6.09375 199.641 4.51562H199.359C198.844 6.1875 198.469 7.35938 198.203 8.03125Z" fill="#3E1914"/>
<path d="M164 22.8125H158.688C158.984 21.4688 159.141 19.6719 159.141 17.4375V5.78125C159.141 3.54688 158.984 1.75 158.688 0.40625H164.734L169.672 11.5781C170.75 14.1094 171.5 15.9375 171.906 17.0469H172.172C172.438 16.25 172.703 15.5469 173.031 14.7344C173.188 14.3438 173.328 14.0156 173.438 13.75C173.547 13.5 173.703 13.125 173.922 12.625C174.125 12.1406 174.281 11.7812 174.375 11.5469L179.328 0.40625H185.281C184.969 1.65625 184.812 3.45312 184.812 5.78125V17.4375C184.812 19.7656 184.969 21.5625 185.281 22.8125H179.969C180.266 21.2969 180.422 19.5156 180.422 17.4375V6.5H180.141L172.734 22.8125H171.172L163.781 6.5H163.562V17.4375C163.562 19.7344 163.703 21.5156 164 22.8125Z" fill="#3E1914"/>
<path d="M138.094 22.8125H132.328C133.281 21.7031 134.609 19.9062 136.297 17.4375L141 11.3906L136.625 5.78125C134.953 3.32812 133.641 1.53125 132.656 0.40625H138.406C138.891 1.45312 139.594 2.6875 140.516 4.09375L144.172 8.73438H144.453L148.141 4.0625C148.906 2.95312 149.609 1.73438 150.25 0.40625H156.047C155.062 1.48438 153.734 3.28125 152.047 5.78125L147.656 11.3906L152.359 17.4375C154.047 19.9062 155.375 21.7031 156.328 22.8125H150.547C150.141 21.8594 149.406 20.5469 148.328 18.875L144.453 14.0156H144.203L140.359 18.875C139.391 20.3125 138.641 21.625 138.094 22.8125Z" fill="#3E1914"/>
<path d="M114.641 22.8125H109.328C109.625 21.3906 109.781 19.9219 109.781 18.4219V14.3281L103.891 5.78125C102.391 3.42188 101.109 1.625 100.047 0.40625H105.812C106.578 2.09375 107.25 3.42188 107.828 4.375L111.828 10.0156H112.109L116.109 4.34375C116.719 3.375 117.406 2.0625 118.156 0.40625H123.891C122.812 1.67188 121.547 3.45312 120.078 5.78125L114.188 14.3281V18.4531C114.188 19.9375 114.344 21.3906 114.641 22.8125Z" fill="#3E1914"/>
<path d="M97.5781 23.2969C93.6094 23.2969 93.0312 20.3281 91.9219 17.7031C91.4844 16.6562 90.875 15.6719 90.0625 14.9219C89.2344 14.1875 87.8906 13.7188 86.1562 13.7188C84.5469 13.7188 83.5781 13.7969 83.25 13.9531V17.4375C83.25 19.6875 83.3906 21.4844 83.6875 22.8125H78.4062C78.6875 21.375 78.8281 19.5781 78.8281 17.4375V5.78125C78.8281 3.60938 78.6875 1.8125 78.4062 0.40625H90.2812C92.5469 0.40625 94.4062 0.921875 95.875 1.96875C97.3281 3.01562 98.0625 4.39062 98.0625 6.10938C98.0625 7.84375 97.3438 9.28125 95.9062 10.4219C94.4688 11.5781 92.6562 12.1562 90.4844 12.1562H89.875V12.3438H89.9688C91.4688 12.3438 92.7031 12.8125 93.4688 13.5C94.2188 14.2031 94.8281 15.0781 95.3125 15.8906C96.0312 17.125 96.6562 18.2031 97.8438 18.2031C99.1719 18.2031 99.75 17.5469 100.297 16.2812L100.625 21.9219C100 22.7344 98.8125 23.2969 97.5781 23.2969ZM83.25 4.64062V10.3281H89.1719C91.875 10.3281 93.5781 9.25 93.5781 7.45312C93.5781 6.67188 93.2031 6 92.4531 5.45312C91.6875 4.90625 90.7344 4.64062 89.5781 4.64062H83.25Z" fill="#3E1914"/>
<path d="M73.1406 23.2969C69.1719 23.2969 68.5938 20.3281 67.4844 17.7031C67.0469 16.6562 66.4375 15.6719 65.625 14.9219C64.7969 14.1875 63.4531 13.7188 61.7188 13.7188C60.1094 13.7188 59.1406 13.7969 58.8125 13.9531V17.4375C58.8125 19.6875 58.9531 21.4844 59.25 22.8125H53.9688C54.25 21.375 54.3906 19.5781 54.3906 17.4375V5.78125C54.3906 3.60938 54.25 1.8125 53.9688 0.40625H65.8438C68.1094 0.40625 69.9688 0.921875 71.4375 1.96875C72.8906 3.01562 73.625 4.39062 73.625 6.10938C73.625 7.84375 72.9062 9.28125 71.4688 10.4219C70.0312 11.5781 68.2188 12.1562 66.0469 12.1562H65.4375V12.3438H65.5312C67.0312 12.3438 68.2656 12.8125 69.0312 13.5C69.7812 14.2031 70.3906 15.0781 70.875 15.8906C71.5938 17.125 72.2188 18.2031 73.4062 18.2031C74.7344 18.2031 75.3125 17.5469 75.8594 16.2812L76.1875 21.9219C75.5625 22.7344 74.375 23.2969 73.1406 23.2969ZM58.8125 4.64062V10.3281H64.7344C67.4375 10.3281 69.1406 9.25 69.1406 7.45312C69.1406 6.67188 68.7656 6 68.0156 5.45312C67.25 4.90625 66.2969 4.64062 65.1406 4.64062H58.8125Z" fill="#3E1914"/>
<path d="M49.4375 22.8125H31.0625C31.3906 21.375 31.5469 19.5781 31.5469 17.4375V5.78125C31.5469 3.64062 31.3906 1.84375 31.0625 0.40625H48.6094L49.3125 5.28125C48.6875 4.92188 47.3438 4.73438 45.2812 4.73438H35.9375V9.71875H43.9688C45.3125 9.71875 46.4062 9.67188 47.2656 9.5625V13.8906C46.4375 13.75 45.3281 13.6875 43.9688 13.6875H35.9375V18.5H45.2188C47.6719 18.5 49.3125 18.2812 50.1406 17.8281L49.4375 22.8125Z" fill="#3E1914"/>
<path d="M5.3125 22.8125H0C0.296875 21.4688 0.453125 19.6719 0.453125 17.4375V5.78125C0.453125 3.54688 0.296875 1.75 0 0.40625H6.04688L10.9844 11.5781C12.0625 14.1094 12.8125 15.9375 13.2188 17.0469H13.4844C13.75 16.25 14.0156 15.5469 14.3438 14.7344C14.5 14.3438 14.6406 14.0156 14.75 13.75C14.8594 13.5 15.0156 13.125 15.2344 12.625C15.4375 12.1406 15.5938 11.7812 15.6875 11.5469L20.6406 0.40625H26.5938C26.2812 1.65625 26.125 3.45312 26.125 5.78125V17.4375C26.125 19.7656 26.2812 21.5625 26.5938 22.8125H21.2812C21.5781 21.2969 21.7344 19.5156 21.7344 17.4375V6.5H21.4531L14.0469 22.8125H12.4844L5.09375 6.5H4.875V17.4375C4.875 19.7344 5.01562 21.5156 5.3125 22.8125Z" fill="#3E1914"/>
</svg>
