<svg width="258" height="376" viewBox="0 0 258 376" fill="none" xmlns="http://www.w3.org/2000/svg">
<path d="M92.004 325.197C43.0427 435.652 318.182 339.113 209.929 283.815C318.182 339.113 214.422 49.0155 165.46 159.499C214.422 49.0438 -60.7176 145.583 47.5353 200.881C-60.7176 145.583 43.0427 435.681 92.004 325.197Z" fill="#DB94B8"/>
<path d="M171.813 315.985C182.781 315.985 191.672 304.538 191.672 290.419C191.672 276.299 182.781 264.853 171.813 264.853C160.845 264.853 151.953 276.299 151.953 290.419C151.953 304.538 160.845 315.985 171.813 315.985Z" fill="white"/>
<path d="M162.398 289.37C165.859 289.37 168.665 285.906 168.665 281.632C168.665 277.359 165.859 273.895 162.398 273.895C158.937 273.895 156.131 277.359 156.131 281.632C156.131 285.906 158.937 289.37 162.398 289.37Z" fill="#211815"/>
<path d="M217.283 315.985C228.251 315.985 237.142 304.538 237.142 290.419C237.142 276.299 228.251 264.853 217.283 264.853C206.315 264.853 197.424 276.299 197.424 290.419C197.424 304.538 206.315 315.985 217.283 315.985Z" fill="white"/>
<path d="M207.926 289.37C211.387 289.37 214.193 285.906 214.193 281.632C214.193 277.359 211.387 273.895 207.926 273.895C204.465 273.895 201.659 277.359 201.659 281.632C201.659 285.906 204.465 289.37 207.926 289.37Z" fill="#211815"/>
<path d="M196.639 5.52H205.711V10.176H196.639V5.52ZM184.111 14.304H206.959V19.344H184.111V14.304ZM193.951 0H198.991V17.136H193.951V0ZM187.039 4.224H191.551V17.328H187.039V4.224ZM202.063 22.224L207.151 23.328C206.287 27.232 205.055 30.592 203.455 33.408C201.855 36.192 199.791 38.56 197.263 40.512C194.767 42.432 191.711 44.048 188.095 45.36C187.839 44.624 187.423 43.824 186.847 42.96C186.271 42.096 185.679 41.376 185.071 40.8C188.303 39.84 191.039 38.56 193.279 36.96C195.519 35.36 197.359 33.344 198.799 30.912C200.239 28.48 201.327 25.584 202.063 22.224ZM187.999 21.264L192.799 22.32C192.319 24.336 191.663 26.32 190.831 28.272C190.031 30.192 189.135 31.824 188.143 33.168C187.855 32.912 187.455 32.624 186.943 32.304C186.431 31.952 185.903 31.616 185.359 31.296C184.847 30.976 184.399 30.72 184.015 30.528C184.911 29.376 185.695 27.968 186.367 26.304C187.071 24.64 187.615 22.96 187.999 21.264ZM207.007 2.016H228.943V6.816H207.007V2.016ZM213.727 21.408V24.384H222.703V21.408H213.727ZM213.727 28.368V31.44H222.703V28.368H213.727ZM213.727 14.448V17.376H222.703V14.448H213.727ZM208.687 10.176H227.983V35.616H208.687V10.176ZM215.551 4.656L221.023 5.472C220.607 6.848 220.175 8.192 219.727 9.504C219.311 10.784 218.943 11.888 218.623 12.816L214.447 11.856C214.639 10.8 214.847 9.616 215.071 8.304C215.295 6.96 215.455 5.744 215.551 4.656ZM213.727 35.52L217.279 39.168C215.807 40.288 214.111 41.408 212.191 42.528C210.303 43.68 208.527 44.64 206.863 45.408C206.607 44.8 206.255 44.08 205.807 43.248C205.359 42.448 204.927 41.76 204.511 41.184C205.503 40.704 206.575 40.16 207.727 39.552C208.879 38.912 209.983 38.24 211.039 37.536C212.127 36.8 213.023 36.128 213.727 35.52ZM219.055 38.832L222.175 35.424C222.975 35.904 223.855 36.48 224.815 37.152C225.775 37.824 226.703 38.512 227.599 39.216C228.527 39.888 229.279 40.512 229.855 41.088L226.543 44.928C226.031 44.352 225.343 43.696 224.479 42.96C223.615 42.256 222.703 41.536 221.743 40.8C220.783 40.064 219.887 39.408 219.055 38.832ZM193.471 18.144H198.703V33.888H193.471V18.144Z" fill="#DCDD9B"/>
<path d="M162.633 48.6292C160.57 48.6292 157.828 47.8324 156.07 47.0589C155.156 46.6605 154.125 46.2855 152.93 45.9574C151.734 45.6292 150.609 45.4652 149.578 45.4652C147.258 45.4652 145.477 46.4261 144.281 48.3246L141.422 45.1136C142.641 43.2386 144.281 41.9261 146.344 41.1761V40.6136C142.828 39.5355 140.016 37.5902 137.93 34.7542C135.844 31.9183 134.789 28.3558 134.789 24.0433C134.789 18.4183 136.805 13.7777 140.109 10.9417C143.391 8.12924 147.82 6.58237 152.883 6.58237C158.883 6.58237 164.086 8.71518 167.414 12.8636C169.594 15.6058 170.883 19.5199 170.883 24.0433C170.883 29.2699 169.195 33.5589 166.383 36.4183C163.547 39.2777 159.727 40.9886 155.227 41.4339V41.9964C155.344 42.0433 156.609 42.5121 156.797 42.5824C156.938 42.6292 157.195 42.723 157.57 42.8636C158.297 43.1214 158.484 43.1449 159.141 43.3558C159.797 43.5433 160.195 43.5902 160.781 43.7074C161.367 43.8011 161.93 43.8246 162.492 43.8246C164.344 43.8246 165.797 43.2386 166.852 42.0902L168.727 46.4261C166.898 47.9027 164.859 48.6292 162.633 48.6292ZM152.883 32.973C154.805 32.973 156.398 32.1761 157.641 30.6058C158.883 29.0355 159.516 26.8324 159.516 24.0433C159.516 21.2542 158.883 19.0746 157.641 17.5042C156.398 15.9339 154.805 15.1605 152.883 15.1605C150.938 15.1605 149.32 15.9339 148.078 17.5042C146.836 19.0746 146.203 21.2542 146.203 24.0433C146.203 26.8324 146.836 29.0355 148.102 30.6058C149.344 32.1761 150.938 32.973 152.883 32.973Z" fill="#DCDD9B"/>
<path d="M89.112 13.824H95.16V36.144C95.16 37.328 95.32 38.08 95.64 38.4C95.96 38.688 96.696 38.832 97.848 38.832C98.136 38.832 98.584 38.832 99.192 38.832C99.832 38.832 100.504 38.832 101.208 38.832C101.944 38.832 102.632 38.832 103.272 38.832C103.912 38.832 104.392 38.832 104.712 38.832C105.544 38.832 106.168 38.608 106.584 38.16C107 37.68 107.304 36.8 107.496 35.52C107.688 34.208 107.832 32.288 107.928 29.76C108.376 30.08 108.92 30.416 109.56 30.768C110.2 31.088 110.856 31.376 111.528 31.632C112.232 31.888 112.84 32.08 113.352 32.208C113.128 35.248 112.744 37.648 112.2 39.408C111.688 41.136 110.888 42.368 109.8 43.104C108.712 43.84 107.176 44.208 105.192 44.208C104.904 44.208 104.488 44.208 103.944 44.208C103.4 44.208 102.792 44.208 102.12 44.208C101.448 44.208 100.776 44.208 100.104 44.208C99.464 44.208 98.872 44.208 98.328 44.208C97.784 44.208 97.384 44.208 97.128 44.208C95.048 44.208 93.416 43.952 92.232 43.44C91.08 42.96 90.264 42.128 89.784 40.944C89.336 39.792 89.112 38.192 89.112 36.144V13.824ZM80.424 16.608L86.088 17.712C85.864 19.792 85.576 22.048 85.224 24.48C84.904 26.88 84.52 29.248 84.072 31.584C83.624 33.888 83.128 35.952 82.584 37.776L76.728 35.376C77.304 33.68 77.832 31.792 78.312 29.712C78.824 27.632 79.256 25.472 79.608 23.232C79.992 20.96 80.264 18.752 80.424 16.608ZM110.376 17.28L115.752 15.072C116.648 16.96 117.512 18.992 118.344 21.168C119.176 23.312 119.912 25.424 120.552 27.504C121.192 29.552 121.672 31.408 121.992 33.072L116.136 35.472C115.88 33.84 115.448 31.968 114.84 29.856C114.264 27.744 113.592 25.6 112.824 23.424C112.056 21.216 111.24 19.168 110.376 17.28ZM90.792 4.70398L94.68 0.815979C96.152 1.71198 97.736 2.75198 99.432 3.93598C101.128 5.11998 102.744 6.31998 104.28 7.53598C105.848 8.71998 107.112 9.80798 108.072 10.8L103.848 15.312C102.952 14.32 101.768 13.2 100.296 11.952C98.824 10.672 97.24 9.39198 95.544 8.11198C93.88 6.83198 92.296 5.69598 90.792 4.70398Z" fill="#DCDD9B"/>
<path d="M45.384 13.2H71.88V17.712H45.384V13.2ZM43.992 19.968H72.936V24.624H43.992V19.968ZM50.232 26.544H66.408V30.672H50.232V26.544ZM46.584 8.016L50.904 6.81599C51.32 7.67999 51.72 8.65599 52.104 9.744C52.52 10.8 52.84 11.68 53.064 12.384L48.456 13.872C48.296 13.104 48.024 12.176 47.64 11.088C47.288 9.96799 46.936 8.94399 46.584 8.016ZM54.888 7.19999L59.4 6.38399C59.656 7.34399 59.912 8.38399 60.168 9.50399C60.424 10.592 60.6 11.504 60.696 12.24L55.944 13.296C55.88 12.528 55.736 11.568 55.512 10.416C55.32 9.232 55.112 8.16 54.888 7.19999ZM68.76 0.287994L71.976 4.51199C70.152 4.89599 68.152 5.23199 65.976 5.51999C63.832 5.77599 61.608 5.99999 59.304 6.19199C57 6.38399 54.696 6.54399 52.392 6.672C50.088 6.76799 47.848 6.83199 45.672 6.864C45.64 6.25599 45.496 5.53599 45.24 4.70399C44.984 3.87199 44.712 3.16799 44.424 2.59199C46.536 2.49599 48.696 2.39999 50.904 2.30399C53.144 2.17599 55.336 2.01599 57.48 1.82399C59.656 1.63199 61.704 1.40799 63.624 1.15199C65.544 0.895994 67.256 0.607994 68.76 0.287994ZM54.984 29.712C56.072 31.6 57.528 33.264 59.352 34.704C61.208 36.144 63.368 37.36 65.832 38.352C68.328 39.312 71.08 40.032 74.088 40.512C73.48 41.056 72.856 41.792 72.216 42.72C71.576 43.68 71.064 44.512 70.68 45.216C65.912 44.224 61.832 42.544 58.44 40.176C55.048 37.808 52.344 34.784 50.328 31.104L54.984 29.712ZM65.976 5.51999L71.304 7.05599C70.408 8.49599 69.48 9.95199 68.52 11.424C67.592 12.896 66.728 14.128 65.928 15.12L61.944 13.728C62.424 12.96 62.904 12.096 63.384 11.136C63.896 10.176 64.376 9.19999 64.824 8.208C65.304 7.21599 65.688 6.31999 65.976 5.51999ZM65.256 26.544H66.312L67.272 26.4L70.392 27.648C69.464 31.072 68.072 33.952 66.216 36.288C64.392 38.624 62.232 40.496 59.736 41.904C57.24 43.344 54.456 44.464 51.384 45.264C51.192 44.848 50.92 44.368 50.568 43.824C50.216 43.28 49.832 42.736 49.416 42.192C49 41.68 48.632 41.28 48.312 40.992C51.192 40.384 53.768 39.52 56.04 38.4C58.312 37.28 60.232 35.824 61.8 34.032C63.4 32.208 64.552 29.952 65.256 27.264V26.544ZM50.712 16.08H56.232C56.104 18.096 55.896 20.176 55.608 22.32C55.352 24.464 54.968 26.592 54.456 28.704C53.944 30.816 53.224 32.864 52.296 34.848C51.4 36.832 50.232 38.688 48.792 40.416C47.384 42.144 45.64 43.68 43.56 45.024C43.176 44.352 42.632 43.616 41.928 42.816C41.224 42.048 40.52 41.408 39.816 40.896C41.704 39.744 43.272 38.416 44.52 36.912C45.8 35.408 46.824 33.808 47.592 32.112C48.36 30.384 48.936 28.608 49.32 26.784C49.736 24.96 50.04 23.136 50.232 21.312C50.456 19.488 50.616 17.744 50.712 16.08ZM32.904 3.83999H43.752V36.192H32.904V31.152H38.664V8.88H32.904V3.83999ZM33.096 17.376H41.208V22.32H33.096V17.376ZM30.072 3.83999H35.064V39.936H30.072V3.83999Z" fill="#DCDD9B"/>
</svg>
