<svg width="258" height="374" viewBox="0 0 258 374" fill="none" xmlns="http://www.w3.org/2000/svg">
<path d="M92.004 323.053C43.0427 433.508 318.182 336.969 209.929 281.671C318.182 336.969 214.422 46.8715 165.46 157.355C214.422 46.8998 -60.7176 143.439 47.5353 198.737C-60.7176 143.439 43.0427 433.537 92.004 323.053Z" fill="#DB94B8"/>
<path d="M171.813 313.841C182.781 313.841 191.672 302.395 191.672 288.275C191.672 274.155 182.781 262.709 171.813 262.709C160.845 262.709 151.953 274.155 151.953 288.275C151.953 302.395 160.845 313.841 171.813 313.841Z" fill="white"/>
<path d="M162.398 287.226C165.859 287.226 168.665 283.762 168.665 279.488C168.665 275.215 165.859 271.751 162.398 271.751C158.937 271.751 156.131 275.215 156.131 279.488C156.131 283.762 158.937 287.226 162.398 287.226Z" fill="#211815"/>
<path d="M217.283 313.841C228.251 313.841 237.142 302.395 237.142 288.275C237.142 274.155 228.251 262.709 217.283 262.709C206.315 262.709 197.424 274.155 197.424 288.275C197.424 302.395 206.315 313.841 217.283 313.841Z" fill="white"/>
<path d="M207.926 287.226C211.387 287.226 214.193 283.762 214.193 279.488C214.193 275.215 211.387 271.751 207.926 271.751C204.465 271.751 201.659 275.215 201.659 279.488C201.659 283.762 204.465 287.226 207.926 287.226Z" fill="#211815"/>
<path d="M202.642 22.08L207.682 23.184C205.09 34.8 199.522 41.232 188.722 45.072C188.194 43.584 186.946 41.712 185.746 40.56C190.738 39.072 194.53 36.912 197.266 33.648H194.098V19.248H184.834V14.256H187.714V4.176H192.178V14.256H194.578V0H199.57V5.424H206.29V10.128H199.57V14.256H207.49V19.248H199.282V30.912C200.818 28.464 201.874 25.584 202.642 22.08ZM188.626 21.168L193.426 22.176C192.466 26.208 190.738 30.288 188.77 32.976C187.858 32.256 185.842 30.96 184.69 30.336C186.514 28.032 187.858 24.528 188.626 21.168ZM214.21 28.176V31.248H223.138V28.176H214.21ZM214.21 21.216V24.288H223.138V21.216H214.21ZM214.21 14.304V17.28H223.138V14.304H214.21ZM228.418 35.424H222.994C225.394 36.96 228.658 39.216 230.29 40.848L226.978 44.688C225.442 42.912 222.034 40.368 219.538 38.592L222.37 35.424H214.402L217.762 38.928C214.834 41.184 210.706 43.584 207.394 45.12C206.866 43.92 205.858 42.096 205.09 40.944C207.922 39.648 211.81 37.344 214.066 35.424H209.17V10.128H215.314C215.506 9.024 215.698 7.872 215.842 6.768H207.538V1.968H229.378V6.768H221.026C220.69 7.968 220.354 9.072 219.97 10.128H228.418V35.424Z" fill="#DCDD9B"/>
<path d="M157.422 40.704H136.305C136.914 38.2196 137.219 34.8681 137.219 30.6259V17.1728C137.219 12.9306 136.914 9.57901 136.305 7.09463H156.367C162.719 7.00088 167.711 10.0478 167.688 15.1571C167.688 17.4774 166.727 19.3524 164.828 20.7821C162.906 22.2118 160.492 22.9384 157.609 22.9384H157.516V23.4306H158.102C161.383 23.4306 164.055 24.1806 166.117 25.704C168.156 27.2274 169.188 29.3134 169.188 31.9618C169.211 37.4931 163.961 40.7978 157.422 40.704ZM146.008 14.2196V20.9228H153.766C156.789 20.9228 158.922 19.6571 158.922 17.5712C158.922 16.5399 158.43 15.7196 157.469 15.1103C156.508 14.5243 155.266 14.2196 153.766 14.2196H146.008ZM146.008 25.5399V33.3212H154.727C156.391 33.3212 157.75 32.9696 158.805 32.2665C159.836 31.5868 160.352 30.6493 160.352 29.4774C160.352 28.3056 159.812 27.3446 158.758 26.6181C157.703 25.8915 156.344 25.5399 154.727 25.5399H146.008Z" fill="#DCDD9B"/>
<path d="M88.8399 4.70401L92.7279 0.81601C97.0479 3.55201 103.144 7.77601 106.024 10.752L101.8 15.216C99.2079 12.288 93.3039 7.72801 88.8399 4.70401ZM108.328 17.184L113.656 15.024C116.344 20.736 118.84 27.936 119.848 32.88L114.04 35.28C113.32 30.384 110.824 22.8 108.328 17.184ZM78.5679 16.56L84.1359 17.616C83.4639 23.808 82.2639 32.112 80.6319 37.536L74.8719 35.232C76.5519 30.144 77.9439 22.944 78.5679 16.56ZM87.2079 13.728H93.16V36C93.16 38.256 93.5439 38.64 95.8479 38.64H102.712C105.112 38.64 105.544 37.104 105.88 29.616C107.224 30.624 109.672 31.632 111.256 32.016C110.584 41.136 109.048 43.968 103.144 43.968H95.1759C88.9359 43.968 87.2079 42.048 87.2079 36V13.728Z" fill="#DCDD9B"/>
<path d="M36.76 8.78402H33.112V17.28H36.76V8.78402ZM33.112 31.008H36.76V22.176H33.112V31.008ZM41.8 35.952H33.112V39.696H28.168V3.79202H41.8V35.952ZM61.912 30.48H53.56C54.76 32.304 56.344 33.888 58.36 35.28C59.8 33.936 61.048 32.352 61.912 30.48ZM65.176 26.208L68.248 27.456C67.048 31.728 65.224 35.04 62.728 37.68C65.464 38.88 68.536 39.744 71.944 40.272C70.744 41.376 69.304 43.488 68.584 44.928C64.792 44.112 61.384 42.864 58.456 41.232C55.816 42.864 52.696 44.112 49.384 44.976C48.808 43.776 47.272 41.664 46.312 40.752C49.192 40.176 51.832 39.312 54.136 38.112C52.744 37.008 51.544 35.664 50.488 34.224C48.616 38.256 45.88 42 41.608 44.784C40.84 43.44 39.256 41.616 37.912 40.656C44.248 36.768 46.744 30.624 47.8 24.48H42.04V19.872H48.424C48.472 19.104 48.52 18.336 48.616 17.616H43.432V13.152H46.36C45.928 11.664 45.208 9.55202 44.584 7.96802L48.904 6.76802C49.672 8.54402 50.632 10.848 51.064 12.288L48.376 13.152H53.896C53.752 11.568 53.32 9.07202 52.888 7.10402L57.304 6.33602C57.832 8.20802 58.408 10.656 58.648 12.144L54.136 13.152H60.184C61.528 10.896 63.064 7.77602 63.928 5.42402C57.544 6.24002 50.152 6.67202 43.72 6.76802C43.576 5.52002 43 3.69602 42.472 2.54402C50.92 2.25602 60.712 1.53602 66.616 0.240021L69.88 4.51202C68.056 4.84802 66.04 5.13602 63.928 5.42402L69.208 6.96002C67.864 9.07202 66.472 11.28 65.272 13.152H69.784V17.616H54.04C53.992 18.384 53.944 19.104 53.848 19.872H70.792V24.48H53.272C53.128 25.104 53.032 25.728 52.888 26.352H64.264L65.176 26.208Z" fill="#DCDD9B"/>
</svg>
