<svg width="256" height="376" viewBox="0 0 256 376" fill="none" xmlns="http://www.w3.org/2000/svg">
<path d="M164.235 325.341C212.833 435.796 -60.2678 339.257 47.1832 283.959C-60.2678 339.257 42.7238 49.1595 91.3225 159.643C42.7238 49.1878 315.825 145.727 208.374 201.025C315.825 145.727 212.833 435.825 164.235 325.341Z" fill="#3CA65F"/>
<path d="M106.66 252.752C117.547 252.752 126.373 241.306 126.373 227.186C126.373 213.066 117.547 201.62 106.66 201.62C95.7737 201.62 86.9482 213.066 86.9482 227.186C86.9482 241.306 95.7737 252.752 106.66 252.752Z" fill="white"/>
<path d="M106.717 233.081C110.153 233.081 112.938 229.617 112.938 225.344C112.938 221.07 110.153 217.606 106.717 217.606C103.282 217.606 100.497 221.07 100.497 225.344C100.497 229.617 103.282 233.081 106.717 233.081Z" fill="#211815"/>
<path d="M151.822 252.752C162.709 252.752 171.534 241.306 171.534 227.186C171.534 213.066 162.709 201.62 151.822 201.62C140.935 201.62 132.11 213.066 132.11 227.186C132.11 241.306 140.935 252.752 151.822 252.752Z" fill="white"/>
<path d="M152.475 233.081C155.911 233.081 158.696 229.617 158.696 225.344C158.696 221.07 155.911 217.606 152.475 217.606C149.04 217.606 146.255 221.07 146.255 225.344C146.255 229.617 149.04 233.081 152.475 233.081Z" fill="#211815"/>
<path d="M193.67 5.66401H202.742V10.32H193.67V5.66401ZM181.142 14.448H203.99V19.488H181.142V14.448ZM190.982 0.144012H196.022V17.28H190.982V0.144012ZM184.07 4.36801H188.582V17.472H184.07V4.36801ZM199.094 22.368L204.182 23.472C203.318 27.376 202.086 30.736 200.486 33.552C198.886 36.336 196.822 38.704 194.294 40.656C191.798 42.576 188.742 44.192 185.126 45.504C184.87 44.768 184.454 43.968 183.878 43.104C183.302 42.24 182.71 41.52 182.102 40.944C185.334 39.984 188.07 38.704 190.31 37.104C192.55 35.504 194.39 33.488 195.83 31.056C197.27 28.624 198.358 25.728 199.094 22.368ZM185.03 21.408L189.83 22.464C189.35 24.48 188.694 26.464 187.862 28.416C187.062 30.336 186.166 31.968 185.174 33.312C184.886 33.056 184.486 32.768 183.974 32.448C183.462 32.096 182.934 31.76 182.39 31.44C181.878 31.12 181.43 30.864 181.046 30.672C181.942 29.52 182.726 28.112 183.398 26.448C184.102 24.784 184.646 23.104 185.03 21.408ZM204.038 2.16001H225.974V6.96001H204.038V2.16001ZM210.758 21.552V24.528H219.734V21.552H210.758ZM210.758 28.512V31.584H219.734V28.512H210.758ZM210.758 14.592V17.52H219.734V14.592H210.758ZM205.718 10.32H225.014V35.76H205.718V10.32ZM212.582 4.80001L218.054 5.61601C217.638 6.99201 217.206 8.33601 216.758 9.64801C216.342 10.928 215.974 12.032 215.654 12.96L211.478 12C211.67 10.944 211.878 9.76001 212.102 8.44801C212.326 7.10401 212.486 5.88801 212.582 4.80001ZM210.758 35.664L214.31 39.312C212.838 40.432 211.142 41.552 209.222 42.672C207.334 43.824 205.558 44.784 203.894 45.552C203.638 44.944 203.286 44.224 202.838 43.392C202.39 42.592 201.958 41.904 201.542 41.328C202.534 40.848 203.606 40.304 204.758 39.696C205.91 39.056 207.014 38.384 208.07 37.68C209.158 36.944 210.054 36.272 210.758 35.664ZM216.086 38.976L219.206 35.568C220.006 36.048 220.886 36.624 221.846 37.296C222.806 37.968 223.734 38.656 224.63 39.36C225.558 40.032 226.31 40.656 226.886 41.232L223.574 45.072C223.062 44.496 222.374 43.84 221.51 43.104C220.646 42.4 219.734 41.68 218.774 40.944C217.814 40.208 216.918 39.552 216.086 38.976ZM190.502 18.288H195.734V34.032H190.502V18.288Z" fill="#DCDD9B"/>
<path d="M153.617 41.6717C147.734 41.742 141.805 39.6561 137.961 35.5779C135.406 32.8826 133.789 28.8748 133.789 24.1873C133.789 19.5233 135.43 15.5389 137.984 12.8436C139.25 11.5076 140.75 10.3592 142.461 9.42169C145.883 7.54669 149.703 6.72638 153.664 6.72638C156.031 6.72638 158.281 6.91388 160.438 7.28888C162.594 7.68732 164.375 8.1795 165.758 8.78888L165.664 20.4373C164.562 19.5936 163.109 18.8904 161.305 18.3045C159.477 17.742 157.625 17.4608 155.773 17.4608C152.633 17.4608 150.055 18.0701 148.062 19.2654C146.07 20.4842 145.062 22.1483 145.062 24.2811C145.062 28.9686 150.195 30.9139 155.914 30.9139C158.258 30.9139 160.484 30.5389 162.57 29.8123C164.656 29.0858 166.391 28.1248 167.773 26.9295V39.5154C165.547 40.2186 163.344 40.7576 161.164 41.1326C158.961 41.4842 156.453 41.6717 153.617 41.6717Z" fill="#DCDD9B"/>
<path d="M81.1519 0.192017H86.9119V45.264H81.1519V0.192017ZM77.1199 9.45602L81.1999 10.032C81.1359 11.408 81.0079 12.912 80.8159 14.544C80.6239 16.176 80.3679 17.776 80.0479 19.344C79.7599 20.912 79.4239 22.32 79.0399 23.568L74.7679 22.032C75.1519 20.976 75.4879 19.712 75.7759 18.24C76.0959 16.768 76.3679 15.264 76.5919 13.728C76.8479 12.192 77.0239 10.768 77.1199 9.45602ZM85.8079 9.79202L89.6959 8.16002C90.3679 9.37602 91.0079 10.72 91.6159 12.192C92.2239 13.664 92.6559 14.912 92.9119 15.936L88.7359 17.856C88.6079 17.152 88.3839 16.352 88.0639 15.456C87.7439 14.528 87.3919 13.568 87.0079 12.576C86.6239 11.584 86.2239 10.656 85.8079 9.79202ZM94.8799 2.40002L100.496 3.26402C100.176 5.63202 99.7439 7.98402 99.1999 10.32C98.6879 12.624 98.0799 14.784 97.3759 16.8C96.7039 18.784 95.9519 20.528 95.1199 22.032C94.7679 21.776 94.2719 21.472 93.6319 21.12C92.9919 20.768 92.3359 20.448 91.6639 20.16C91.0239 19.84 90.4639 19.584 89.9839 19.392C90.8479 18.048 91.5999 16.464 92.2399 14.64C92.8799 12.816 93.4079 10.864 93.8239 8.78402C94.2719 6.67202 94.6239 4.54402 94.8799 2.40002ZM96.6079 9.93602H118.784V15.36H94.9279L96.6079 9.93602ZM103.184 0.480016H108.944V41.424H103.184V0.480016ZM93.8239 23.28H117.728V28.656H93.8239V23.28ZM90.2239 38.256H120.272V43.776H90.2239V38.256Z" fill="#DCDD9B"/>
<path d="M50.288 3.36H72.08V7.056H50.288V3.36ZM57.296 8.976H70.592V12.144H57.296V8.976ZM54.128 14.784H71.696V17.952H54.128V14.784ZM60.656 11.328H65.6V16.512H60.656V11.328ZM57.632 0L61.904 0.624001C61.168 4.112 60.016 7.216 58.448 9.936C56.88 12.656 54.896 14.896 52.496 16.656C52.336 16.368 52.08 16.016 51.728 15.6C51.376 15.152 51.008 14.72 50.624 14.304C50.272 13.888 49.952 13.536 49.664 13.248C51.744 11.84 53.456 10 54.8 7.728C56.144 5.424 57.088 2.848 57.632 0ZM65.936 19.44H70.208V34.656C70.208 35.616 70.096 36.352 69.872 36.864C69.68 37.376 69.248 37.792 68.576 38.112C67.968 38.4 67.2 38.576 66.272 38.64C65.376 38.672 64.288 38.688 63.008 38.688C62.944 38.144 62.784 37.552 62.528 36.912C62.304 36.272 62.08 35.712 61.856 35.232C62.592 35.264 63.296 35.28 63.968 35.28C64.64 35.28 65.088 35.28 65.312 35.28C65.728 35.28 65.936 35.072 65.936 34.656V19.44ZM55.568 19.44H68.192V22.704H55.568V19.44ZM53.648 19.44H57.824V25.92C57.824 27.2 57.744 28.592 57.584 30.096C57.456 31.6 57.168 33.072 56.72 34.512C56.304 35.952 55.664 37.248 54.8 38.4C54.576 38.144 54.24 37.856 53.792 37.536C53.344 37.216 52.88 36.912 52.4 36.624C51.952 36.336 51.552 36.128 51.2 36C51.936 34.976 52.48 33.888 52.832 32.736C53.184 31.552 53.408 30.368 53.504 29.184C53.6 28 53.648 26.88 53.648 25.824V19.44ZM56.864 30.24C58.304 30.016 59.952 29.728 61.808 29.376C63.696 29.024 65.664 28.656 67.712 28.272L68 31.296C66.272 31.872 64.592 32.416 62.96 32.928C61.328 33.408 59.776 33.888 58.304 34.368L56.864 30.24ZM57.824 25.632L59.84 22.944C60.864 23.424 61.904 23.936 62.96 24.48C64.016 25.024 64.864 25.536 65.504 26.016L63.44 29.136C62.768 28.656 61.904 28.08 60.848 27.408C59.792 26.704 58.784 26.112 57.824 25.632ZM29.12 2.112H39.632V7.248H33.68V45.168H29.12V2.112ZM38 2.112H38.816L39.488 1.92L42.704 3.744C42.192 5.728 41.6 7.888 40.928 10.224C40.256 12.56 39.616 14.672 39.008 16.56C40.32 18.544 41.168 20.384 41.552 22.08C41.968 23.776 42.176 25.344 42.176 26.784C42.176 28.256 42.032 29.52 41.744 30.576C41.456 31.6 40.96 32.368 40.256 32.88C39.584 33.392 38.784 33.728 37.856 33.888C37.44 33.92 36.992 33.952 36.512 33.984C36.064 33.984 35.584 33.984 35.072 33.984C35.04 33.376 34.928 32.672 34.736 31.872C34.576 31.04 34.32 30.32 33.968 29.712C34.352 29.744 34.688 29.76 34.976 29.76C35.296 29.76 35.6 29.76 35.888 29.76C36.336 29.76 36.72 29.632 37.04 29.376C37.328 29.12 37.52 28.72 37.616 28.176C37.744 27.6 37.808 26.96 37.808 26.256C37.808 25.04 37.616 23.664 37.232 22.128C36.848 20.56 36.048 18.88 34.832 17.088C35.248 15.616 35.648 14.032 36.032 12.336C36.448 10.64 36.816 9.008 37.136 7.44C37.488 5.84 37.776 4.528 38 3.504V2.112ZM42.512 2.352L46.784 1.056C47.424 2.24 48.048 3.536 48.656 4.944C49.296 6.32 49.792 7.52 50.144 8.544L45.68 10.032C45.392 8.976 44.928 7.728 44.288 6.288C43.68 4.848 43.088 3.536 42.512 2.352ZM41.696 11.184H48.512V16.08H41.696V11.184ZM48.704 32.64C49.472 34.752 50.48 36.336 51.728 37.392C53.008 38.416 54.512 39.088 56.24 39.408C57.968 39.728 59.872 39.888 61.952 39.888C63.008 39.888 64.176 39.872 65.456 39.84C66.768 39.776 68.08 39.712 69.392 39.648C70.704 39.584 71.904 39.488 72.992 39.36C72.768 39.744 72.544 40.24 72.32 40.848C72.128 41.456 71.952 42.064 71.792 42.672C71.664 43.28 71.552 43.824 71.456 44.304C70.048 44.4 68.48 44.464 66.752 44.496C65.056 44.56 63.392 44.592 61.76 44.592C59.008 44.592 56.576 44.32 54.464 43.776C52.352 43.264 50.544 42.256 49.04 40.752C47.536 39.216 46.272 36.976 45.248 34.032L48.704 32.64ZM47.12 22.56H48.992L49.808 22.416L51.728 23.28C51.056 28.72 49.888 33.296 48.224 37.008C46.56 40.72 44.432 43.536 41.84 45.456C41.648 45.104 41.344 44.688 40.928 44.208C40.544 43.76 40.144 43.312 39.728 42.864C39.312 42.416 38.928 42.08 38.576 41.856C40.912 40.192 42.8 37.808 44.24 34.704C45.68 31.6 46.64 27.824 47.12 23.376V22.56ZM43.232 27.984V23.616L45.248 22.56H49.376V27.264H45.872C45.456 27.264 44.96 27.328 44.384 27.456C43.808 27.584 43.424 27.76 43.232 27.984ZM43.184 27.984C43.12 27.6 42.976 27.152 42.752 26.64C42.56 26.128 42.352 25.616 42.128 25.104C41.904 24.56 41.696 24.144 41.504 23.856C41.888 23.728 42.224 23.552 42.512 23.328C42.8 23.104 43.088 22.752 43.376 22.272C43.568 21.952 43.824 21.344 44.144 20.448C44.496 19.552 44.864 18.544 45.248 17.424C45.632 16.272 46 15.168 46.352 14.112C46.736 13.024 47.024 12.144 47.216 11.472V11.328L48.416 10.848L51.632 11.664C51.344 12.528 50.976 13.552 50.528 14.736C50.112 15.888 49.664 17.12 49.184 18.432C48.704 19.744 48.24 20.992 47.792 22.176C47.344 23.328 46.928 24.304 46.544 25.104C46.544 25.104 46.368 25.2 46.016 25.392C45.696 25.552 45.312 25.792 44.864 26.112C44.416 26.432 44.016 26.752 43.664 27.072C43.344 27.392 43.184 27.696 43.184 27.984Z" fill="#DCDD9B"/>
</svg>
