<svg width="267" height="374" viewBox="0 0 267 374" fill="none" xmlns="http://www.w3.org/2000/svg">
<path d="M50.0327 345.042C90.4949 294.277 143.584 309.114 153.08 373.848C163.001 314.548 182.919 303.308 239.516 325.068C188.13 284.004 202.286 231.205 267 222.57C207.447 211.876 195.922 191.829 216.967 135.655C176.505 186.42 123.416 171.582 113.92 106.848C103.999 166.148 84.0811 177.388 27.4842 155.628C78.8949 196.716 64.7144 249.491 0 258.126C59.5532 268.82 71.0781 288.868 50.0327 345.042Z" fill="#DCDD9B"/>
<path d="M50.0327 345.042C90.4949 294.277 143.584 309.114 153.08 373.848C163.001 314.548 182.919 303.308 239.516 325.068C188.13 284.004 202.286 231.205 267 222.57C207.447 211.876 195.922 191.829 216.967 135.655C176.505 186.42 123.416 171.582 113.92 106.848C103.999 166.148 84.0811 177.388 27.4842 155.628C78.8949 196.716 64.7144 249.491 0 258.126C59.5532 268.82 71.0781 288.868 50.0327 345.042Z" fill="#DCDD9B"/>
<path d="M65.6915 226.094C75.2943 226.094 83.079 216.074 83.079 203.713C83.079 191.353 75.2943 181.333 65.6915 181.333C56.0887 181.333 48.3041 191.353 48.3041 203.713C48.3041 216.074 56.0887 226.094 65.6915 226.094Z" fill="white"/>
<path d="M58.075 213.911C61.1052 213.911 63.5618 210.878 63.5618 207.137C63.5618 203.396 61.1052 200.364 58.075 200.364C55.0447 200.364 52.5881 203.396 52.5881 207.137C52.5881 210.878 55.0447 213.911 58.075 213.911Z" fill="#211815"/>
<path d="M105.502 226.094C115.105 226.094 122.89 216.074 122.89 203.714C122.89 191.353 115.105 181.333 105.502 181.333C95.8995 181.333 88.1149 191.353 88.1149 203.714C88.1149 216.074 95.8995 226.094 105.502 226.094Z" fill="white"/>
<path d="M97.3097 213.911C100.34 213.911 102.797 210.878 102.797 207.137C102.797 203.396 100.34 200.364 97.3097 200.364C94.2794 200.364 91.8229 203.396 91.8229 207.137C91.8229 210.878 94.2794 213.911 97.3097 213.911Z" fill="#211815"/>
<path d="M200.139 5.52H209.211V10.176H200.139V5.52ZM187.611 14.304H210.459V19.344H187.611V14.304ZM197.451 0H202.491V17.136H197.451V0ZM190.539 4.224H195.051V17.328H190.539V4.224ZM205.563 22.224L210.651 23.328C209.787 27.232 208.555 30.592 206.955 33.408C205.355 36.192 203.291 38.56 200.763 40.512C198.267 42.432 195.211 44.048 191.595 45.36C191.339 44.624 190.923 43.824 190.347 42.96C189.771 42.096 189.179 41.376 188.571 40.8C191.803 39.84 194.539 38.56 196.779 36.96C199.019 35.36 200.859 33.344 202.299 30.912C203.739 28.48 204.827 25.584 205.563 22.224ZM191.499 21.264L196.299 22.32C195.819 24.336 195.163 26.32 194.331 28.272C193.531 30.192 192.635 31.824 191.643 33.168C191.355 32.912 190.955 32.624 190.443 32.304C189.931 31.952 189.403 31.616 188.859 31.296C188.347 30.976 187.899 30.72 187.515 30.528C188.411 29.376 189.195 27.968 189.867 26.304C190.571 24.64 191.115 22.96 191.499 21.264ZM210.507 2.016H232.443V6.816H210.507V2.016ZM217.227 21.408V24.384H226.203V21.408H217.227ZM217.227 28.368V31.44H226.203V28.368H217.227ZM217.227 14.448V17.376H226.203V14.448H217.227ZM212.187 10.176H231.483V35.616H212.187V10.176ZM219.051 4.656L224.523 5.472C224.107 6.848 223.675 8.192 223.227 9.504C222.811 10.784 222.443 11.888 222.123 12.816L217.947 11.856C218.139 10.8 218.347 9.616 218.571 8.304C218.795 6.96 218.955 5.744 219.051 4.656ZM217.227 35.52L220.779 39.168C219.307 40.288 217.611 41.408 215.691 42.528C213.803 43.68 212.027 44.64 210.363 45.408C210.107 44.8 209.755 44.08 209.307 43.248C208.859 42.448 208.427 41.76 208.011 41.184C209.003 40.704 210.075 40.16 211.227 39.552C212.379 38.912 213.483 38.24 214.539 37.536C215.627 36.8 216.523 36.128 217.227 35.52ZM222.555 38.832L225.675 35.424C226.475 35.904 227.355 36.48 228.315 37.152C229.275 37.824 230.203 38.512 231.099 39.216C232.027 39.888 232.779 40.512 233.355 41.088L230.043 44.928C229.531 44.352 228.843 43.696 227.979 42.96C227.115 42.256 226.203 41.536 225.243 40.8C224.283 40.064 223.387 39.408 222.555 38.832ZM196.971 18.144H202.203V33.888H196.971V18.144Z" fill="#DCDD9B"/>
<path d="M150.969 40.848H137.773C139.273 37.7308 140.727 33.6996 142.133 28.7074L145.461 19.4027C146 17.4105 146.469 15.2543 146.82 12.9808C147.172 10.7074 147.383 8.80896 147.43 7.23865H167C167.07 8.87927 167.305 10.8246 167.656 13.098C168.008 15.3715 168.43 17.4808 168.969 19.4027L172.273 28.7074C173.539 33.3011 174.992 37.3558 176.609 40.848H163.461C163.438 39.2777 163.039 36.8636 162.289 33.6058L161.914 32.598H152.469L152.117 33.6527C151.344 36.7933 150.969 39.184 150.969 40.848ZM155.633 22.5668L153.617 27.7933H160.812L158.797 22.5668C158.328 21.1605 157.906 19.2152 157.508 16.7543H156.875C156.43 19.4027 156.031 21.3246 155.633 22.5668Z" fill="#DCDD9B"/>
<path d="M106.256 12.2401H125.888V17.6161H106.256V12.2401ZM81.968 10.3201H106.064V15.0721H81.968V10.3201ZM83.408 21.0241H104.72V25.6801H83.408V21.0241ZM84.272 28.8481H104.096V33.5041H84.272V28.8481ZM116.672 0.144069H122.192V38.6401C122.192 40.1121 122.016 41.2481 121.664 42.0481C121.344 42.8801 120.752 43.5201 119.888 43.9681C119.024 44.4161 117.936 44.7041 116.624 44.8321C115.312 44.9921 113.712 45.0721 111.824 45.0721C111.728 44.5921 111.568 44.0161 111.344 43.3441C111.152 42.6721 110.912 42.0001 110.624 41.3281C110.368 40.6881 110.112 40.1121 109.856 39.6001C111.104 39.6321 112.256 39.6641 113.312 39.6961C114.4 39.6961 115.152 39.6961 115.568 39.6961C115.952 39.6961 116.224 39.6161 116.384 39.4561C116.576 39.2961 116.672 39.0241 116.672 38.6401V0.144069ZM106.784 21.8881L111.536 20.3041C112.144 21.4241 112.704 22.6241 113.216 23.9041C113.76 25.1841 114.208 26.4481 114.56 27.6961C114.944 28.9121 115.2 30.0161 115.328 31.0081L110.24 32.7841C110.144 31.8241 109.92 30.7201 109.568 29.4721C109.248 28.2241 108.832 26.9441 108.32 25.6321C107.84 24.3201 107.328 23.0721 106.784 21.8881ZM82.112 4.03207L85.52 1.72807C86.352 2.52807 87.168 3.45607 87.968 4.51207C88.768 5.53607 89.344 6.43207 89.696 7.20007L86.048 9.79207C85.696 8.99207 85.152 8.04807 84.416 6.96007C83.68 5.87207 82.912 4.89607 82.112 4.03207ZM85.472 16.3681L89.456 14.2081C90.16 14.9761 90.848 15.8401 91.52 16.8001C92.224 17.7601 92.72 18.6241 93.008 19.3921L88.88 21.7441C88.592 20.9761 88.112 20.0961 87.44 19.1041C86.8 18.1121 86.144 17.2001 85.472 16.3681ZM88.496 0.0960693H93.008V11.8561H88.496V0.0960693ZM91.52 22.4161H96.848V39.8401H91.52V22.4161ZM95.216 0.0960693H99.776V11.8561H95.216V0.0960693ZM81.824 38.0161C83.872 37.8241 86.224 37.6001 88.88 37.3441C91.568 37.0881 94.384 36.8161 97.328 36.5281C100.272 36.2081 103.2 35.8881 106.112 35.5681L106.208 40.6081C103.424 40.9281 100.608 41.2481 97.76 41.5681C94.944 41.9201 92.24 42.2401 89.648 42.5281C87.056 42.8161 84.688 43.0721 82.544 43.2961L81.824 38.0161ZM102.416 1.87207L106.928 4.41607C105.936 5.44007 104.96 6.44807 104 7.44007C103.04 8.40007 102.176 9.23207 101.408 9.93607L98 7.82407C98.48 7.28007 98.992 6.67207 99.536 6.00007C100.08 5.29607 100.608 4.59207 101.12 3.88807C101.664 3.15207 102.096 2.48007 102.416 1.87207ZM98.144 14.4961L103.088 16.2241C102.416 17.4721 101.744 18.7201 101.072 19.9681C100.432 21.1841 99.824 22.2241 99.248 23.0881L95.024 21.5041C95.408 20.8641 95.792 20.1441 96.176 19.3441C96.56 18.5121 96.928 17.6801 97.28 16.8481C97.632 15.9841 97.92 15.2001 98.144 14.4961Z" fill="#DCDD9B"/>
<path d="M35.696 4.94404L38.432 0.672045C39.328 1.12004 40.304 1.66404 41.36 2.30404C42.448 2.91204 43.488 3.53604 44.48 4.17604C45.504 4.78404 46.32 5.36004 46.928 5.90404L44.048 10.608C43.44 10.064 42.64 9.45604 41.648 8.78404C40.688 8.08004 39.68 7.39204 38.624 6.72004C37.568 6.04804 36.592 5.45604 35.696 4.94404ZM33.344 17.904L35.936 13.632C36.864 14.016 37.856 14.496 38.912 15.072C39.968 15.616 40.992 16.192 41.984 16.8C42.976 17.408 43.792 17.952 44.432 18.432L41.648 23.28C41.04 22.736 40.256 22.144 39.296 21.504C38.336 20.864 37.328 20.24 36.272 19.632C35.216 18.992 34.24 18.416 33.344 17.904ZM34.256 40.512C35.024 39.328 35.856 37.92 36.752 36.288C37.648 34.624 38.56 32.864 39.488 31.008C40.416 29.12 41.28 27.264 42.08 25.44L45.824 29.328C45.088 30.992 44.32 32.704 43.52 34.464C42.72 36.192 41.904 37.904 41.072 39.6C40.24 41.296 39.408 42.928 38.576 44.496L34.256 40.512ZM69.344 15.312C69.76 18.704 70.352 21.968 71.12 25.104C71.92 28.208 72.976 30.992 74.288 33.456C75.6 35.888 77.248 37.84 79.232 39.312C78.816 39.664 78.336 40.128 77.792 40.704C77.28 41.248 76.784 41.824 76.304 42.432C75.824 43.072 75.44 43.664 75.152 44.208C72.976 42.288 71.184 39.92 69.776 37.104C68.4 34.256 67.312 31.04 66.512 27.456C65.744 23.84 65.12 20 64.64 15.936L69.344 15.312ZM74.912 19.824L78.896 24.096C77.424 25.12 76 26.16 74.624 27.216C73.248 28.24 71.968 29.12 70.784 29.856L68 26.592C68.704 26.016 69.472 25.344 70.304 24.576C71.168 23.776 72 22.96 72.8 22.128C73.632 21.296 74.336 20.528 74.912 19.824ZM72.128 0.144043L76.688 4.84804C74.224 5.61604 71.52 6.32004 68.576 6.96004C65.664 7.56804 62.672 8.11204 59.6 8.59204C56.56 9.04004 53.616 9.44004 50.768 9.79204C50.672 9.08804 50.448 8.25604 50.096 7.29604C49.744 6.33604 49.392 5.55204 49.04 4.94404C51.12 4.68804 53.216 4.38404 55.328 4.03204C57.44 3.68004 59.504 3.31204 61.52 2.92804C63.568 2.51204 65.488 2.08004 67.28 1.63204C69.072 1.15204 70.688 0.656044 72.128 0.144043ZM49.04 4.94404H54.32V17.136C54.32 19.184 54.24 21.44 54.08 23.904C53.952 26.336 53.68 28.832 53.264 31.392C52.848 33.92 52.256 36.4 51.488 38.832C50.72 41.232 49.696 43.424 48.416 45.408C48.096 45.088 47.648 44.736 47.072 44.352C46.528 44 45.968 43.664 45.392 43.344C44.816 43.024 44.304 42.784 43.856 42.624C45.04 40.768 45.984 38.752 46.688 36.576C47.392 34.4 47.904 32.176 48.224 29.904C48.576 27.632 48.8 25.408 48.896 23.232C48.992 21.056 49.04 19.024 49.04 17.136V4.94404ZM71.648 9.55204L76.16 14.064C74.496 14.608 72.688 15.12 70.736 15.6C68.816 16.048 66.864 16.448 64.88 16.8C62.928 17.12 61.04 17.392 59.216 17.616C59.088 16.944 58.848 16.16 58.496 15.264C58.144 14.368 57.808 13.616 57.488 13.008C59.184 12.72 60.896 12.4 62.624 12.048C64.352 11.696 66 11.312 67.568 10.896C69.168 10.448 70.528 10 71.648 9.55204ZM57.728 44.688L57.008 39.936L58.736 38.208L67.904 34.656C68.032 35.392 68.208 36.208 68.432 37.104C68.656 37.968 68.848 38.672 69.008 39.216C66.832 40.144 65.056 40.912 63.68 41.52C62.304 42.128 61.216 42.624 60.416 43.008C59.648 43.392 59.056 43.712 58.64 43.968C58.256 44.224 57.952 44.464 57.728 44.688ZM57.728 44.688C57.632 44.24 57.456 43.728 57.2 43.152C56.976 42.576 56.72 41.984 56.432 41.376C56.176 40.8 55.904 40.336 55.616 39.984C56.064 39.76 56.48 39.376 56.864 38.832C57.28 38.288 57.488 37.52 57.488 36.528V13.008H62.528V40.416C62.528 40.416 62.288 40.56 61.808 40.848C61.328 41.104 60.768 41.44 60.128 41.856C59.488 42.304 58.928 42.768 58.448 43.248C57.968 43.728 57.728 44.208 57.728 44.688Z" fill="#DCDD9B"/>
</svg>
