<svg width="234" height="130" viewBox="0 0 234 130" fill="none" xmlns="http://www.w3.org/2000/svg">
<path d="M21.4206 50.8181C16.2413 48.6813 12.2232 45.5691 9.34323 41.4581C6.44 37.3704 5 32.5858 5 27.0581C5 18.8361 8.57677 11.8684 14.6852 7.22323C20.7239 2.64774 29.48 0 39.5135 0C47.6658 0 55.4232 1.20774 62.7626 3.55355L62.1819 17.4426C59.9058 16.0723 56.8864 14.9807 53.1239 14.2142C49.3613 13.4478 45.4826 13.0529 41.4413 13.0529C35.031 13.0529 29.9213 14.3303 26.0658 16.8155C22.1871 19.3239 20.2594 22.7613 20.2594 27.151C20.2594 31.5407 22.0477 34.6529 25.5548 37.1149C29.0619 39.5768 33.8232 40.8078 39.7226 40.8078C42.649 40.8078 45.4129 40.4129 48.0142 39.6C50.5923 38.8336 52.6826 37.742 54.2619 36.3252V31.3549H43.7406C41.0929 31.3549 38.84 31.6103 37.0284 32.1213L37.4232 23.4116H68.8942V44.5007C65.8052 47.4271 61.6477 49.7497 56.4219 51.4684C51.1729 53.1639 45.4826 54 39.2813 54C32.4994 54 26.5535 52.9084 21.3974 50.7717L21.4206 50.8181Z" fill="black"/>
<path d="M76.8838 53.0014C78.1148 49.1923 78.7419 43.9665 78.7419 37.4168V16.6065C78.7419 10.2659 78.1148 5.08649 76.8838 1.02197H96.0683C94.8606 5.01681 94.2567 10.1962 94.2567 16.6065V37.4168C94.2567 44.0594 94.8838 49.262 96.0683 53.0014H76.8838Z" fill="black"/>
<path d="M106.172 53.0014C107.403 49.1923 108.03 43.9665 108.03 37.4168V16.6065C108.03 10.2659 107.403 5.08649 106.172 1.02197H160.009L162.332 16.3278C160.334 15.0968 156.084 14.4697 149.604 14.4697H123.475V24.1084H144.866C148.605 24.1084 151.509 23.9691 153.576 23.6671V33.3059C151.509 33.0272 148.605 32.8646 144.866 32.8646H123.475V38.671C123.475 44.3381 124.102 49.1227 125.356 53.0014H106.172Z" fill="black"/>
<path d="M185.882 53.0014C187.067 49.053 187.648 43.8272 187.648 37.4168V14.5394H177.196C171.947 14.5394 167.952 15.0736 165.165 16.1652L167.999 1.02197H222.788L225.622 16.1652C222.765 15.0736 218.724 14.5394 213.591 14.5394H203.186V37.4168C203.186 43.8272 203.813 49.053 205.067 53.0014H185.882Z" fill="black"/>
<path d="M5 100.982C5.9339 97.9236 6.39169 93.8035 6.39169 88.6945L6.39169 72.2872C6.39169 66.9768 5.9339 62.8933 5 60H21.3524L31.5887 78.5315C33.4748 81.9924 34.958 85.0505 36.0567 87.7057H36.6793C37.5949 85.4533 39.0782 82.3953 41.1291 78.5315L51.4752 60H67.4064C66.4359 63.0031 65.9415 67.1233 65.9415 72.2872V88.6945C65.9415 93.6936 66.4176 97.7771 67.4064 100.982H52.3175C52.7204 99.6449 53.0683 97.7771 53.3247 95.3783C53.5811 92.9978 53.7276 90.6539 53.7276 88.3466L53.7276 74.448H53.05L37.9795 100.982H34.2439L19.2282 74.4663H18.6789L18.6789 88.3649C18.6789 90.6539 18.8254 92.9978 19.1 95.36C19.3564 97.7588 19.7043 99.6449 20.1072 101H5V100.982Z" fill="black"/>
<path d="M75.335 100.982C76.3055 97.9786 76.7999 93.8584 76.7999 88.6945V72.2872C76.7999 67.2881 76.3055 63.2046 75.335 60L117.782 60L119.558 71.7745C117.928 70.8039 114.778 70.3095 110.072 70.3095H89.0321V77.0849H105.275C108.131 77.0849 110.42 76.975 112.105 76.7369V84.2264C110.53 83.9701 108.241 83.8236 105.275 83.8236H89.0321V90.6905H110.127C115.218 90.6905 118.88 89.9763 121.133 88.5663L119.008 100.963H75.335V100.982Z" fill="black"/>
<path d="M127.011 100.982C127.981 97.9786 128.476 93.8584 128.476 88.6945V72.2872C128.476 67.2881 127.981 63.2046 127.011 60L169.457 60L171.234 71.7745C169.604 70.8039 166.454 70.3095 161.748 70.3095H140.708V77.0849H156.95C159.807 77.0849 162.096 76.975 163.781 76.7369V84.2264C162.206 83.9701 159.917 83.8236 156.95 83.8236H140.708V90.6905H161.803C166.894 90.6905 170.556 89.9763 172.808 88.5663L170.684 100.963H127.011V100.982Z" fill="black"/>
<path d="M191.962 100.982C192.896 97.8687 193.354 93.7485 193.354 88.6945V70.6574H185.114C180.975 70.6574 177.826 71.0786 175.628 71.9393L177.862 60L221.06 60L223.294 71.9393C221.042 71.0786 217.855 70.6574 213.808 70.6574H205.605V88.6945C205.605 93.7485 206.099 97.8687 207.088 100.982H191.962Z" fill="black"/>
<path d="M12 130H6V124H12V130ZM24 130H18V124H24V130ZM36 130H30V124H36V130ZM48 130H42V124H48V130ZM60 130H54V124H60V130ZM72 130H66V124H72V130ZM84 130H78V124H84V130ZM96 130H90V124H96V130ZM108 130H102V124H108V130ZM120 130H114V124H120V130ZM132 130H126V124H132V130ZM144 130H138V124H144V130ZM156 130H150V124H156V130ZM168 130H162V124H168V130ZM180 130H174V124H180V130ZM192 130H186V124H192V130ZM204 130H198V124H204V130ZM216 130H210V124H216V130ZM228 130H222V124H228V130ZM6 124H0V118H6V124ZM18 124H12V118H18V124ZM30 124H24V118H30V124ZM42 124H36V118H42V124ZM54 124H48V118H54V124ZM66 124H60V118H66V124ZM78 124H72V118H78V124ZM90 124H84V118H90V124ZM102 124H96V118H102V124ZM114 124H108V118H114V124ZM126 124H120V118H126V124ZM138 124H132V118H138V124ZM150 124H144V118H150V124ZM162 124H156V118H162V124ZM174 124H168V118H174V124ZM186 124H180V118H186V124ZM198 124H192V118H198V124ZM210 124H204V118H210V124ZM222 124H216V118H222V124ZM234 124H228V118H234V124Z" fill="black"/>
</svg>
