<svg width="32" height="34" viewBox="0 0 32 34" fill="none" xmlns="http://www.w3.org/2000/svg">
<path d="M11.4336 27.167C5.34046 41.0419 39.5618 28.9098 26.0921 21.9656C39.5482 28.9098 26.646 -7.51366 20.5664 6.3613C26.6595 -7.51366 -7.56176 4.61848 5.90789 11.5627C-7.54825 4.61848 5.35398 41.0419 11.4336 27.167Z" fill="black"/>
<path d="M25.9162 19.858C27.2817 19.858 28.3886 18.4184 28.3886 16.6425C28.3886 14.8667 27.2817 13.4271 25.9162 13.4271C24.5508 13.4271 23.4438 14.8667 23.4438 16.6425C23.4438 18.4184 24.5508 19.858 25.9162 19.858Z" fill="white"/>
<path d="M27.0785 16.521C27.5113 16.521 27.8621 16.0855 27.8621 15.5483C27.8621 15.0111 27.5113 14.5756 27.0785 14.5756C26.6457 14.5756 26.2949 15.0111 26.2949 15.5483C26.2949 16.0855 26.6457 16.521 27.0785 16.521Z" fill="#211815"/>
<path d="M20.2556 19.858C21.621 19.858 22.7279 18.4184 22.7279 16.6425C22.7279 14.8667 21.621 13.4271 20.2556 13.4271C18.8901 13.4271 17.7832 14.8667 17.7832 16.6425C17.7832 18.4184 18.8901 19.858 20.2556 19.858Z" fill="white"/>
<path d="M21.4311 16.521C21.8638 16.521 22.2146 16.0855 22.2146 15.5483C22.2146 15.0111 21.8638 14.5756 21.4311 14.5756C20.9983 14.5756 20.6475 15.0111 20.6475 15.5483C20.6475 16.0855 20.9983 16.521 21.4311 16.521Z" fill="#211815"/>
</svg>
