<svg width="199" height="63" viewBox="0 0 199 63" fill="none" xmlns="http://www.w3.org/2000/svg">
<path d="M190.494 62.6816C189.141 62.6816 187.594 62.5059 185.854 62.1719C184.113 61.8379 182.707 61.416 181.652 60.9414V56.7754C182.76 57.3906 184.148 57.918 185.783 58.3574C187.418 58.7969 188.895 59.0078 190.213 59.0078C193.148 59.0078 194.607 58.3047 194.607 56.8809C194.607 54.6836 190.529 54.8066 187.031 53.9805C184.412 53.418 182.092 52.2051 182.109 49.252C182.109 47.7227 182.848 46.4043 184.307 45.332C185.766 44.2598 187.752 43.7324 190.283 43.7324C191.496 43.7324 192.762 43.873 194.08 44.1367C195.398 44.4004 196.559 44.752 197.561 45.1738V48.9883C196.77 48.5664 195.732 48.1797 194.449 47.8457C193.166 47.5117 191.865 47.3359 190.564 47.3359C188.016 47.3359 186.469 48.1094 186.469 49.3926C186.469 51.3965 190.547 51.2383 194.08 52.082C196.682 52.6797 199.002 53.9277 199.002 56.916C199.002 58.6035 198.246 59.9922 196.717 61.0645C195.188 62.1367 193.113 62.6816 190.494 62.6816Z" fill="black"/>
<path d="M165.867 62.6816C163.529 62.6816 161.684 62.1016 160.348 60.9414C159.012 59.7988 158.344 58.3223 158.344 56.5117C158.344 54.7012 159.012 53.2246 160.365 52.082C161.701 50.9395 163.547 50.3594 165.902 50.3594C167.607 50.3594 169.066 50.7109 170.279 51.3965C171.475 52.082 172.301 52.9258 172.74 53.9277H173.145V51.4141C173.145 48.2676 170.947 46.6855 167.133 46.6855C165.797 46.6855 164.479 46.8613 163.195 47.1953C161.912 47.5469 161.016 47.916 160.506 48.3027V44.9629C161.262 44.6641 162.387 44.3828 163.898 44.1191C165.41 43.8555 166.816 43.7324 168.1 43.7324C170.859 43.7324 173.057 44.1719 174.902 45.1738C176.73 46.1758 177.785 48.0391 177.785 50.5703V56.4414C177.785 58.0234 177.82 59.2363 177.908 60.0625C177.979 60.8887 178.119 61.6094 178.33 62.207H172.705C173.004 61.5918 173.145 60.6777 173.145 59.4648V59.1484H172.811C171.896 61.2402 169.436 62.6816 165.867 62.6816ZM167.924 59.6582C171.105 59.6582 173.109 58.4629 173.109 56.4766C173.109 55.668 172.617 54.9297 171.65 54.2793C170.684 53.6289 169.436 53.3125 167.924 53.3125C164.848 53.3125 162.984 54.5957 162.984 56.4766C162.984 57.4082 163.424 58.1816 164.303 58.7617C165.182 59.3594 166.395 59.6582 167.924 59.6582Z" fill="black"/>
<path d="M124.611 62.207H118.705C119.039 60.6953 119.215 59.0078 119.215 57.1621V49.6738C119.215 47.5469 119.039 45.7188 118.705 44.207H124.682C124.277 45.0684 124.066 46.2461 124.066 47.7402V48.7773H124.436C125.684 45.4199 128.109 43.7324 131.678 43.7324C135.422 43.7324 137.742 45.4199 138.656 48.7773H138.973C140.168 45.5605 142.893 43.7324 146.602 43.7324C151.523 43.7324 154.02 46.668 154.02 51.7305V56.5117C154.02 58.7969 154.195 60.6953 154.529 62.207H148.623C148.992 60.5898 149.168 58.832 149.168 56.9512V52.8906C149.168 49.6035 147.639 47.6699 144.562 47.6699C143.016 47.6699 141.715 48.2324 140.678 49.3574C139.623 50.5 139.078 51.7832 139.043 53.207V56.7754C139.043 58.6914 139.219 60.502 139.553 62.207H133.822C134.068 60.9766 134.191 59.2188 134.191 56.9512V52.8906C134.191 49.6035 132.662 47.6699 129.586 47.6699C126.281 47.6348 123.979 50.5879 124.066 53.3828V56.9863C124.066 59.4648 124.242 61.2051 124.611 62.207Z" fill="black"/>
<path d="M111.656 62.6816C106.594 62.6816 104.062 60.502 104.062 56.125V47.3711H100.037V44.207H104.062V38.2305L108.633 37V44.207H115.541V47.3711H108.633V54.5781C108.633 57.3379 109.969 58.709 112.623 58.709C113.854 58.709 114.855 58.4629 115.646 57.9531V61.8555C114.574 62.4004 113.238 62.6816 111.656 62.6816Z" fill="black"/>
<path d="M89.7363 62.6816C88.3828 62.6816 86.8359 62.5059 85.0957 62.1719C83.3555 61.8379 81.9492 61.416 80.8945 60.9414V56.7754C82.002 57.3906 83.3906 57.918 85.0254 58.3574C86.6602 58.7969 88.1367 59.0078 89.4551 59.0078C92.3906 59.0078 93.8496 58.3047 93.8496 56.8809C93.8496 54.6836 89.7715 54.8066 86.2734 53.9805C83.6543 53.418 81.334 52.2051 81.3516 49.252C81.3516 47.7227 82.0898 46.4043 83.5488 45.332C85.0078 44.2598 86.9941 43.7324 89.5254 43.7324C90.7383 43.7324 92.0039 43.873 93.3223 44.1367C94.6406 44.4004 95.8008 44.752 96.8027 45.1738V48.9883C96.0117 48.5664 94.9746 48.1797 93.6914 47.8457C92.4082 47.5117 91.1074 47.3359 89.8066 47.3359C87.2578 47.3359 85.7109 48.1094 85.7109 49.3926C85.7109 51.3965 89.7891 51.2383 93.3223 52.082C95.9238 52.6797 98.2441 53.9277 98.2441 56.916C98.2441 58.6035 97.4883 59.9922 95.959 61.0645C94.4297 62.1367 92.3555 62.6816 89.7363 62.6816Z" fill="black"/>
<path d="M74.584 41.2891C72.8965 41.2891 71.7363 40.1816 71.7363 38.7051C71.7363 37.9492 72 37.334 72.5273 36.8242C73.0547 36.3145 73.7402 36.0684 74.584 36.0684C76.2891 36.0684 77.4316 37.1758 77.4316 38.7051C77.4316 40.1816 76.2891 41.2891 74.584 41.2891ZM77.5723 62.207H71.6309C72 60.7129 72.1758 58.709 72.1758 56.1602V47.6699C72.1758 46.0879 72.0879 44.9277 71.9121 44.207C72.5449 44.5762 73.459 44.7695 74.6543 44.7695C75.8496 44.7695 76.7285 44.5762 77.2734 44.207C77.1152 45.0508 77.0273 46.2109 77.0273 47.6699V56.1602C77.0273 58.709 77.2031 60.7129 77.5723 62.207Z" fill="black"/>
<path d="M59.7832 62.207H53.9121C54.2285 60.625 54.3867 58.9551 54.3867 57.1973V49.6738C54.3867 47.6523 54.2285 45.8242 53.9121 44.207H60.0293C59.8008 44.6465 59.625 45.2266 59.4844 45.9824C59.3438 46.7383 59.2734 47.459 59.2734 48.1621V49.7441H59.6074C60.5039 45.9297 62.877 43.7324 66.1289 43.7324C67.1484 43.7324 68.0449 43.8906 68.8184 44.207V48.6719C68.1152 48.0566 66.709 47.5996 65.373 47.5996C63.7734 47.5996 62.3496 48.2148 61.1191 49.4629C59.8887 50.7109 59.2734 52.1875 59.2734 53.9277V58.0234C59.2734 59.8867 59.4492 61.2754 59.7832 62.207Z" fill="black"/>
<path d="M33.3809 62.207H27.4746C27.8086 60.6953 27.9844 58.6738 27.9844 56.1602V43.0469C27.9844 40.5332 27.8086 38.5117 27.4746 37H33.3809C33.0469 38.5117 32.8711 40.5332 32.8711 43.0469V48.7773H33.2051C34.418 45.543 36.9668 43.7324 40.623 43.7324C45.6855 43.7324 48.5684 46.6152 48.5684 51.7305V56.5117C48.5684 58.7969 48.7441 60.6953 49.0781 62.207H43.1719C43.541 60.5898 43.7168 58.832 43.7168 56.9512V52.8906C43.7168 49.5332 41.8184 47.6699 38.6367 47.6699C37.002 47.6699 35.6133 48.25 34.4883 49.4102C33.3633 50.5879 32.8184 51.9062 32.8359 53.3828L32.8711 56.9863C32.8711 59.5352 33.0469 61.2754 33.3809 62.207Z" fill="black"/>
<path d="M14.291 62.6816C9.66797 62.6816 5.50195 61.0117 2.83008 57.8828C1.05469 55.8438 0 52.9609 0 49.709C0 47.6875 0.386719 45.8242 1.16016 44.1543C1.93359 42.4844 2.9707 41.0957 4.28906 39.9883C6.9082 37.8086 10.4766 36.543 14.3262 36.543C15.8555 36.543 17.3496 36.6836 18.8086 36.9824C20.2676 37.2812 21.498 37.668 22.5352 38.1602L22.3945 43.4512C20.5488 42.1855 17.8594 41.3594 15.1172 41.3594C12.1816 41.3594 9.79102 42.1328 7.91016 43.6797C6.0293 45.2441 5.08008 47.248 5.08008 49.709C5.08008 51.3965 5.53711 52.8555 6.43359 54.1035C7.33008 55.3516 8.52539 56.2832 10.0371 56.8984C11.5312 57.5312 13.2363 57.8477 15.1523 57.8477C16.8574 57.8477 18.4922 57.584 20.0215 57.0391C21.5508 56.4941 22.834 55.7734 23.9062 54.8594V60.5547C21.0762 61.9785 17.8594 62.6816 14.291 62.6816Z" fill="black"/>
<path d="M105.311 33.5215C101.355 33.5215 98.0684 32.9238 95.4316 31.7285V27.4746C96.5391 28.3359 97.9277 29.0215 99.5625 29.4961C101.197 29.9707 102.85 30.2168 104.555 30.2168C109.178 30.2168 112.746 28.3711 112.746 23.7305C112.746 22.6582 112.395 21.6211 111.674 20.6016H111.357C110.162 23.8535 107.455 25.6816 103.746 25.6816C98.7012 25.6816 95.8359 22.8164 95.8359 17.6836V12.9023C95.8359 10.8457 95.6602 8.94727 95.3262 7.20703H101.197C100.863 8.75391 100.688 10.5117 100.688 12.4629V16.5586C100.688 19.8809 102.551 21.7441 105.768 21.7441C107.385 21.7441 108.756 21.1641 109.863 19.9863C110.971 18.8262 111.533 17.5078 111.533 16.0312V12.4277C111.533 9.87891 111.357 8.13867 111.023 7.20703H116.93C116.561 8.85938 116.385 10.5469 116.385 12.252V20.7422C117.088 21.9727 117.439 23.168 117.439 24.3105C117.439 30.7266 111.762 33.5215 105.311 33.5215Z" fill="black"/>
<path d="M83.2324 25.207H77.3613C77.6777 23.625 77.8359 21.9551 77.8359 20.1973V12.6738C77.8359 10.6523 77.6777 8.82422 77.3613 7.20703H83.4785C83.25 7.64648 83.0742 8.22656 82.9336 8.98242C82.793 9.73828 82.7227 10.459 82.7227 11.1621V12.7441H83.0566C83.9531 8.92969 86.3262 6.73242 89.5781 6.73242C90.5977 6.73242 91.4941 6.89062 92.2676 7.20703V11.6719C91.5645 11.0566 90.1582 10.5996 88.8223 10.5996C87.2227 10.5996 85.7988 11.2148 84.5684 12.4629C83.3379 13.7109 82.7227 15.1875 82.7227 16.9277V21.0234C82.7227 22.8867 82.8984 24.2754 83.2324 25.207Z" fill="black"/>
<path d="M65.2676 25.207H59.3965C59.7129 23.625 59.8711 21.9551 59.8711 20.1973V12.6738C59.8711 10.6523 59.7129 8.82422 59.3965 7.20703H65.5137C65.2852 7.64648 65.1094 8.22656 64.9688 8.98242C64.8281 9.73828 64.7578 10.459 64.7578 11.1621V12.7441H65.0918C65.9883 8.92969 68.3613 6.73242 71.6133 6.73242C72.6328 6.73242 73.5293 6.89062 74.3027 7.20703V11.6719C73.5996 11.0566 72.1934 10.5996 70.8574 10.5996C69.2578 10.5996 67.834 11.2148 66.6035 12.4629C65.373 13.7109 64.7578 15.1875 64.7578 16.9277V21.0234C64.7578 22.8867 64.9336 24.2754 65.2676 25.207Z" fill="black"/>
<path d="M46.3887 25.6816C42.9609 25.6816 40.2012 24.8027 38.1094 23.0449C36 21.3047 34.9453 19.0195 34.9453 16.207C34.9453 12.6387 36.7383 9.65039 40.043 7.98047C41.6777 7.1543 43.5762 6.73242 45.7031 6.73242C48.8848 6.73242 51.4688 7.45312 53.0332 8.63086C54.5977 9.82617 55.4238 11.373 55.4238 13.1133C55.4238 16.6465 52.7871 18.2285 47.373 18.2285C44.2617 18.2285 41.6426 17.543 39.5156 16.1719L39.3047 16.3125C39.375 18.0527 40.2012 19.4766 41.7832 20.6191C43.3652 21.7617 45.2637 22.3242 47.4785 22.3242C49.0078 22.3242 50.4492 22.1133 51.8203 21.709C53.1914 21.3047 54.2109 20.7773 54.8965 20.0918L54.9668 23.9414C54.1055 24.4512 52.875 24.8555 51.2402 25.1895C49.6055 25.5234 47.9883 25.6816 46.3887 25.6816ZM45.7031 15.6621C47.0215 15.6621 48.1641 15.4863 49.2012 15.1172C50.2383 14.748 50.8887 14.0098 50.8887 13.043C50.8887 12.1816 50.3789 11.4434 49.3594 10.8457C48.3223 10.248 47.0215 9.94922 45.457 9.94922C43.9805 9.94922 42.6621 10.3184 41.5195 11.0742C40.3594 11.8301 39.6738 12.8672 39.4453 14.1855C41.1152 15.1699 43.207 15.6621 45.7031 15.6621Z" fill="black"/>
<path d="M6.97852 25.207H1.00195C1.33594 23.6953 1.51172 21.6738 1.51172 19.1602V6.04688C1.51172 3.5332 1.33594 1.51172 1.00195 0H7.80469L13.3594 12.5684C14.5723 15.416 15.416 17.4727 15.873 18.7207H16.1719C16.4707 17.8242 16.7695 17.0332 17.1387 16.1191C17.3145 15.6797 17.4727 15.3105 17.5957 15.0117C17.7188 14.7305 17.8945 14.3086 18.1406 13.7461C18.3691 13.2012 18.5449 12.7969 18.6504 12.5332L24.2227 0H30.9199C30.5684 1.40625 30.3926 3.42773 30.3926 6.04688V19.1602C30.3926 21.7793 30.5684 23.8008 30.9199 25.207H24.9434C25.2773 23.502 25.4531 21.498 25.4531 19.1602V6.85547H25.1367L16.8047 25.207H15.0469L6.73242 6.85547H6.48633V19.1602C6.48633 21.7441 6.64453 23.748 6.97852 25.207Z" fill="black"/>
</svg>
