<svg width="234" height="12" viewBox="0 0 234 12" fill="none" xmlns="http://www.w3.org/2000/svg">
<path d="M12 12H6V6H12V12ZM24 12H18V6H24V12ZM36 12H30V6H36V12ZM48 12H42V6H48V12ZM60 12H54V6H60V12ZM72 12H66V6H72V12ZM84 12H78V6H84V12ZM96 12H90V6H96V12ZM108 12H102V6H108V12ZM120 12H114V6H120V12ZM132 12H126V6H132V12ZM144 12H138V6H144V12ZM156 12H150V6H156V12ZM168 12H162V6H168V12ZM180 12H174V6H180V12ZM192 12H186V6H192V12ZM204 12H198V6H204V12ZM216 12H210V6H216V12ZM228 12H222V6H228V12ZM6 6H0V0H6V6ZM18 6H12V0H18V6ZM30 6H24V0H30V6ZM42 6H36V0H42V6ZM54 6H48V0H54V6ZM66 6H60V0H66V6ZM78 6H72V0H78V6ZM90 6H84V0H90V6ZM102 6H96V0H102V6ZM114 6H108V0H114V6ZM126 6H120V0H126V6ZM138 6H132V0H138V6ZM150 6H144V0H150V6ZM162 6H156V0H162V6ZM174 6H168V0H174V6ZM186 6H180V0H186V6ZM198 6H192V0H198V6ZM210 6H204V0H210V6ZM222 6H216V0H222V6ZM234 6H228V0H234V6Z" fill="black"/>
</svg>
