<svg width="39" height="39" viewBox="0 0 39 39" fill="none" xmlns="http://www.w3.org/2000/svg">
<path d="M7.2075 34.6236C13.0356 27.2437 20.6799 29.4048 22.0478 38.8078C23.4732 30.1864 26.347 28.5541 34.4856 31.7153C27.0827 25.7493 29.1289 18.0705 38.44 16.8175C29.8646 15.2656 28.2093 12.3459 31.2325 4.18426C25.4044 11.5642 17.7601 9.40309 16.3922 0C14.9668 8.62141 12.093 10.2537 3.95435 7.09255C11.3573 13.0586 9.31113 20.7374 0 21.9903C8.57543 23.5422 10.2307 26.462 7.2075 34.6236Z" fill="black"/>
<path d="M7.2075 34.6236C13.0356 27.2437 20.6799 29.4048 22.0478 38.8078C23.4732 30.1864 26.347 28.5541 34.4856 31.7153C27.0827 25.7493 29.1289 18.0705 38.44 16.8175C29.8646 15.2656 28.2093 12.3459 31.2325 4.18426C25.4044 11.5642 17.7601 9.40309 16.3922 0C14.9668 8.62141 12.093 10.2537 3.95435 7.09255C11.3573 13.0586 9.31113 20.7374 0 21.9903C8.57543 23.5422 10.2307 26.462 7.2075 34.6236Z" fill="black"/>
<path d="M9.46055 17.3348C10.8445 17.3348 11.9665 15.8783 11.9665 14.0816C11.9665 12.285 10.8445 10.8285 9.46055 10.8285C8.07654 10.8285 6.95459 12.285 6.95459 14.0816C6.95459 15.8783 8.07654 17.3348 9.46055 17.3348Z" fill="white"/>
<path d="M8.35713 15.5645C8.79519 15.5645 9.1503 15.1219 9.1503 14.5759C9.1503 14.0299 8.79519 13.5873 8.35713 13.5873C7.91908 13.5873 7.56396 14.0299 7.56396 14.5759C7.56396 15.1219 7.91908 15.5645 8.35713 15.5645Z" fill="#211815"/>
<path d="M15.1852 17.3348C16.5692 17.3348 17.6911 15.8783 17.6911 14.0816C17.6911 12.285 16.5692 10.8285 15.1852 10.8285C13.8012 10.8285 12.6792 12.285 12.6792 14.0816C12.6792 15.8783 13.8012 17.3348 15.1852 17.3348Z" fill="white"/>
<path d="M14.0129 15.5645C14.451 15.5645 14.8061 15.1219 14.8061 14.5759C14.8061 14.0299 14.451 13.5873 14.0129 13.5873C13.5748 13.5873 13.2197 14.0299 13.2197 14.5759C13.2197 15.1219 13.5748 15.5645 14.0129 15.5645Z" fill="#211815"/>
</svg>
