<svg width="227" height="16" viewBox="0 0 227 16" fill="none" xmlns="http://www.w3.org/2000/svg">
<path d="M3 16H0V0H3V16ZM10 16H7V0H10V16ZM17 16H14V0H17V16ZM24 16H21V0H24V16ZM31 16H28V0H31V16ZM38 16H35V0H38V16ZM45 16H42V0H45V16ZM52 16H49V0H52V16ZM59 16H56V0H59V16ZM66 16H63V0H66V16ZM73 16H70V0H73V16ZM80 16H77V0H80V16ZM87 16H84V0H87V16ZM94 16H91V0H94V16ZM101 16H98V0H101V16ZM108 16H105V0H108V16ZM115 16H112V0H115V16ZM122 16H119V0H122V16ZM129 16H126V0H129V16ZM136 16H133V0H136V16ZM143 16H140V0H143V16ZM150 16H147V0H150V16ZM157 16H154V0H157V16ZM164 16H161V0H164V16ZM171 16H168V0H171V16ZM178 16H175V0H178V16ZM185 16H182V0H185V16ZM192 16H189V0H192V16ZM199 16H196V0H199V16ZM206 16H203V0H206V16ZM213 16H210V0H213V16ZM220 16H217V0H220V16ZM227 16H224V0H227V16Z" fill="black"/>
</svg>
