<svg width="146" height="83" viewBox="0 0 146 83" fill="none" xmlns="http://www.w3.org/2000/svg">
<path d="M143.344 67.4062C141.891 68.9062 140.156 69.6094 138.141 69.6094C136.125 69.6094 134.391 68.9062 132.938 67.4062C131.484 65.9531 130.734 64.2188 130.734 62.2031C130.734 60.1875 131.484 58.4062 132.938 56.9531C134.391 55.5 136.125 54.7969 138.141 54.7969C140.156 54.7969 141.891 55.5 143.344 56.9531C144.797 58.4062 145.547 60.1875 145.547 62.2031C145.547 64.2188 144.797 65.9531 143.344 67.4062Z" fill="#3E1914"/>
<path d="M123.281 68.5312H76.5V51.8438H94.9688V23.2031C89.25 25.9219 83.4844 27.4688 77.6719 27.8438V12.0938C81.75 11.2969 85.5938 9.98438 89.2031 8.15625C92.8125 6.32812 95.6719 4.07812 97.8281 1.3125H108.562C108.141 3.89062 107.906 7.3125 107.906 11.4844V51.8438H123.281V68.5312Z" fill="#3E1914"/>
<path d="M54.375 82.5469C50.3906 82.5469 45.0469 80.9062 41.5781 79.4062C39.7969 78.6094 37.7344 77.8594 35.4375 77.2031C33.1406 76.5469 30.9844 76.2188 29.0156 76.2188C23.9531 76.2188 20.9531 78.375 18.6562 81.9844L13.3594 76.5938C15.5156 73.125 18.6094 70.6406 22.6875 69.0938V67.875C15.7969 65.7656 10.2656 61.8281 6.1875 56.1094C2.0625 50.4375 0 43.3594 0 34.9219C0 24 3.9375 14.8125 10.3594 9C16.7344 3.23438 25.5469 0 35.4375 0C45.375 0 54.1875 3.23438 60.6094 9C67.0312 14.8125 70.9688 24 70.9688 34.9219C70.9688 45 67.6875 53.625 62.1094 59.3906C56.5312 65.2031 48.8906 68.8125 40.0781 69.7031V70.7344C40.2188 70.7812 40.875 71.0625 42 71.4844C43.0781 71.9062 43.7812 72.1406 44.0625 72.2344C44.3438 72.3281 44.9531 72.5625 45.8906 72.8906C46.8281 73.2188 47.5312 73.4062 48 73.5469C49.6406 73.9219 52.2188 74.3906 54.0938 74.3906C57.75 74.3906 60.6094 73.2188 62.7188 70.9219L66.375 78.1406C62.8594 81.0938 58.875 82.5469 54.375 82.5469ZM35.4375 55.9688C40.5 55.9688 44.6719 54.0469 47.9531 50.25C51.1875 46.4531 52.8281 41.3438 52.8281 34.9219C52.8281 28.5 51.1875 23.3906 47.9531 19.5938C44.6719 15.7969 40.5 13.9219 35.4375 13.9219C30.4219 13.9219 26.2969 15.7969 23.0625 19.5938C19.8281 23.3906 18.1875 28.5 18.1875 34.9219C18.1875 41.3438 19.8281 46.4531 23.0625 50.25C26.2969 54.0469 30.4219 55.9688 35.4375 55.9688Z" fill="#3E1914"/>
</svg>
