<svg width="54" height="28" viewBox="0 0 54 28" fill="none" xmlns="http://www.w3.org/2000/svg">
<path d="M52.5312 22.4688C52.0469 22.9688 51.4688 23.2031 50.7969 23.2031C50.125 23.2031 49.5469 22.9688 49.0625 22.4688C48.5781 21.9844 48.3281 21.4062 48.3281 20.7344C48.3281 20.0625 48.5781 19.4688 49.0625 18.9844C49.5469 18.5 50.125 18.2656 50.7969 18.2656C51.4688 18.2656 52.0469 18.5 52.5312 18.9844C53.0156 19.4688 53.2656 20.0625 53.2656 20.7344C53.2656 21.4062 53.0156 21.9844 52.5312 22.4688Z" fill="#3E1914"/>
<path d="M44.8594 22.8438H25.6719V18.2656L35.6875 11.6094C36.8281 10.7812 37.6094 10.0938 38.0156 9.54688C38.4219 9 38.625 8.45312 38.625 7.90625C38.625 7.125 38.2188 6.53125 37.4219 6.125C36.6094 5.73438 35.5625 5.53125 34.2656 5.53125C32.9062 5.53125 31.5156 5.79688 30.0781 6.34375C28.625 6.89062 27.3594 7.625 26.2656 8.54688V2.45312C28 1.59375 29.5469 0.96875 30.9219 0.578125C32.2812 0.1875 33.8594 0 35.6562 0C38.25 0 40.375 0.59375 42.0469 1.79688C43.7188 3 44.5469 4.5625 44.5469 6.48438C44.5469 9.21875 42.7344 11.3438 38.75 13.5312L33.2812 16.9531L33.3438 17.2812H40.3281C42.4375 17.2812 44.1094 16.6875 45 15.7969L44.8594 22.8438Z" fill="#3E1914"/>
<path d="M18.125 27.5156C16.7969 27.5156 15.0156 26.9688 13.8594 26.4688C13.2656 26.2031 12.5781 25.9531 11.8125 25.7344C11.0469 25.5156 10.3281 25.4062 9.67188 25.4062C7.98438 25.4062 6.98438 26.125 6.21875 27.3281L4.45312 25.5312C5.17188 24.375 6.20312 23.5469 7.5625 23.0312V22.625C5.26562 21.9219 3.42188 20.6094 2.0625 18.7031C0.6875 16.8125 0 14.4531 0 11.6406C0 8 1.3125 4.9375 3.45312 3C5.57812 1.07812 8.51562 0 11.8125 0C15.125 0 18.0625 1.07812 20.2031 3C22.3438 4.9375 23.6562 8 23.6562 11.6406C23.6562 15 22.5625 17.875 20.7031 19.7969C18.8438 21.7344 16.2969 22.9375 13.3594 23.2344V23.5781C13.4062 23.5938 13.625 23.6875 14 23.8281C14.3594 23.9688 14.5938 24.0469 14.6875 24.0781C14.7812 24.1094 14.9844 24.1875 15.2969 24.2969C15.6094 24.4062 15.8438 24.4688 16 24.5156C16.5469 24.6406 17.4062 24.7969 18.0312 24.7969C19.25 24.7969 20.2031 24.4062 20.9062 23.6406L22.125 26.0469C20.9531 27.0312 19.625 27.5156 18.125 27.5156ZM11.8125 18.6562C13.5 18.6562 14.8906 18.0156 15.9844 16.75C17.0625 15.4844 17.6094 13.7812 17.6094 11.6406C17.6094 9.5 17.0625 7.79688 15.9844 6.53125C14.8906 5.26562 13.5 4.64062 11.8125 4.64062C10.1406 4.64062 8.76562 5.26562 7.6875 6.53125C6.60938 7.79688 6.0625 9.5 6.0625 11.6406C6.0625 13.7812 6.60938 15.4844 7.6875 16.75C8.76562 18.0156 10.1406 18.6562 11.8125 18.6562Z" fill="#3E1914"/>
</svg>
