<svg width="53" height="28" viewBox="0 0 53 28" fill="none" xmlns="http://www.w3.org/2000/svg">
<path d="M51.6875 22.4688C51.2031 22.9688 50.625 23.2031 49.9531 23.2031C49.2812 23.2031 48.7031 22.9688 48.2188 22.4688C47.7344 21.9844 47.4844 21.4062 47.4844 20.7344C47.4844 20.0625 47.7344 19.4688 48.2188 18.9844C48.7031 18.5 49.2812 18.2656 49.9531 18.2656C50.625 18.2656 51.2031 18.5 51.6875 18.9844C52.1719 19.4688 52.4219 20.0625 52.4219 20.7344C52.4219 21.4062 52.1719 21.9844 51.6875 22.4688Z" fill="#3E1914"/>
<path d="M34.9062 23.2969C31.5469 23.2969 28.3594 22.7656 25.3438 21.6875V16.1875C26.4844 16.8594 27.7969 17.375 29.25 17.75C30.7031 18.1406 32.1094 18.3281 33.5 18.3281C34.75 18.3281 36.0312 18.1094 37.1719 17.6562C38.3125 17.2188 39.1094 16.4062 39.1094 15.3594C39.1094 13.7188 37.5156 12.8906 34.3125 12.8906H29.7969V9.3125H34.3125C37.4531 9.3125 38.875 8.73438 38.875 7.15625C38.875 5.5 36.1562 4.89062 33.375 4.89062C32.25 4.89062 31.0625 5.01562 29.7969 5.28125C28.5312 5.54688 27.4375 5.90625 26.5 6.35938V1.07812C28.8906 0.359375 31.6406 0 34.75 0C38.4844 0 41.4062 0.8125 43.1719 2.67188C44.0469 3.60938 44.4844 4.75 44.4844 6.10938C44.4844 7.59375 43.8906 8.79688 42.7188 9.6875C41.5312 10.5781 40.0156 11.0312 38.1719 11.0312H37.2188V11.3594H38.0469C40.125 11.3594 41.7812 11.7812 43.0156 12.625C44.25 13.4844 44.8594 14.7031 44.8594 16.2812C44.8594 18.4844 43.6094 20.375 41.6875 21.5156C39.7656 22.6562 37.3594 23.2969 34.9062 23.2969Z" fill="#3E1914"/>
<path d="M18.125 27.5156C16.7969 27.5156 15.0156 26.9688 13.8594 26.4688C13.2656 26.2031 12.5781 25.9531 11.8125 25.7344C11.0469 25.5156 10.3281 25.4062 9.67188 25.4062C7.98438 25.4062 6.98438 26.125 6.21875 27.3281L4.45312 25.5312C5.17188 24.375 6.20312 23.5469 7.5625 23.0312V22.625C5.26562 21.9219 3.42188 20.6094 2.0625 18.7031C0.6875 16.8125 0 14.4531 0 11.6406C0 8 1.3125 4.9375 3.45312 3C5.57812 1.07812 8.51562 0 11.8125 0C15.125 0 18.0625 1.07812 20.2031 3C22.3438 4.9375 23.6562 8 23.6562 11.6406C23.6562 15 22.5625 17.875 20.7031 19.7969C18.8438 21.7344 16.2969 22.9375 13.3594 23.2344V23.5781C13.4062 23.5938 13.625 23.6875 14 23.8281C14.3594 23.9688 14.5938 24.0469 14.6875 24.0781C14.7812 24.1094 14.9844 24.1875 15.2969 24.2969C15.6094 24.4062 15.8438 24.4688 16 24.5156C16.5469 24.6406 17.4062 24.7969 18.0312 24.7969C19.25 24.7969 20.2031 24.4062 20.9062 23.6406L22.125 26.0469C20.9531 27.0312 19.625 27.5156 18.125 27.5156ZM11.8125 18.6562C13.5 18.6562 14.8906 18.0156 15.9844 16.75C17.0625 15.4844 17.6094 13.7812 17.6094 11.6406C17.6094 9.5 17.0625 7.79688 15.9844 6.53125C14.8906 5.26562 13.5 4.64062 11.8125 4.64062C10.1406 4.64062 8.76562 5.26562 7.6875 6.53125C6.60938 7.79688 6.0625 9.5 6.0625 11.6406C6.0625 13.7812 6.60938 15.4844 7.6875 16.75C8.76562 18.0156 10.1406 18.6562 11.8125 18.6562Z" fill="#3E1914"/>
</svg>
