<svg width="55" height="28" viewBox="0 0 55 28" fill="none" xmlns="http://www.w3.org/2000/svg">
<path d="M54.1562 22.4688C53.6719 22.9688 53.0938 23.2031 52.4219 23.2031C51.75 23.2031 51.1719 22.9688 50.6875 22.4688C50.2031 21.9844 49.9531 21.4062 49.9531 20.7344C49.9531 20.0625 50.2031 19.4688 50.6875 18.9844C51.1719 18.5 51.75 18.2656 52.4219 18.2656C53.0938 18.2656 53.6719 18.5 54.1562 18.9844C54.6406 19.4688 54.8906 20.0625 54.8906 20.7344C54.8906 21.4062 54.6406 21.9844 54.1562 22.4688Z" fill="#3E1914"/>
<path d="M45.3125 22.8438H38.2656C38.4688 22 38.6094 20.5156 38.6875 18.3906H25.5938L25.4375 16.0312L35.75 1.04688L38.6562 3.23438C38.5 1.84375 38.375 0.921875 38.2656 0.4375H45.3125C45.1406 1.23438 44.9844 2.28125 44.875 3.54688C44.7656 4.82812 44.7031 6.04688 44.7031 7.20312V15.2031H47.4844V18.3906H44.8594C44.9375 20.4375 45.0938 21.9219 45.3125 22.8438ZM38.8438 7.125L33.1875 15.2031H38.8438V7.125Z" fill="#3E1914"/>
<path d="M18.125 27.5156C16.7969 27.5156 15.0156 26.9688 13.8594 26.4688C13.2656 26.2031 12.5781 25.9531 11.8125 25.7344C11.0469 25.5156 10.3281 25.4062 9.67188 25.4062C7.98438 25.4062 6.98438 26.125 6.21875 27.3281L4.45312 25.5312C5.17188 24.375 6.20312 23.5469 7.5625 23.0312V22.625C5.26562 21.9219 3.42188 20.6094 2.0625 18.7031C0.6875 16.8125 0 14.4531 0 11.6406C0 8 1.3125 4.9375 3.45312 3C5.57812 1.07812 8.51562 0 11.8125 0C15.125 0 18.0625 1.07812 20.2031 3C22.3438 4.9375 23.6562 8 23.6562 11.6406C23.6562 15 22.5625 17.875 20.7031 19.7969C18.8438 21.7344 16.2969 22.9375 13.3594 23.2344V23.5781C13.4062 23.5938 13.625 23.6875 14 23.8281C14.3594 23.9688 14.5938 24.0469 14.6875 24.0781C14.7812 24.1094 14.9844 24.1875 15.2969 24.2969C15.6094 24.4062 15.8438 24.4688 16 24.5156C16.5469 24.6406 17.4062 24.7969 18.0312 24.7969C19.25 24.7969 20.2031 24.4062 20.9062 23.6406L22.125 26.0469C20.9531 27.0312 19.625 27.5156 18.125 27.5156ZM11.8125 18.6562C13.5 18.6562 14.8906 18.0156 15.9844 16.75C17.0625 15.4844 17.6094 13.7812 17.6094 11.6406C17.6094 9.5 17.0625 7.79688 15.9844 6.53125C14.8906 5.26562 13.5 4.64062 11.8125 4.64062C10.1406 4.64062 8.76562 5.26562 7.6875 6.53125C6.60938 7.79688 6.0625 9.5 6.0625 11.6406C6.0625 13.7812 6.60938 15.4844 7.6875 16.75C8.76562 18.0156 10.1406 18.6562 11.8125 18.6562Z" fill="#3E1914"/>
</svg>
