<svg width="53" height="28" viewBox="0 0 53 28" fill="none" xmlns="http://www.w3.org/2000/svg">
<path d="M51.7188 22.4688C51.2344 22.9688 50.6562 23.2031 49.9844 23.2031C49.3125 23.2031 48.7344 22.9688 48.25 22.4688C47.7656 21.9844 47.5156 21.4062 47.5156 20.7344C47.5156 20.0625 47.7656 19.4688 48.25 18.9844C48.7344 18.5 49.3125 18.2656 49.9844 18.2656C50.6562 18.2656 51.2344 18.5 51.7188 18.9844C52.2031 19.4688 52.4531 20.0625 52.4531 20.7344C52.4531 21.4062 52.2031 21.9844 51.7188 22.4688Z" fill="#3E1914"/>
<path d="M34.625 23.2969C33.0156 23.2969 31.4688 23.1094 29.9531 22.7344C28.4375 22.3594 27.1406 21.8906 26.0469 21.3438V15.7969C27.0781 16.5 28.3594 17.0938 29.9062 17.5781C31.4531 18.0781 33 18.3281 34.5625 18.3281C36.0469 18.3281 37.2031 17.9688 38 17.25C38.7969 16.5312 39.2031 15.6406 39.2031 14.5938C39.2031 13.5156 38.7969 12.6562 38 12C37.2031 11.3594 36.125 11.0312 34.7812 11.0312C32.9844 11.0312 31.5938 11.5469 29.9844 12.6094L26.5 11.125L26.5312 0.4375H43.3281L43.4531 6.04688C42.5156 5.57812 41.2188 5.34375 39.5781 5.34375H30.6562V9.98438L30.875 10.1719C32.5469 8.73438 34.6875 7.79688 36.5781 7.79688C40.9375 7.79688 44.7969 10.0469 44.7969 14.8125C44.7969 17.5156 43.8906 19.5938 42.0781 21.0781C40.25 22.5625 37.7656 23.2969 34.625 23.2969Z" fill="#3E1914"/>
<path d="M18.125 27.5156C16.7969 27.5156 15.0156 26.9688 13.8594 26.4688C13.2656 26.2031 12.5781 25.9531 11.8125 25.7344C11.0469 25.5156 10.3281 25.4062 9.67188 25.4062C7.98438 25.4062 6.98438 26.125 6.21875 27.3281L4.45312 25.5312C5.17188 24.375 6.20312 23.5469 7.5625 23.0312V22.625C5.26562 21.9219 3.42188 20.6094 2.0625 18.7031C0.6875 16.8125 0 14.4531 0 11.6406C0 8 1.3125 4.9375 3.45312 3C5.57812 1.07812 8.51562 0 11.8125 0C15.125 0 18.0625 1.07812 20.2031 3C22.3438 4.9375 23.6562 8 23.6562 11.6406C23.6562 15 22.5625 17.875 20.7031 19.7969C18.8438 21.7344 16.2969 22.9375 13.3594 23.2344V23.5781C13.4062 23.5938 13.625 23.6875 14 23.8281C14.3594 23.9688 14.5938 24.0469 14.6875 24.0781C14.7812 24.1094 14.9844 24.1875 15.2969 24.2969C15.6094 24.4062 15.8438 24.4688 16 24.5156C16.5469 24.6406 17.4062 24.7969 18.0312 24.7969C19.25 24.7969 20.2031 24.4062 20.9062 23.6406L22.125 26.0469C20.9531 27.0312 19.625 27.5156 18.125 27.5156ZM11.8125 18.6562C13.5 18.6562 14.8906 18.0156 15.9844 16.75C17.0625 15.4844 17.6094 13.7812 17.6094 11.6406C17.6094 9.5 17.0625 7.79688 15.9844 6.53125C14.8906 5.26562 13.5 4.64062 11.8125 4.64062C10.1406 4.64062 8.76562 5.26562 7.6875 6.53125C6.60938 7.79688 6.0625 9.5 6.0625 11.6406C6.0625 13.7812 6.60938 15.4844 7.6875 16.75C8.76562 18.0156 10.1406 18.6562 11.8125 18.6562Z" fill="#3E1914"/>
</svg>
