<svg width="54" height="28" viewBox="0 0 54 28" fill="none" xmlns="http://www.w3.org/2000/svg">
<path d="M52.3438 22.4688C51.8594 22.9688 51.2812 23.2031 50.6094 23.2031C49.9375 23.2031 49.3594 22.9688 48.875 22.4688C48.3906 21.9844 48.1406 21.4062 48.1406 20.7344C48.1406 20.0625 48.3906 19.4688 48.875 18.9844C49.3594 18.5 49.9375 18.2656 50.6094 18.2656C51.2812 18.2656 51.8594 18.5 52.3438 18.9844C52.8281 19.4688 53.0781 20.0625 53.0781 20.7344C53.0781 21.4062 52.8281 21.9844 52.3438 22.4688Z" fill="#3E1914"/>
<path d="M36.0312 23.2969C32.75 23.2969 30.2188 22.3281 28.4531 20.3906C26.6875 18.4688 25.7969 15.7656 25.7969 12.3125C25.7969 8.8125 26.8438 5.75 28.75 3.54688C30.6562 1.34375 33.6562 0 37.2812 0C39.4844 0 41.5938 0.34375 43.5781 1.04688L44.125 6.84375C43.5625 6.25 42.6875 5.76562 41.4844 5.375C40.2812 4.98438 39.1875 4.79688 38.2344 4.79688C36.2969 4.79688 34.6562 5.5 33.3281 6.92188C31.9844 8.34375 31.3125 10.0938 31.3281 12.1875H31.6562C32.2344 11.2031 33.0625 10.3906 34.1562 9.75C35.2344 9.10938 36.4219 8.79688 37.7031 8.79688C40.0625 8.79688 41.9531 9.39062 43.4062 10.5938C44.8438 11.7969 45.5625 13.375 45.5625 15.3594C45.5625 16.9375 45.125 18.3281 44.25 19.5469C43.375 20.7812 42.2188 21.7031 40.7812 22.3438C39.3438 22.9844 37.7656 23.2969 36.0312 23.2969ZM35.8125 18.625C37.0312 18.625 38.0469 18.2969 38.8594 17.625C39.6562 16.9531 40.0625 16.1562 40.0625 15.2344C40.0625 14.2812 39.6719 13.5 38.8906 12.8594C38.0938 12.2188 37.0469 11.9062 35.75 11.9062C34.5625 11.9062 33.5625 12.2344 32.75 12.875C31.9219 13.5312 31.5156 14.3125 31.5156 15.2031C31.5156 16.1406 31.9375 16.9375 32.7656 17.6094C33.5938 18.2812 34.6094 18.625 35.8125 18.625Z" fill="#3E1914"/>
<path d="M18.125 27.5156C16.7969 27.5156 15.0156 26.9688 13.8594 26.4688C13.2656 26.2031 12.5781 25.9531 11.8125 25.7344C11.0469 25.5156 10.3281 25.4062 9.67188 25.4062C7.98438 25.4062 6.98438 26.125 6.21875 27.3281L4.45312 25.5312C5.17188 24.375 6.20312 23.5469 7.5625 23.0312V22.625C5.26562 21.9219 3.42188 20.6094 2.0625 18.7031C0.6875 16.8125 0 14.4531 0 11.6406C0 8 1.3125 4.9375 3.45312 3C5.57812 1.07812 8.51562 0 11.8125 0C15.125 0 18.0625 1.07812 20.2031 3C22.3438 4.9375 23.6562 8 23.6562 11.6406C23.6562 15 22.5625 17.875 20.7031 19.7969C18.8438 21.7344 16.2969 22.9375 13.3594 23.2344V23.5781C13.4062 23.5938 13.625 23.6875 14 23.8281C14.3594 23.9688 14.5938 24.0469 14.6875 24.0781C14.7812 24.1094 14.9844 24.1875 15.2969 24.2969C15.6094 24.4062 15.8438 24.4688 16 24.5156C16.5469 24.6406 17.4062 24.7969 18.0312 24.7969C19.25 24.7969 20.2031 24.4062 20.9062 23.6406L22.125 26.0469C20.9531 27.0312 19.625 27.5156 18.125 27.5156ZM11.8125 18.6562C13.5 18.6562 14.8906 18.0156 15.9844 16.75C17.0625 15.4844 17.6094 13.7812 17.6094 11.6406C17.6094 9.5 17.0625 7.79688 15.9844 6.53125C14.8906 5.26562 13.5 4.64062 11.8125 4.64062C10.1406 4.64062 8.76562 5.26562 7.6875 6.53125C6.60938 7.79688 6.0625 9.5 6.0625 11.6406C6.0625 13.7812 6.60938 15.4844 7.6875 16.75C8.76562 18.0156 10.1406 18.6562 11.8125 18.6562Z" fill="#3E1914"/>
</svg>
