<svg width="276" height="397" viewBox="0 0 276 397" fill="none" xmlns="http://www.w3.org/2000/svg">
<g filter="url(#filter0_d_63_9110)">
<path d="M132 4C204.902 4 264.001 63.0984 264.001 136H263.685V392.879H0V135.842H0.000976562C0.0865261 63.0131 59.1512 4.00025 132 4Z" fill="url(#paint0_linear_63_9110)"/>
<g filter="url(#filter1_d_63_9110)">
<path d="M98.4637 131.41C114.295 131.41 127.129 114.793 127.129 94.2952C127.129 73.7971 114.295 57.1801 98.4637 57.1801C82.6324 57.1801 69.7986 73.7971 69.7986 94.2952C69.7986 114.793 82.6324 131.41 98.4637 131.41Z" fill="white"/>
<path d="M86.942 107.383C92.7573 107.383 97.4716 101.524 97.4716 94.2953C97.4716 87.0669 92.7573 81.2072 86.942 81.2072C81.1266 81.2072 76.4124 87.0669 76.4124 94.2953C76.4124 101.524 81.1266 107.383 86.942 107.383Z" fill="#211815"/>
<path d="M164.112 131.41C179.944 131.41 192.777 114.793 192.777 94.2952C192.777 73.7971 179.944 57.1801 164.112 57.1801C148.281 57.1801 135.447 73.7971 135.447 94.2952C135.447 114.793 148.281 131.41 164.112 131.41Z" fill="white"/>
<path d="M152.591 107.383C158.407 107.383 163.121 101.524 163.121 94.2953C163.121 87.0669 158.407 81.2072 152.591 81.2072C146.776 81.2072 142.062 87.0669 142.062 94.2953C142.062 101.524 146.776 107.383 152.591 107.383Z" fill="#211815"/>
</g>
<rect x="98.6042" y="169.08" width="72.0146" height="9.97124" rx="2" fill="black"/>
</g>
<defs>
<filter id="filter0_d_63_9110" x="0" y="0" width="276.001" height="396.879" filterUnits="userSpaceOnUse" color-interpolation-filters="sRGB">
<feFlood flood-opacity="0" result="BackgroundImageFix"/>
<feColorMatrix in="SourceAlpha" type="matrix" values="0 0 0 0 0 0 0 0 0 0 0 0 0 0 0 0 0 0 127 0" result="hardAlpha"/>
<feOffset dx="8"/>
<feGaussianBlur stdDeviation="2"/>
<feComposite in2="hardAlpha" operator="out"/>
<feColorMatrix type="matrix" values="0 0 0 0 0 0 0 0 0 0 0 0 0 0 0 0 0 0 0.25 0"/>
<feBlend mode="normal" in2="BackgroundImageFix" result="effect1_dropShadow_63_9110"/>
<feBlend mode="normal" in="SourceGraphic" in2="effect1_dropShadow_63_9110" result="shape"/>
</filter>
<filter id="filter1_d_63_9110" x="65.7986" y="57.1801" width="130.979" height="82.2303" filterUnits="userSpaceOnUse" color-interpolation-filters="sRGB">
<feFlood flood-opacity="0" result="BackgroundImageFix"/>
<feColorMatrix in="SourceAlpha" type="matrix" values="0 0 0 0 0 0 0 0 0 0 0 0 0 0 0 0 0 0 127 0" result="hardAlpha"/>
<feOffset dy="4"/>
<feGaussianBlur stdDeviation="2"/>
<feComposite in2="hardAlpha" operator="out"/>
<feColorMatrix type="matrix" values="0 0 0 0 0 0 0 0 0 0 0 0 0 0 0 0 0 0 0.25 0"/>
<feBlend mode="normal" in2="BackgroundImageFix" result="effect1_dropShadow_63_9110"/>
<feBlend mode="normal" in="SourceGraphic" in2="effect1_dropShadow_63_9110" result="shape"/>
</filter>
<linearGradient id="paint0_linear_63_9110" x1="311.878" y1="129.195" x2="38.7767" y2="392.879" gradientUnits="userSpaceOnUse">
<stop offset="0.00961538" stop-color="#B4ADAD"/>
<stop offset="0.336538" stop-color="#D9D9D9"/>
<stop offset="1" stop-color="#737373"/>
</linearGradient>
</defs>
</svg>
