<svg width="495" height="62" viewBox="0 0 495 62" fill="none" xmlns="http://www.w3.org/2000/svg">
<path d="M477.219 47.8125C474.781 47.8125 471.844 47.5312 468.406 46.9375C464.969 46.3125 462.25 45.625 460.25 44.8438V35.1875C462.438 36.2812 465.094 37.2188 468.25 38C471.375 38.7812 474.094 39.1562 476.438 39.1562C481.344 39.1562 483.812 38.1562 483.812 36.1562C483.812 33.375 478.062 33.375 472.312 32.5312C466.531 31.6875 460.781 30 460.781 23.875C460.781 21.0312 462.188 18.6875 465.031 16.8125C467.875 14.9375 471.812 14 476.906 14C481.875 14 486.625 14.9062 491.156 16.75V25.5938C489.625 24.8125 487.656 24.0938 485.188 23.4375C482.719 22.7812 480.219 22.4688 477.719 22.4688C473.594 22.4688 471.062 23.5938 471.062 25.3438C471.062 30.4688 494.125 25.3438 494.125 37.375C494.125 40.5938 492.625 43.125 489.656 45C486.688 46.875 482.531 47.8125 477.219 47.8125Z" fill="#3E1914"/>
<path d="M448.344 11.4375C446.438 11.4375 444.906 10.9062 443.75 9.8125C442.594 8.71875 442 7.375 442 5.75C442 4.09375 442.594 2.71875 443.75 1.625C444.906 0.53125 446.438 0 448.344 0C450.312 0 451.844 0.53125 453 1.625C454.156 2.71875 454.719 4.09375 454.719 5.75C454.719 7.40625 454.156 8.75 453 9.8125C451.844 10.9062 450.312 11.4375 448.344 11.4375ZM455.438 46.9062H441.344C442.156 43.7812 442.562 39.3125 442.562 33.4688V21.4375C442.562 18.4062 442.406 16.2188 442.125 14.9062C443.688 15.875 445.812 16.3438 448.531 16.3438C451.25 16.3438 453.281 15.875 454.656 14.9062C454.375 16.5625 454.219 18.7188 454.219 21.4375V33.4688C454.219 39.3125 454.625 43.7812 455.438 46.9062Z" fill="#3E1914"/>
<path d="M418 46.9062H404.062C404.844 43.5 405.219 39 405.219 33.4688V15.5312C405.219 10 404.844 5.5 404.062 2.09375H418C417.188 5.6875 416.781 10.1875 416.781 15.5312V33.4688C416.781 38.8125 417.188 43.3125 418 46.9062Z" fill="#3E1914"/>
<path d="M381.375 47.8125C374.969 47.8125 369.875 46.25 366.031 43.125C362.188 40 360.281 35.9375 360.281 30.9062C360.281 26.1875 362.125 22 365.469 18.9375C368.812 15.875 374.062 14 380.312 14C386.438 14 391.25 15.3438 394.031 17.5C396.781 19.6562 398.156 22.375 398.156 25.4062C398.156 31.5625 393.5 34.375 384.469 34.375C378.875 34.375 374.375 33.1875 370.969 30.8438L370.5 31.0938C370.656 36.1562 377.094 40.3125 384.281 40.1875C386.906 40.1875 389.438 39.8125 391.844 39.0312C394.25 38.2812 396.031 37.2812 397.188 36.0312L397.375 44.7188C395.781 45.625 393.469 46.3438 390.406 46.9375C387.344 47.5312 384.344 47.8125 381.375 47.8125ZM380.188 30.2812C383.781 30.2812 387.469 28.9375 387.469 26.0938C387.469 24.6875 386.75 23.5312 385.281 22.625C383.812 21.75 381.938 21.3125 379.594 21.3125C377.438 21.3125 375.531 21.875 373.875 23C372.219 24.1562 371.219 25.75 370.844 27.7812C373.188 29.4375 376.281 30.2812 380.188 30.2812Z" fill="#3E1914"/>
<path d="M326.25 46.9062H312.312C313.094 43.5 313.469 39.9062 313.469 36.1562V26.8125C313.469 22.2812 313.094 18.3125 312.312 14.9062H326.438C325.5 16.6875 325.031 18.9688 325.031 21.6875V22.9688H325.75C328.062 17 332.438 14 338.875 14C343.469 14 347 15.2812 349.531 17.8438C352.031 20.4062 353.281 23.9375 353.281 28.4688V34.375C353.281 39.4062 353.656 43.5625 354.406 46.9062H340.469C341.281 43.3125 341.688 39.5 341.688 35.5V30.4688C341.688 25.3125 338.781 22.125 333.812 22.125C331.281 22.125 329.188 23 327.531 24.75C325.875 26.5312 325.031 28.5625 325.031 30.9062V35.6562C325.031 37.5 325.125 39.5625 325.344 41.8438C325.562 44.125 325.844 45.8125 326.25 46.9062Z" fill="#3E1914"/>
<path d="M276.625 46.9062H262.688C263.469 43.5 263.844 39.9062 263.844 36.1562V26.8125C263.844 22.2812 263.469 18.3125 262.688 14.9062H276.812C275.875 16.6875 275.406 18.9688 275.406 21.6875V22.9688H276.125C278.438 17 282.812 14 289.25 14C293.844 14 297.375 15.2812 299.906 17.8438C302.406 20.4062 303.656 23.9375 303.656 28.4688V34.375C303.656 39.4062 304.031 43.5625 304.781 46.9062H290.844C291.656 43.3125 292.062 39.5 292.062 35.5V30.4688C292.062 25.3125 289.156 22.125 284.188 22.125C281.656 22.125 279.562 23 277.906 24.75C276.25 26.5312 275.406 28.5625 275.406 30.9062V35.6562C275.406 37.5 275.5 39.5625 275.719 41.8438C275.938 44.125 276.219 45.8125 276.625 46.9062Z" fill="#3E1914"/>
<path d="M230.781 47.8125C226.625 47.8125 223.375 46.7812 221.031 44.6875C218.688 42.625 217.531 40 217.531 36.8438C217.531 33.6875 218.688 31.0625 221.031 29.0312C223.375 27 226.625 25.9688 230.781 25.9688C233.875 25.9688 236.438 26.5625 238.531 27.7188C240.625 28.875 242.062 30.375 242.875 32.1875H243.688V28.5312C243.688 25.875 242.75 23.9062 240.906 22.5625C239.031 21.25 236.531 20.5938 233.406 20.5938C230.938 20.5938 228.562 20.9062 226.312 21.5312C224.062 22.1562 222.406 22.9062 221.375 23.75V16.25C222.812 15.7188 225 15.2188 227.938 14.7188C230.844 14.25 233.5 14 235.875 14C239.906 14 243.25 14.375 246.562 15.5C248.219 16.0938 249.625 16.8125 250.781 17.7188C253.094 19.5312 254.625 22.5312 254.625 26.3125V34.1562C254.625 37.625 254.719 40.3125 254.906 42.1562C255.062 44 255.406 45.5938 255.906 46.9062H242.812C243.406 45.7812 243.688 44.1875 243.688 42.0938V41.5312H243C241.375 45.3125 237.125 47.8125 230.781 47.8125ZM235.812 41.5312C240.594 41.5312 243.562 39.6562 243.562 36.6562C243.562 35.4062 242.844 34.2812 241.406 33.3125C239.969 32.3438 238.094 31.875 235.812 31.875C231.219 31.875 228.469 33.8125 228.469 36.6562C228.469 39.5312 231.219 41.5312 235.812 41.5312Z" fill="#3E1914"/>
<path d="M183.562 46.9062H169.562C170.344 43.75 170.719 39.2812 170.719 33.4688V15.5312C170.719 9.71875 170.344 5.25 169.562 2.09375H183.562C182.75 5.40625 182.344 9.875 182.344 15.5312V22.9688H183.062C185.312 17 189.656 14 196.125 14C200.719 14 204.281 15.2812 206.781 17.8438C209.281 20.4062 210.531 23.9375 210.531 28.4688V34.375C210.531 39.4062 210.906 43.5625 211.656 46.9062H197.719C198.531 43.3125 198.938 39.5 198.938 35.5V30.4688C198.938 25.3125 196.031 22.125 191.125 22.125C188.594 22.125 186.469 23 184.812 24.75C183.125 26.5 182.281 28.5625 182.281 30.9062L182.344 35.6562C182.344 37.5938 182.438 39.6875 182.625 41.9062C182.812 44.1562 183.125 45.8125 183.562 46.9062Z" fill="#3E1914"/>
<path d="M150.531 47.8125C143.375 47.8125 137.688 45.9688 134.312 42.8438C130.906 39.75 129.156 35.6562 129.156 30.9062C129.156 26.1562 130.938 22.0625 134.375 18.9375C137.812 15.8438 143.5 14 150.656 14C152.375 14 154.5 14.1875 157.031 14.5938C159.562 15 161.469 15.4688 162.75 16.0625L162.219 24.6875C161.125 23.9688 159.656 23.3438 157.781 22.8125C155.906 22.3125 154.031 22.0625 152.125 22.0625C148.531 22.0625 145.625 22.8438 143.438 24.4375C141.25 26.0312 140.156 28.1875 140.156 30.9062C140.156 33.625 141.281 35.8125 143.562 37.4062C145.812 39 148.906 39.8125 152.812 39.8125C154.719 39.8125 156.688 39.5312 158.75 38.9375C160.781 38.375 162.531 37.625 163.969 36.7188V45.75C162.562 46.3125 160.5 46.7812 157.812 47.2188C155.125 47.625 152.688 47.8125 150.531 47.8125Z" fill="#3E1914"/>
<path d="M84.7188 61.5625C81.1562 61.5625 77.6562 61.3125 74.1875 60.8125C70.7188 60.3125 67.7812 59.5938 65.4375 58.6875V48.8125C67.3438 50.4375 69.875 51.7188 73.0625 52.6562C76.25 53.5938 79.4375 54.0625 82.6562 54.0625C86.8125 54.0625 90.125 53.2188 92.5938 51.5C95.0625 49.7812 96.2812 47.25 96.2812 43.9062C96.2812 42.0625 95.625 40.3438 94.3125 38.7188H93.6875C91.5312 44.4688 86.9062 47.8125 80.2812 47.8125C75.6875 47.8125 72.125 46.5312 69.6562 44C67.1562 41.4688 65.9062 37.9375 65.9062 33.4062V27.4375C65.9062 22.5625 65.5312 18.375 64.75 14.9062H78.6875C77.875 18.2812 77.4688 22.0938 77.4688 26.3125V31.4062C77.4688 36.5625 80.3438 39.6875 85.3438 39.6875C87.8438 39.6875 89.9375 38.8125 91.5938 37.0312C93.25 35.2812 94.0625 33.25 94.0625 30.9062V26.1562C94.0625 24.25 93.9688 22.1875 93.7812 19.9062C93.5938 17.6562 93.3125 16 92.9062 14.9062H106.844C106.438 16.8125 106.125 18.5 105.938 19.9688C105.75 21.4688 105.656 23.375 105.656 25.6562V39.3438C106.844 41.3125 107.438 43.3438 107.438 45.4375C107.438 56.3438 96.75 61.5938 84.7188 61.5625Z" fill="#3E1914"/>
<path d="M14.0625 46.9062H0C0.8125 43.5938 1.21875 39.125 1.21875 33.4688V15.5312C1.21875 9.875 0.8125 5.40625 0 2.09375H16.0625L24.625 22.125C26.3125 26.2188 27.5625 29.5312 28.4062 32.125H29C29.4688 30.5312 29.8438 29.3125 30.375 27.8125C30.6562 27.0938 30.875 26.5 31.0312 26.0938C31.1875 25.6875 31.4375 25.0312 31.8438 24.0625C32.2188 23.125 32.4688 22.4688 32.625 22.0625L41.2812 2.09375H57.0938C56.2812 5.15625 55.875 9.625 55.875 15.5312V33.4688C55.875 39.375 56.2812 43.8438 57.0938 46.9062H43C43.7812 43.5 44.1562 39 44.1562 33.4688V17.2188H43.5312L30.2812 46.9062H26.625L13.4375 17.2188H12.9375V33.4688C12.9375 39.0938 13.3125 43.5625 14.0625 46.9062Z" fill="#3E1914"/>
</svg>
