<svg width="834" height="417" viewBox="0 0 834 417" fill="none" xmlns="http://www.w3.org/2000/svg">
<path d="M417 0C186.697 0 0 186.697 0 417H834C834 186.697 647.303 0 417 0Z" fill="#DCDD9B"/>
<path d="M707.466 397H681.04C682.505 390.379 683.208 383.816 683.208 377.312V366.531L664.399 338.172C657.72 327.215 651.86 318.836 646.763 312.977H675.063C677.876 319.832 680.571 325.574 683.208 330.262L693.521 345.262H694.751L705.181 330.145C707.642 325.984 710.337 320.242 713.325 312.977H741.685C736.177 319.48 730.259 327.918 723.989 338.172L705.298 366.531V377.43C705.298 383.875 706.001 390.379 707.466 397Z" fill="#BA1B06"/>
<path d="M644.414 397H572.871C574.395 390.789 575.156 382.41 575.156 371.805V338.172C575.156 327.566 574.395 319.188 572.871 312.977H641.016L644.531 337.352C643.184 336.355 641.133 335.594 638.496 335.184C635.859 334.773 631.934 334.598 626.719 334.598H597.129V348.895H621.68C627.129 348.895 631.699 348.719 635.273 348.309V362.547C632.578 362.137 628.066 361.961 621.68 361.961H597.129V375.379H625.078C632.109 375.379 637.207 375.086 640.43 374.441C643.652 373.855 646.055 373.035 647.754 371.922L644.414 397Z" fill="#BA1B06"/>
<path d="M555.64 398.699C538.589 398.699 537.065 385.633 534.78 374.09C532.964 364.773 529.976 356.453 518.198 356.453C516.733 356.453 515.034 356.57 513.101 356.863C511.167 357.156 509.761 357.508 508.882 357.859V371.805C508.882 382.352 509.585 390.73 510.991 397H484.624C486.147 391.258 486.909 382.879 486.909 371.805V338.172C486.909 327.098 486.147 318.719 484.624 312.977H510.991C509.585 319.715 508.882 327.684 508.882 336.766V346.023H519.194C531.089 346.023 538.354 339.52 538.354 327.859C538.354 322.352 536.831 317.371 533.726 312.977H558.511C559.8 315.32 560.737 317.664 561.323 319.949C561.851 322.234 562.144 325.105 562.144 328.504C562.144 339.051 558.218 345.027 549.956 347.781C544.272 349.715 537.71 350.418 528.042 350.418H522.534V351.766H524.819C530.62 351.766 535.425 353.289 538.53 355.574C541.577 357.859 544.214 360.672 546.323 363.426C549.312 367.469 552.3 370.984 557.222 370.984C560.269 370.984 562.554 370.34 564.136 369.109C565.718 367.879 567.124 365.828 568.354 363.016L568.882 391.492C567.827 393.484 566.069 395.184 563.55 396.59C561.03 397.996 558.394 398.699 555.64 398.699Z" fill="#BA1B06"/>
<path d="M442.369 398.816C427.134 398.816 423.97 387.449 420.103 377.43C416.939 369.285 412.896 362.078 401.47 362.078C397.076 362.078 394.439 362.313 393.56 362.781V371.805C393.56 382.586 394.263 390.965 395.728 397H369.419C370.767 390.848 371.47 382.41 371.47 371.805V338.172C371.47 327.449 370.767 319.012 369.419 312.977H417.173C434.458 312.742 448.228 320.887 448.169 334.481C448.345 347.898 434.81 357.039 417.759 356.805H416.236V357.508H416.47C421.333 357.508 425.435 359.266 427.837 361.551C429.068 362.723 430.24 364.012 431.47 365.359C434.751 369.285 437.154 373.211 442.017 373.211C448.58 373.211 452.212 369.578 454.732 363.543L455.552 392.078C454.38 394.012 452.564 395.652 450.162 396.883C447.701 398.172 445.123 398.816 442.369 398.816ZM393.56 333.895V351.531H412.369C420.513 351.531 425.845 348.074 425.845 342.625C425.845 340.106 424.673 337.996 422.33 336.356C419.986 334.715 416.998 333.895 413.365 333.895H393.56Z" fill="#BA1B06"/>
<path d="M316.973 398.699C305.489 398.699 295.88 395.77 288.731 389.91C281.583 384.109 277.364 374.676 277.364 362.547V338.172C277.364 327.098 276.602 318.719 275.079 312.977H301.446C300.098 318.895 299.454 327.273 299.454 338.172V356.805C299.454 362.957 301.036 367.82 304.141 371.395C307.247 374.969 311.524 376.727 317.091 376.727C322.716 376.727 327.11 374.969 330.274 371.395C333.38 367.82 334.962 362.957 334.962 356.805V338.172C334.962 327.801 334.259 319.363 332.794 312.977H359.219C357.696 319.188 356.934 327.566 356.934 338.172V362.547C356.934 374.09 353.419 382.996 346.446 389.266C339.415 395.535 329.571 398.699 316.973 398.699Z" fill="#BA1B06"/>
<path d="M224.566 398.699C200.016 398.758 180.211 383.055 180.269 354.988C180.269 341.336 185.191 329.852 193.219 322.586C201.187 315.379 212.203 311.336 224.566 311.336C236.988 311.336 248.004 315.379 256.031 322.586C264.058 329.852 268.98 341.336 268.98 354.988C268.98 368.758 264.058 380.184 256.031 387.449C248.004 394.715 236.988 398.699 224.566 398.699ZM224.566 381.297C230.894 381.297 236.109 378.895 240.211 374.148C244.254 369.402 246.305 363.016 246.305 354.988C246.305 346.961 244.254 340.574 240.211 335.828C236.109 331.082 230.894 328.738 224.566 328.738C218.297 328.738 213.141 331.082 209.098 335.828C205.055 340.574 203.004 346.961 203.004 354.988C203.004 363.016 205.055 369.402 209.098 374.148C213.141 378.895 218.297 381.297 224.566 381.297Z" fill="#BA1B06"/>
<path d="M152.902 397H126.476C127.941 390.379 128.644 383.816 128.644 377.312V366.531L109.835 338.172C103.156 327.215 97.2961 318.836 92.1985 312.977H120.499C123.312 319.832 126.007 325.574 128.644 330.262L138.956 345.262H140.187L150.616 330.145C153.077 325.984 155.773 320.242 158.761 312.977H187.12C181.613 319.48 175.695 327.918 169.425 338.172L150.734 366.531V377.43C150.734 383.875 151.437 390.379 152.902 397Z" fill="#BA1B06"/>
<path d="M503.604 297H477.237C478.643 290.73 479.346 282.352 479.346 271.805V234.949H465.811C460.245 234.949 455.323 236.004 451.045 238.055L454.795 212.977H525.342L529.034 238.055C524.874 236.004 520.01 234.949 514.385 234.949H501.319V271.805C501.319 282.879 502.081 291.258 503.604 297Z" fill="#BA1B06"/>
<path d="M444.771 297H373.228C374.751 290.789 375.513 282.41 375.513 271.805V238.172C375.513 227.566 374.751 219.188 373.228 212.977H441.373L444.888 237.352C443.541 236.355 441.49 235.594 438.853 235.184C436.216 234.773 432.291 234.598 427.076 234.598H397.486V248.895H422.037C427.486 248.895 432.056 248.719 435.63 248.309V262.547C432.935 262.137 428.423 261.961 422.037 261.961H397.486V275.379H425.435C432.466 275.379 437.564 275.086 440.787 274.441C444.009 273.855 446.412 273.035 448.111 271.922L444.771 297Z" fill="#BA1B06"/>
<path d="M325.938 298.699C316.973 298.699 309.005 296.941 301.973 293.426C294.942 289.91 289.434 284.812 285.391 278.191C281.348 271.57 279.356 263.953 279.356 255.34C279.356 246.727 281.466 238.992 285.626 232.254C289.786 225.516 295.469 220.359 302.618 216.727C309.766 213.152 317.794 211.336 326.641 211.336C338.536 211.336 348.614 213.27 356.876 217.078L356.524 238.816C353.887 236.824 350.255 235.301 345.626 234.188C340.997 233.074 336.427 232.547 331.798 232.547C322.54 232.547 315.157 234.656 309.591 238.875C304.024 243.094 301.212 248.66 301.212 255.574C301.212 262.02 303.555 267.176 308.302 271.102C313.048 275.027 319.259 276.961 327.052 276.961C334.317 276.961 339.942 275.379 343.927 272.156L343.809 261.844H333.497C329.571 261.844 326.29 262.137 323.653 262.664L324.122 249.129H365.665V286.219C360.86 290.145 354.942 293.25 347.852 295.418C340.762 297.586 333.497 298.699 325.938 298.699Z" fill="#BA1B06"/>
</svg>
