<svg width="511" height="60" viewBox="0 0 511 60" fill="none" xmlns="http://www.w3.org/2000/svg">
<path d="M493.406 45.7188C487 45.7188 481.906 44.1562 478.062 41.0312C474.219 37.9062 472.312 33.8438 472.312 28.8125C472.312 24.0938 474.156 19.9062 477.5 16.8438C480.844 13.7812 486.094 11.9062 492.344 11.9062C498.469 11.9062 503.281 13.25 506.062 15.4062C508.812 17.5625 510.188 20.2812 510.188 23.3125C510.188 29.4688 505.531 32.2812 496.5 32.2812C490.906 32.2812 486.406 31.0938 483 28.75L482.531 29C482.688 34.0625 489.125 38.2188 496.312 38.0938C498.938 38.0938 501.469 37.7188 503.875 36.9375C506.281 36.1875 508.062 35.1875 509.219 33.9375L509.406 42.625C507.812 43.5312 505.5 44.25 502.438 44.8438C499.375 45.4375 496.375 45.7188 493.406 45.7188ZM492.219 28.1875C495.812 28.1875 499.5 26.8438 499.5 24C499.5 22.5938 498.781 21.4375 497.312 20.5312C495.844 19.6562 493.969 19.2188 491.625 19.2188C489.469 19.2188 487.562 19.7812 485.906 20.9062C484.25 22.0625 483.25 23.6562 482.875 25.6875C485.219 27.3438 488.312 28.1875 492.219 28.1875Z" fill="#3E1914"/>
<path d="M443.875 59.4688C440.281 59.4688 436.781 59.2188 433.344 58.7188C429.906 58.2188 427 57.5 424.625 56.5938V46.7188C426.531 48.3438 429.062 49.625 432.25 50.5625C435.438 51.5 438.625 51.9688 441.844 51.9688C445.938 51.9688 449.25 51.125 451.75 49.4062C454.219 47.6875 455.469 45.1562 455.469 41.8125C455.469 40 454.844 38.3125 453.594 36.75H452.969C451.906 39.4062 450.219 41.5625 447.938 43.2188C445.656 44.875 442.844 45.7188 439.531 45.7188C436.312 45.7188 433.562 44.9688 431.219 43.4375C428.875 41.9062 427.156 39.9062 426 37.375C424.844 34.8438 424.281 32 424.281 28.8125C424.281 19.4688 429.594 11.9062 439.469 11.9062C442.781 11.9062 445.594 12.7188 447.938 14.3125C450.25 15.9375 451.906 18.0938 452.906 20.75H453.719V19.4688C453.719 18.125 453.625 17 453.469 16.0938C453.281 15.1875 452.938 14.0938 452.469 12.8125H466.406C465.688 16.5312 465.312 21.0312 465.312 26.25V38.1562C466.156 39.9688 466.594 41.6875 466.594 43.3438C466.594 54.25 455.906 59.5 443.875 59.4688ZM444.469 37.8438C447 37.8438 449.156 36.9375 450.875 35.0938C452.594 33.2812 453.469 31.1875 453.469 28.8125C453.469 26.25 452.625 24.125 450.938 22.4062C449.25 20.6875 447.094 19.8438 444.469 19.8438C441.688 19.8438 439.406 20.6875 437.656 22.375C435.906 24.0625 435.031 26.2188 435.031 28.8125C435.031 31.4688 435.906 33.625 437.656 35.3125C439.406 37 441.688 37.8438 444.469 37.8438Z" fill="#3E1914"/>
<path d="M394.312 45.7188C390.156 45.7188 386.906 44.6875 384.562 42.5938C382.219 40.5312 381.062 37.9062 381.062 34.75C381.062 31.5938 382.219 28.9688 384.562 26.9375C386.906 24.9062 390.156 23.875 394.312 23.875C397.406 23.875 399.969 24.4688 402.062 25.625C404.156 26.7812 405.594 28.2812 406.406 30.0938H407.219V26.4375C407.219 23.7812 406.281 21.8125 404.438 20.4688C402.562 19.1562 400.062 18.5 396.938 18.5C394.469 18.5 392.094 18.8125 389.844 19.4375C387.594 20.0625 385.938 20.8125 384.906 21.6562V14.1562C386.344 13.625 388.531 13.125 391.469 12.625C394.375 12.1562 397.031 11.9062 399.406 11.9062C403.438 11.9062 406.781 12.2812 410.094 13.4062C411.75 14 413.156 14.7188 414.312 15.625C416.625 17.4375 418.156 20.4375 418.156 24.2188V32.0625C418.156 35.5312 418.25 38.2188 418.438 40.0625C418.594 41.9062 418.938 43.5 419.438 44.8125H406.344C406.938 43.6875 407.219 42.0938 407.219 40V39.4375H406.531C404.906 43.2188 400.656 45.7188 394.312 45.7188ZM399.344 39.4375C404.125 39.4375 407.094 37.5625 407.094 34.5625C407.094 33.3125 406.375 32.1875 404.938 31.2188C403.5 30.25 401.625 29.7812 399.344 29.7812C394.75 29.7812 392 31.7188 392 34.5625C392 37.4375 394.75 39.4375 399.344 39.4375Z" fill="#3E1914"/>
<path d="M360.25 45.7188C357.812 45.7188 354.875 45.4375 351.438 44.8438C348 44.2188 345.281 43.5312 343.281 42.75V33.0938C345.469 34.1875 348.125 35.125 351.281 35.9062C354.406 36.6875 357.125 37.0625 359.469 37.0625C364.375 37.0625 366.844 36.0625 366.844 34.0625C366.844 31.2812 361.094 31.2812 355.344 30.4375C349.562 29.5938 343.812 27.9062 343.812 21.7812C343.812 18.9375 345.219 16.5938 348.062 14.7188C350.906 12.8438 354.844 11.9062 359.938 11.9062C364.906 11.9062 369.656 12.8125 374.188 14.6562V23.5C372.656 22.7188 370.688 22 368.219 21.3438C365.75 20.6875 363.25 20.375 360.75 20.375C356.625 20.375 354.094 21.5 354.094 23.25C354.094 28.375 377.156 23.25 377.156 35.2812C377.156 38.5 375.656 41.0312 372.688 42.9062C369.719 44.7812 365.562 45.7188 360.25 45.7188Z" fill="#3E1914"/>
<path d="M323 45.7188C320.562 45.7188 317.625 45.4375 314.188 44.8438C310.75 44.2188 308.031 43.5312 306.031 42.75V33.0938C308.219 34.1875 310.875 35.125 314.031 35.9062C317.156 36.6875 319.875 37.0625 322.219 37.0625C327.125 37.0625 329.594 36.0625 329.594 34.0625C329.594 31.2812 323.844 31.2812 318.094 30.4375C312.312 29.5938 306.562 27.9062 306.562 21.7812C306.562 18.9375 307.969 16.5938 310.812 14.7188C313.656 12.8438 317.594 11.9062 322.688 11.9062C327.656 11.9062 332.406 12.8125 336.938 14.6562V23.5C335.406 22.7188 333.438 22 330.969 21.3438C328.5 20.6875 326 20.375 323.5 20.375C319.375 20.375 316.844 21.5 316.844 23.25C316.844 28.375 339.906 23.25 339.906 35.2812C339.906 38.5 338.406 41.0312 335.438 42.9062C332.469 44.7812 328.312 45.7188 323 45.7188Z" fill="#3E1914"/>
<path d="M285.469 45.7188C279.062 45.7188 273.969 44.1562 270.125 41.0312C266.281 37.9062 264.375 33.8438 264.375 28.8125C264.375 24.0938 266.219 19.9062 269.562 16.8438C272.906 13.7812 278.156 11.9062 284.406 11.9062C290.531 11.9062 295.344 13.25 298.125 15.4062C300.875 17.5625 302.25 20.2812 302.25 23.3125C302.25 29.4688 297.594 32.2812 288.562 32.2812C282.969 32.2812 278.469 31.0938 275.062 28.75L274.594 29C274.75 34.0625 281.188 38.2188 288.375 38.0938C291 38.0938 293.531 37.7188 295.938 36.9375C298.344 36.1875 300.125 35.1875 301.281 33.9375L301.469 42.625C299.875 43.5312 297.562 44.25 294.5 44.8438C291.438 45.4375 288.438 45.7188 285.469 45.7188ZM284.281 28.1875C287.875 28.1875 291.562 26.8438 291.562 24C291.562 22.5938 290.844 21.4375 289.375 20.5312C287.906 19.6562 286.031 19.2188 283.688 19.2188C281.531 19.2188 279.625 19.7812 277.969 20.9062C276.312 22.0625 275.312 23.6562 274.938 25.6875C277.281 27.3438 280.375 28.1875 284.281 28.1875Z" fill="#3E1914"/>
<path d="M205.031 44.8125H191.094C191.875 41.4062 192.25 37.8125 192.25 34.0625V24.7188C192.25 20.1875 191.875 16.2188 191.094 12.8125H205.219C204.281 14.5938 203.812 16.875 203.812 19.5938V20.875H204.531C206.844 14.9062 211.125 11.9062 217.406 11.9062C224.062 11.9062 228.219 14.9062 229.938 20.875H230.562C232.719 15.25 237.562 11.9062 244.219 11.9062C253.25 11.9062 257.594 17.25 257.594 26.375V32.2812C257.594 37.2188 257.969 41.4062 258.75 44.8125H244.781C245.594 41.2188 246 37.4062 246 33.4062V28.375C246 23.25 243.688 20.0312 238.906 20.0312C236.562 20.0312 234.625 20.9062 233.094 22.625C231.562 24.3438 230.75 26.3438 230.719 28.5625V32.9688C230.719 37.3438 231.125 41.2812 231.906 44.8125H218.344C218.875 42.1562 219.125 38.3438 219.125 33.4062V28.375C219.125 23.25 216.844 20.0312 212.094 20.0312C209.562 20.0312 207.562 20.9062 206.062 22.625C204.562 24.3438 203.812 26.4062 203.812 28.8125V33.5625C203.812 35.4062 203.906 37.4688 204.125 39.75C204.344 42.0312 204.625 43.7188 205.031 44.8125Z" fill="#3E1914"/>
<path d="M153.719 44.8125H139.781C140.5 41.5938 140.875 38 140.875 34.0625V24.7188C140.875 20.0625 140.5 16.0938 139.781 12.8125H154.312C153.781 13.7188 153.344 14.9062 153 16.4062C152.656 17.9375 152.5 19.375 152.5 20.75V23.125H153.219C154.625 16 158.844 11.9062 164.75 11.9062C166.438 11.9062 168.094 12.2188 169.719 12.8125V23.375C169 22.7188 168 22.125 166.719 21.6562C165.438 21.1875 164.094 20.9375 162.75 20.9375C160 20.9375 157.594 21.9375 155.562 23.9062C153.531 25.875 152.5 28.3125 152.5 31.1875V36.3125C152.5 39.9375 152.906 42.7812 153.719 44.8125Z" fill="#3E1914"/>
<path d="M105.688 45.7188C101.094 45.7188 97.5312 44.4375 95.0312 41.9062C92.5 39.375 91.25 35.8438 91.25 31.3125V25.3438C91.25 20.2188 90.875 16.0312 90.1562 12.8125H104.094C103.281 16.125 102.875 19.9375 102.875 24.2188V29.3125C102.875 34.4688 105.75 37.5938 110.75 37.5938C113.25 37.5938 115.344 36.7188 117 34.9375C118.656 33.1875 119.469 31.1562 119.469 28.8125V24.0625C119.469 22.2812 119.375 20.2188 119.188 17.9062C118.969 15.5938 118.688 13.9062 118.312 12.8125H132.25C131.469 16.3438 131.062 19.9062 131.062 23.5625V32.9062C131.062 37.3125 131.469 41.2812 132.25 44.8125H118.125C119.031 43.0312 119.469 40.8125 119.469 38.0938V36.8125H118.75C116.438 42.75 112.094 45.7188 105.688 45.7188Z" fill="#3E1914"/>
<path d="M72.9062 44.375C70.3438 45.2812 67.4688 45.7188 64.2812 45.7188C61.0938 45.7188 58.2188 45.2812 55.6562 44.375C50.5312 42.625 47.3438 39.4375 45.625 35.375C44.75 33.3438 44.3125 31.1562 44.3125 28.8125C44.3125 26.4688 44.75 24.25 45.625 22.2188C47.3438 18.1562 50.5312 15 55.6562 13.2188C58.2188 12.3438 61.0938 11.9062 64.2812 11.9062C67.4688 11.9062 70.3438 12.3438 72.9062 13.2188C78.0312 15 81.2188 18.1562 82.9688 22.2188C83.8125 24.25 84.25 26.4688 84.25 28.8125C84.25 31.1562 83.8125 33.375 82.9688 35.4062C81.2188 39.5 78 42.625 72.9062 44.375ZM57.6875 35.375C59.4062 37.0938 61.5938 37.9688 64.2812 37.9688C66.9688 37.9688 69.1562 37.0938 70.875 35.375C72.5625 33.6562 73.4062 31.4688 73.4062 28.8125C73.4062 26.1562 72.5625 23.9375 70.875 22.2188C69.1562 20.5 66.9688 19.6562 64.2812 19.6562C61.5938 19.6562 59.4062 20.5 57.6875 22.2188C55.9688 23.9375 55.125 26.1562 55.125 28.8125C55.125 31.4688 55.9688 33.6562 57.6875 35.375Z" fill="#3E1914"/>
<path d="M32.375 44.8125H18.2812C19.0625 41.2812 19.4375 37.7812 19.4375 34.3125V28.5625L9.40625 13.4375C5.84375 7.59375 2.71875 3.125 0 0H15.0938C16.5938 3.65625 18.0312 6.71875 19.4375 9.21875L24.9375 17.2188H25.5938L31.1562 9.15625C32.4688 6.9375 33.9062 3.875 35.5 0H50.625C47.6875 3.46875 44.5312 7.96875 41.1875 13.4375L31.2188 28.5625V34.375C31.2188 37.8125 31.5938 41.2812 32.375 44.8125Z" fill="#3E1914"/>
</svg>
