<svg width="366" height="48" viewBox="0 0 366 48" fill="none" xmlns="http://www.w3.org/2000/svg">
<path d="M349.125 47.8125C342.719 47.8125 337.625 46.25 333.781 43.125C329.938 40 328.031 35.9375 328.031 30.9062C328.031 26.1875 329.875 22 333.219 18.9375C336.562 15.875 341.812 14 348.062 14C354.188 14 359 15.3438 361.781 17.5C364.531 19.6562 365.906 22.375 365.906 25.4062C365.906 31.5625 361.25 34.375 352.219 34.375C346.625 34.375 342.125 33.1875 338.719 30.8438L338.25 31.0938C338.406 36.1562 344.844 40.3125 352.031 40.1875C354.656 40.1875 357.188 39.8125 359.594 39.0312C362 38.2812 363.781 37.2812 364.938 36.0312L365.125 44.7188C363.531 45.625 361.219 46.3438 358.156 46.9375C355.094 47.5312 352.094 47.8125 349.125 47.8125ZM347.938 30.2812C351.531 30.2812 355.219 28.9375 355.219 26.0938C355.219 24.6875 354.5 23.5312 353.031 22.625C351.562 21.75 349.688 21.3125 347.344 21.3125C345.188 21.3125 343.281 21.875 341.625 23C339.969 24.1562 338.969 25.75 338.594 27.7812C340.938 29.4375 344.031 30.2812 347.938 30.2812Z" fill="#3E1914"/>
<path d="M308.75 46.9062H294.812C295.531 43.6875 295.906 40.0938 295.906 36.1562V26.8125C295.906 22.1562 295.531 18.1875 294.812 14.9062H309.344C308.812 15.8125 308.375 17 308.031 18.5C307.688 20.0312 307.531 21.4688 307.531 22.8438V25.2188H308.25C309.656 18.0938 313.875 14 319.781 14C321.469 14 323.125 14.3125 324.75 14.9062V25.4688C324.031 24.8125 323.031 24.2188 321.75 23.75C320.469 23.2812 319.125 23.0312 317.781 23.0312C315.031 23.0312 312.625 24.0312 310.594 26C308.562 27.9688 307.531 30.4062 307.531 33.2812V38.4062C307.531 42.0312 307.938 44.875 308.75 46.9062Z" fill="#3E1914"/>
<path d="M262.906 47.8125C258.75 47.8125 255.5 46.7812 253.156 44.6875C250.812 42.625 249.656 40 249.656 36.8438C249.656 33.6875 250.812 31.0625 253.156 29.0312C255.5 27 258.75 25.9688 262.906 25.9688C266 25.9688 268.562 26.5625 270.656 27.7188C272.75 28.875 274.188 30.375 275 32.1875H275.812V28.5312C275.812 25.875 274.875 23.9062 273.031 22.5625C271.156 21.25 268.656 20.5938 265.531 20.5938C263.062 20.5938 260.688 20.9062 258.438 21.5312C256.188 22.1562 254.531 22.9062 253.5 23.75V16.25C254.938 15.7188 257.125 15.2188 260.062 14.7188C262.969 14.25 265.625 14 268 14C272.031 14 275.375 14.375 278.688 15.5C280.344 16.0938 281.75 16.8125 282.906 17.7188C285.219 19.5312 286.75 22.5312 286.75 26.3125V34.1562C286.75 37.625 286.844 40.3125 287.031 42.1562C287.188 44 287.531 45.5938 288.031 46.9062H274.938C275.531 45.7812 275.812 44.1875 275.812 42.0938V41.5312H275.125C273.5 45.3125 269.25 47.8125 262.906 47.8125ZM267.938 41.5312C272.719 41.5312 275.688 39.6562 275.688 36.6562C275.688 35.4062 274.969 34.2812 273.531 33.3125C272.094 32.3438 270.219 31.875 267.938 31.875C263.344 31.875 260.594 33.8125 260.594 36.6562C260.594 39.5312 263.344 41.5312 267.938 41.5312Z" fill="#3E1914"/>
<path d="M215.688 46.9062H201.688C202.469 43.75 202.844 39.2812 202.844 33.4688V15.5312C202.844 9.71875 202.469 5.25 201.688 2.09375H215.688C214.875 5.40625 214.469 9.875 214.469 15.5312V22.9688H215.188C217.438 17 221.781 14 228.25 14C232.844 14 236.406 15.2812 238.906 17.8438C241.406 20.4062 242.656 23.9375 242.656 28.4688V34.375C242.656 39.4062 243.031 43.5625 243.781 46.9062H229.844C230.656 43.3125 231.062 39.5 231.062 35.5V30.4688C231.062 25.3125 228.156 22.125 223.25 22.125C220.719 22.125 218.594 23 216.938 24.75C215.25 26.5 214.406 28.5625 214.406 30.9062L214.469 35.6562C214.469 37.5938 214.562 39.6875 214.75 41.9062C214.938 44.1562 215.25 45.8125 215.688 46.9062Z" fill="#3E1914"/>
<path d="M179.281 47.8125C176.844 47.8125 173.906 47.5312 170.469 46.9375C167.031 46.3125 164.312 45.625 162.312 44.8438V35.1875C164.5 36.2812 167.156 37.2188 170.312 38C173.438 38.7812 176.156 39.1562 178.5 39.1562C183.406 39.1562 185.875 38.1562 185.875 36.1562C185.875 33.375 180.125 33.375 174.375 32.5312C168.594 31.6875 162.844 30 162.844 23.875C162.844 21.0312 164.25 18.6875 167.094 16.8125C169.938 14.9375 173.875 14 178.969 14C183.938 14 188.688 14.9062 193.219 16.75V25.5938C191.688 24.8125 189.719 24.0938 187.25 23.4375C184.781 22.7812 182.281 22.4688 179.781 22.4688C175.656 22.4688 173.125 23.5938 173.125 25.3438C173.125 30.4688 196.188 25.3438 196.188 37.375C196.188 40.5938 194.688 43.125 191.719 45C188.75 46.875 184.594 47.8125 179.281 47.8125Z" fill="#3E1914"/>
<path d="M119.062 47.8125C110.781 47.8125 104.125 44.9375 104.125 35.9062V19.8438H97.6875V14.9062H104.125V5L114.969 2.09375V14.9062H126.281V19.8438H114.969V31.875C114.969 36.2812 117.438 38.4688 121.531 38.4688C123.562 38.4688 125.562 37.8438 126.594 37V46.0625C124.812 47.0625 121.781 47.8125 119.062 47.8125Z" fill="#3E1914"/>
<path d="M91.1875 46.9062H77.2188C77.9375 43.6875 78.3125 39.25 78.3125 33.5938V19.8438H70.125V14.9062H79.4688V14.1875C76.4062 13.875 72.75 12.2188 72.75 7.6875C72.75 5.375 73.8125 3.53125 75.9062 2.1875C78 0.84375 80.7188 0.1875 84 0.1875C85.8438 0.1875 87.4375 0.34375 88.8438 0.65625C90.2188 0.96875 92.2812 1.59375 95 2.5V10.625C92.0312 8.875 89.125 8 86.3125 8C82.375 8 80.4062 9.09375 80.4062 11.25C80.4062 12.4688 81.2812 13.375 83.0312 13.9688C84.7812 14.5625 87.0625 14.875 89.9062 14.9062H97.9062V19.8438H90.0312V33.5938C90.0312 39.0625 90.4062 43.5 91.1875 46.9062Z" fill="#3E1914"/>
<path d="M58.9062 11.4375C57 11.4375 55.4688 10.9062 54.3125 9.8125C53.1562 8.71875 52.5625 7.375 52.5625 5.75C52.5625 4.09375 53.1562 2.71875 54.3125 1.625C55.4688 0.53125 57 0 58.9062 0C60.875 0 62.4062 0.53125 63.5625 1.625C64.7188 2.71875 65.2812 4.09375 65.2812 5.75C65.2812 7.40625 64.7188 8.75 63.5625 9.8125C62.4062 10.9062 60.875 11.4375 58.9062 11.4375ZM66 46.9062H51.9062C52.7188 43.7812 53.125 39.3125 53.125 33.4688V21.4375C53.125 18.4062 52.9688 16.2188 52.6875 14.9062C54.25 15.875 56.375 16.3438 59.0938 16.3438C61.8125 16.3438 63.8438 15.875 65.2188 14.9062C64.9375 16.5625 64.7812 18.7188 64.7812 21.4375V33.4688C64.7812 39.3125 65.1875 43.7812 66 46.9062Z" fill="#3E1914"/>
<path d="M24.8438 47.8125C20.0625 47.8125 15.8125 46.875 12.0625 45C8.3125 43.125 5.375 40.4062 3.21875 36.875C1.0625 33.3438 0 29.2812 0 24.6875C0 20.0938 1.125 15.9688 3.34375 12.375C5.5625 8.78125 8.59375 6.03125 12.4062 4.09375C16.2188 2.1875 20.5 1.21875 25.2188 1.21875C31.5625 1.21875 36.9375 2.25 41.3438 4.28125L41.1562 15.875C39.75 14.8125 37.8125 14 35.3438 13.4062C32.875 12.8125 30.4375 12.5312 27.9688 12.5312C23.0312 12.5312 19.0938 13.6562 16.125 15.9062C13.1562 18.1562 11.6562 21.125 11.6562 24.8125C11.6562 28.25 12.9062 31 15.4375 33.0938C17.9688 35.1875 21.2812 36.2188 25.4375 36.2188C29.3125 36.2188 32.3125 35.375 34.4375 33.6562L34.375 28.1562H28.875C26.7812 28.1562 25.0312 28.3125 23.625 28.5938L23.875 21.375H46.0312V41.1562C43.4688 43.25 40.3125 44.9062 36.5312 46.0625C32.75 47.2188 28.875 47.8125 24.8438 47.8125Z" fill="#3E1914"/>
</svg>
