<svg width="205" height="61" viewBox="0 0 205 61" fill="none" xmlns="http://www.w3.org/2000/svg">
<path d="M181.906 60.3458C178.344 60.3458 174.844 60.0958 171.375 59.5958C167.906 59.0958 164.969 58.3771 162.625 57.4708V47.5958C164.531 49.2208 167.062 50.5021 170.25 51.4396C173.438 52.3771 176.625 52.8458 179.844 52.8458C184 52.8458 187.312 52.0021 189.781 50.2833C192.25 48.5646 193.469 46.0333 193.469 42.6896C193.469 40.8458 192.812 39.1271 191.5 37.5021H190.875C188.719 43.2521 184.094 46.5958 177.469 46.5958C172.875 46.5958 169.312 45.3146 166.844 42.7833C164.344 40.2521 163.094 36.7208 163.094 32.1896V26.2208C163.094 21.3458 162.719 17.1583 161.938 13.6896H175.875C175.062 17.0646 174.656 20.8771 174.656 25.0958V30.1896C174.656 35.3458 177.531 38.4708 182.531 38.4708C185.031 38.4708 187.125 37.5958 188.781 35.8146C190.438 34.0646 191.25 32.0333 191.25 29.6896V24.9396C191.25 23.0333 191.156 20.9708 190.969 18.6896C190.781 16.4396 190.5 14.7833 190.094 13.6896H204.031C203.625 15.5958 203.312 17.2833 203.125 18.7521C202.938 20.2521 202.844 22.1583 202.844 24.4396V38.1271C204.031 40.0958 204.625 42.1271 204.625 44.2208C204.625 55.1271 193.938 60.3771 181.906 60.3458Z" fill="#3E1914"/>
<path d="M141 45.6896H127.062C127.781 42.4708 128.156 38.8771 128.156 34.9396V25.5958C128.156 20.9396 127.781 16.9708 127.062 13.6896H141.594C141.062 14.5958 140.625 15.7833 140.281 17.2833C139.938 18.8146 139.781 20.2521 139.781 21.6271V24.0021H140.5C141.906 16.8771 146.125 12.7833 152.031 12.7833C153.719 12.7833 155.375 13.0958 157 13.6896V24.2521C156.281 23.5958 155.281 23.0021 154 22.5333C152.719 22.0646 151.375 21.8146 150.031 21.8146C147.281 21.8146 144.875 22.8146 142.844 24.7833C140.812 26.7521 139.781 29.1896 139.781 32.0646V37.1896C139.781 40.8146 140.188 43.6583 141 45.6896Z" fill="#3E1914"/>
<path d="M106.125 45.6896H92.1875C92.9062 42.4708 93.2812 38.8771 93.2812 34.9396V25.5958C93.2812 20.9396 92.9062 16.9708 92.1875 13.6896H106.719C106.188 14.5958 105.75 15.7833 105.406 17.2833C105.062 18.8146 104.906 20.2521 104.906 21.6271V24.0021H105.625C107.031 16.8771 111.25 12.7833 117.156 12.7833C118.844 12.7833 120.5 13.0958 122.125 13.6896V24.2521C121.406 23.5958 120.406 23.0021 119.125 22.5333C117.844 22.0646 116.5 21.8146 115.156 21.8146C112.406 21.8146 110 22.8146 107.969 24.7833C105.938 26.7521 104.906 29.1896 104.906 32.0646V37.1896C104.906 40.8146 105.312 43.6583 106.125 45.6896Z" fill="#3E1914"/>
<path d="M74.9375 45.2521C72.375 46.1583 69.5 46.5958 66.3125 46.5958C63.125 46.5958 60.25 46.1583 57.6875 45.2521C52.5625 43.5021 49.375 40.3146 47.6562 36.2521C46.7812 34.2208 46.3438 32.0333 46.3438 29.6896C46.3438 27.3458 46.7812 25.1271 47.6562 23.0958C49.375 19.0333 52.5625 15.8771 57.6875 14.0958C60.25 13.2208 63.125 12.7833 66.3125 12.7833C69.5 12.7833 72.375 13.2208 74.9375 14.0958C80.0625 15.8771 83.25 19.0333 85 23.0958C85.8438 25.1271 86.2812 27.3458 86.2812 29.6896C86.2812 32.0333 85.8438 34.2521 85 36.2833C83.25 40.3771 80.0312 43.5021 74.9375 45.2521ZM59.7188 36.2521C61.4375 37.9708 63.625 38.8458 66.3125 38.8458C69 38.8458 71.1875 37.9708 72.9062 36.2521C74.5938 34.5333 75.4375 32.3458 75.4375 29.6896C75.4375 27.0333 74.5938 24.8146 72.9062 23.0958C71.1875 21.3771 69 20.5333 66.3125 20.5333C63.625 20.5333 61.4375 21.3771 59.7188 23.0958C58 24.8146 57.1562 27.0333 57.1562 29.6896C57.1562 32.3458 58 34.5333 59.7188 36.2521Z" fill="#3E1914"/>
<path d="M21.25 46.5958C18.1875 46.5958 14.5938 46.2208 10.4375 45.4396C6.28125 44.6583 2.8125 43.7208 0 42.6271L0.53125 29.1896C3.09375 31.2208 6.21875 32.7833 9.9375 33.8458C13.6562 34.9083 17.2812 35.4396 20.875 35.4396C26.2188 35.5021 30.2812 34.2208 30.3438 31.3458C30.3438 24.0646 1.15625 30.9708 1.15625 13.8771C1.03125 5.40833 10.0938 -0.122924 21.8438 0.00207551C24.9062 0.00207551 27.9688 0.314575 31.0625 0.908325C34.125 1.50208 36.6875 2.22083 38.7188 3.06458V15.9396C36.875 14.6896 34.4688 13.6271 31.4375 12.7833C28.4062 11.9396 25.3438 11.5021 22.2188 11.5021C16.5 11.5021 12.9375 12.8146 12.9375 15.4708C12.9062 19.9396 22 19.7521 30.0625 21.4708C36.5312 22.9083 42.3125 25.5646 42.3125 33.0021C42.3125 35.9083 41.4062 38.3771 39.5625 40.4396C37.7188 42.5333 35.25 44.0646 32.125 45.0646C28.9688 46.0958 25.3438 46.5958 21.25 46.5958Z" fill="#3E1914"/>
</svg>
