<svg width="834" height="518" viewBox="0 0 834 518" fill="none" xmlns="http://www.w3.org/2000/svg">
<path d="M417 101C186.697 101 0 287.697 0 518H834C834 287.697 647.303 101 417 101Z" fill="#BA1B06"/>
<path d="M364.181 163C389.134 163 409.362 136.809 409.362 104.5C409.362 72.1913 389.134 46 364.181 46C339.228 46 319 72.1913 319 104.5C319 136.809 339.228 163 364.181 163Z" fill="white"/>
<path d="M346.02 125.129C355.186 125.129 362.617 115.893 362.617 104.5C362.617 93.1067 355.186 83.8707 346.02 83.8707C336.854 83.8707 329.424 93.1067 329.424 104.5C329.424 115.893 336.854 125.129 346.02 125.129Z" fill="#211815"/>
<path d="M467.655 163C492.608 163 512.836 136.809 512.836 104.5C512.836 72.1913 492.608 46 467.655 46C442.702 46 422.474 72.1913 422.474 104.5C422.474 136.809 442.702 163 467.655 163Z" fill="white"/>
<path d="M449.494 125.129C458.66 125.129 466.09 115.893 466.09 104.5C466.09 93.1067 458.66 83.8707 449.494 83.8707C440.328 83.8707 432.897 93.1067 432.897 104.5C432.897 115.893 440.328 125.129 449.494 125.129Z" fill="#211815"/>
<path d="M610.321 179.41C640.503 141.173 680.104 152.349 687.187 201.107C694.588 156.442 709.445 147.976 751.662 164.366C713.332 133.436 723.891 93.6669 772.164 87.1633C727.741 79.1086 719.144 64.0082 734.843 21.6974C704.661 59.9341 665.06 48.7584 657.977 0C650.576 44.6656 635.719 53.1315 593.501 36.7417C631.85 67.6899 621.272 107.44 573 113.944C617.423 121.999 626.019 137.099 610.321 179.41Z" fill="#DCDD9B"/>
<path d="M610.321 179.41C640.503 141.173 680.104 152.349 687.187 201.107C694.588 156.442 709.445 147.976 751.662 164.366C713.332 133.436 723.891 93.6669 772.164 87.1633C727.741 79.1086 719.144 64.0082 734.843 21.6974C704.661 59.9341 665.06 48.7584 657.977 0C650.576 44.6656 635.719 53.1315 593.501 36.7417C631.85 67.6899 621.272 107.44 573 113.944C617.423 121.999 626.019 137.099 610.321 179.41Z" fill="#DCDD9B"/>
<path d="M622.001 89.8169C629.164 89.8169 634.971 82.2697 634.971 72.9598C634.971 63.6499 629.164 56.1028 622.001 56.1028C614.838 56.1028 609.031 63.6499 609.031 72.9598C609.031 82.2697 614.838 89.8169 622.001 89.8169Z" fill="white"/>
<path d="M616.32 80.641C618.58 80.641 620.413 78.3567 620.413 75.539C620.413 72.7212 618.58 70.437 616.32 70.437C614.06 70.437 612.227 72.7212 612.227 75.539C612.227 78.3567 614.06 80.641 616.32 80.641Z" fill="#211815"/>
<path d="M651.697 89.8169C658.86 89.8169 664.667 82.2697 664.667 72.9598C664.667 63.6499 658.86 56.1028 651.697 56.1028C644.534 56.1028 638.727 63.6499 638.727 72.9598C638.727 82.2697 644.534 89.8169 651.697 89.8169Z" fill="white"/>
<path d="M645.586 80.641C647.847 80.641 649.679 78.3567 649.679 75.539C649.679 72.7212 647.847 70.437 645.586 70.437C643.326 70.437 641.494 72.7212 641.494 75.539C641.494 78.3567 643.326 80.641 645.586 80.641Z" fill="#211815"/>
<path d="M144.455 241.288C119.733 297.594 258.658 248.382 203.998 220.193C258.658 248.382 206.267 100.499 181.545 156.82C206.267 100.514 67.3422 149.726 122.002 177.916C67.3422 149.726 119.733 297.609 144.455 241.288Z" fill="#DB94B8"/>
<path d="M184.753 236.592C190.291 236.592 194.78 230.757 194.78 223.559C194.78 216.361 190.291 210.526 184.753 210.526C179.215 210.526 174.725 216.361 174.725 223.559C174.725 230.757 179.215 236.592 184.753 236.592Z" fill="white"/>
<path d="M179.998 223.025C181.746 223.025 183.163 221.258 183.163 219.08C183.163 216.902 181.746 215.135 179.998 215.135C178.251 215.135 176.834 216.902 176.834 219.08C176.834 221.258 178.251 223.025 179.998 223.025Z" fill="#211815"/>
<path d="M207.712 236.592C213.25 236.592 217.739 230.757 217.739 223.559C217.739 216.361 213.25 210.526 207.712 210.526C202.174 210.526 197.685 216.361 197.685 223.559C197.685 230.757 202.174 236.592 207.712 236.592Z" fill="white"/>
<path d="M202.987 223.025C204.734 223.025 206.151 221.258 206.151 219.08C206.151 216.902 204.734 215.135 202.987 215.135C201.239 215.135 199.823 216.902 199.823 219.08C199.823 221.258 201.239 223.025 202.987 223.025Z" fill="#211815"/>
</svg>
